<?xml version="1.0" encoding="UTF-8"?>
<svg xmlns="http://www.w3.org/2000/svg" xmlns:xlink="http://www.w3.org/1999/xlink" width="288" height="288" viewBox="0 0 288 288">
<rect x="-28.8" y="-28.8" width="345.6" height="345.6" fill="rgb(100%, 100%, 100%)" fill-opacity="1"/>
<rect x="-28.8" y="-28.8" width="345.6" height="345.6" fill="rgb(100%, 100%, 100%)" fill-opacity="1"/>
<path fill="none" stroke-width="0.75" stroke-linecap="round" stroke-linejoin="round" stroke="rgb(100%, 100%, 100%)" stroke-opacity="1" stroke-miterlimit="10" d="M 0 288 L 288 288 L 288 0 L 0 0 Z M 0 288 "/>
<path fill="none" stroke-width="1.5" stroke-linecap="round" stroke-linejoin="round" stroke="rgb(0%, 0%, 0%)" stroke-opacity="1" stroke-miterlimit="10" d="M 10.710938 198.375 L 10.800781 192.855469 L 10.878906 184.566406 L 10.910156 181.660156 L 11.007812 171.578125 L 11.007812 171.574219 L 11.175781 159.527344 L 11.253906 153.957031 L 11.34375 147.511719 L 11.578125 134.738281 L 11.625 132.054688 L 11.625 132.050781 L 11.699219 124.984375 L 11.722656 122.699219 L 11.734375 118.289062 L 11.75 108.535156 L 11.714844 96.402344 L 11.703125 92.246094 L 11.699219 90.40625 L 17.4375 84.5625 L 27.902344 73.902344 L 33.675781 67.671875 L 36.347656 64.976562 L 42.378906 67.183594 L 47.121094 62.144531 L 49.863281 60.460938 L 56.269531 54.425781 L 58.261719 53.105469 L 68.992188 50.632812 L 74.183594 50.695312 L 78.722656 56.8125 L 82.320312 60.144531 L 89.105469 57.277344 L 94.785156 56.648438 L 118.265625 62.339844 L 127.578125 59.824219 L 141.820312 59.375 L 142.679688 60.789062 L 142.84375 61.058594 L 147.242188 65.007812 L 152.433594 67.3125 L 156.9375 67.613281 L 163.066406 65.117188 L 163.917969 65.078125 L 168.851562 64.859375 L 174.238281 62.335938 L 181.085938 60.773438 L 185.832031 59.691406 L 187.453125 60.34375 L 187.957031 60.550781 L 189.351562 61.113281 L 196.503906 60.875 L 197.230469 60.851562 L 199.847656 61.109375 L 201.695312 61.292969 L 208.210938 58.085938 L 217.203125 52.289062 L 218.605469 51.382812 L 219.75 50.53125 L 226.375 50.039062 L 233.53125 45.636719 L 238.152344 44.378906 L 258.464844 52.769531 L 263.824219 59.210938 L 268.003906 59.847656 L 271.242188 58.375 L 272.113281 57.039062 L 268.121094 55.636719 L 266.308594 53.625 L 277.3125 56.34375 L 277.316406 60.589844 L 277.316406 61.257812 L 277.328125 70.878906 L 277.332031 77.136719 L 277.316406 83.289062 L 277.3125 83.804688 L 277.285156 92.367188 L 277.269531 97.394531 L 277.273438 97.789062 L 277.28125 100.84375 L 277.328125 114.121094 L 273.320312 115.578125 L 270.621094 115.300781 L 268.089844 117.644531 L 270.929688 121.53125 L 272 126.160156 L 270.609375 129.390625 L 270.34375 130 L 271.894531 135.128906 L 269.539062 138.4375 L 267.085938 142.480469 L 265.945312 144.363281 L 265.730469 144.714844 L 263.820312 149.222656 L 263.761719 151.273438 L 258.476562 149.542969 L 253.277344 145.390625 L 249.59375 139.28125 L 245.175781 137.742188 L 237.441406 142.292969 L 234.207031 147.601562 L 233.507812 150.839844 L 234.257812 153.78125 L 232.839844 155.746094 L 229.25 156.726562 L 226.519531 160.335938 L 224.648438 166.574219 L 224.273438 171.394531 L 225.394531 174.785156 L 223.601562 177.289062 L 218.902344 178.890625 L 213.347656 184.28125 L 206.941406 193.445312 L 200.574219 199.847656 L 194.238281 203.484375 L 191.183594 207.523438 L 191.398438 211.964844 L 191.015625 213.347656 L 189.804688 213.878906 L 187.742188 214.484375 L 175.523438 204.828125 L 172.011719 198.105469 L 168.984375 199.132812 L 165.140625 202.527344 L 159.746094 210.101562 L 153.949219 220.410156 L 151.144531 221.558594 L 136.679688 220.027344 L 129.027344 220.933594 L 127.457031 222.316406 L 126.734375 226.09375 L 127.175781 231.15625 L 127.53125 234.226562 L 127.015625 234.351562 L 122.757812 235.203125 L 121.609375 236.050781 L 120.867188 236.597656 L 116.523438 238.957031 L 115.496094 240.980469 L 112.785156 242.265625 L 108.640625 241.730469 L 107.105469 242.726562 L 105.726562 243.621094 L 103.617188 242.109375 L 100.160156 239.613281 L 96.183594 239.105469 L 90.421875 237 L 84.621094 238.460938 L 83.621094 240.785156 L 83.375 240.878906 L 81.359375 241.636719 L 79.726562 241.121094 L 75.613281 239.828125 L 74.902344 237.414062 L 71.777344 236.105469 L 70.65625 233.828125 L 67.414062 232.808594 L 65.921875 232.339844 L 65.101562 232.128906 L 65.476562 229.984375 L 68.15625 217.011719 L 67.160156 214.753906 L 62.769531 210.855469 L 57.203125 210.460938 L 51.0625 211.679688 L 48.105469 209.6875 L 45.515625 205.234375 L 41.140625 203.101562 L 33.378906 206.660156 L 25.175781 212.019531 L 23.703125 213.15625 L 22.917969 212.863281 L 20.144531 211.832031 L 19.648438 209.695312 L 19.234375 204.945312 L 18.726562 203.769531 L 14.347656 202.085938 L 10.667969 201.203125 Z M 10.710938 198.375 "/>
</svg>
