<?xml version="1.0" encoding="UTF-8"?>
<svg xmlns="http://www.w3.org/2000/svg" xmlns:xlink="http://www.w3.org/1999/xlink" width="288" height="288" viewBox="0 0 288 288">
<rect x="-28.8" y="-28.8" width="345.6" height="345.6" fill="rgb(100%, 100%, 100%)" fill-opacity="1"/>
<rect x="-28.8" y="-28.8" width="345.6" height="345.6" fill="rgb(100%, 100%, 100%)" fill-opacity="1"/>
<path fill="none" stroke-width="0.75" stroke-linecap="round" stroke-linejoin="round" stroke="rgb(100%, 100%, 100%)" stroke-opacity="1" stroke-miterlimit="10" d="M 0 288 L 288 288 L 288 0 L 0 0 Z M 0 288 "/>
<path fill="none" stroke-width="1.5" stroke-linecap="round" stroke-linejoin="round" stroke="rgb(0%, 0%, 0%)" stroke-opacity="1" stroke-miterlimit="10" d="M 28.460938 76.21875 L 29.925781 77.066406 L 37.925781 80.113281 L 41.832031 82.328125 L 41.636719 83.710938 L 39.800781 85.070312 L 36.324219 86.410156 L 34.300781 88.179688 L 33.742188 90.382812 L 34.273438 91.9375 L 36.6875 93.292969 L 51.046875 91.515625 L 65.613281 92.433594 L 85.175781 95.449219 L 98.148438 96.5 L 107.726562 95.101562 L 125.476562 97.628906 L 141.992188 99.984375 L 157.851562 100.6875 L 166.738281 98.835938 L 172.972656 96.347656 L 178.359375 91.667969 L 191.632812 85.507812 L 204.484375 82.058594 L 221.332031 79.265625 L 232.570312 78.316406 L 234.160156 79.269531 L 248.480469 84.914062 L 254.855469 84.933594 L 257.414062 85.429688 L 259.101562 87.40625 L 257.710938 88.867188 L 255.515625 91.03125 L 253.585938 92.84375 L 253.601562 95.328125 L 253.613281 97.226562 L 254.347656 99.570312 L 254.515625 100.105469 L 255.335938 103.402344 L 257.179688 105.203125 L 258.5 109.28125 L 261.011719 111.851562 L 264.570312 113.492188 L 266.664062 113.929688 L 268.753906 114.367188 L 273.871094 115.253906 L 275.882812 116.132812 L 277.203125 118.425781 L 277.332031 118.714844 L 277.136719 118.957031 L 274.511719 120.675781 L 272.144531 122.699219 L 270.621094 130.253906 L 270.261719 142.667969 L 266.949219 144.1875 L 263.910156 144.652344 L 251.269531 155.628906 L 258.546875 158.722656 L 261.773438 161.082031 L 267.089844 167.648438 L 270.214844 170.714844 L 268.0625 170.835938 L 265.378906 172.027344 L 263.390625 171.6875 L 260.515625 171.992188 L 258.765625 174.546875 L 258.460938 175.929688 L 258.339844 176.179688 L 258.324219 176.210938 L 256.457031 180.136719 L 256.476562 180.160156 L 255.742188 180.414062 L 253.625 180.976562 L 250.800781 179.765625 L 245.542969 176.132812 L 242.347656 173.601562 L 239.96875 172.964844 L 237.574219 173.714844 L 229.039062 174.570312 L 227.019531 176.046875 L 223.074219 177.675781 L 219.105469 178.449219 L 213.410156 179 L 210.40625 178.925781 L 208.734375 179.714844 L 207.324219 182.097656 L 206.363281 184.425781 L 205.523438 185.371094 L 198.425781 186.527344 L 196.867188 187.867188 L 196.433594 189.179688 L 196.570312 190.492188 L 190.914062 189.222656 L 186.535156 190.066406 L 185.507812 191.070312 L 184.589844 192.515625 L 185.105469 194.058594 L 186.714844 195.550781 L 188.234375 199.605469 L 188.78125 203.664062 L 187.847656 205.96875 L 184.609375 207.613281 L 177.886719 209.433594 L 171.382812 208.5625 L 168.511719 209.285156 L 163.699219 209.515625 L 159.261719 210 L 152.441406 211.664062 L 151.878906 211.753906 L 151.589844 211.757812 L 150.230469 211.761719 L 144.894531 211.785156 L 140.757812 209.25 L 134.1875 206.941406 L 127.292969 205.570312 L 124.890625 206.570312 L 123.855469 207.359375 L 118.089844 204.363281 L 115.5 203.296875 L 114.25 202.140625 L 111.847656 198.15625 L 110.421875 198.03125 L 105.664062 199.511719 L 101.09375 199.441406 L 98.316406 199.171875 L 90.125 199.339844 L 89.035156 202.0625 L 88.023438 202.484375 L 86.246094 202.847656 L 81.890625 202.675781 L 76.320312 204.691406 L 70.34375 205.917969 L 65.675781 205.953125 L 60.859375 205.359375 L 57.976562 205.785156 L 51.761719 206.003906 L 47.820312 208.957031 L 41.695312 208.789062 L 37.101562 208.34375 L 37.078125 208.304688 L 36.664062 208.113281 L 37.1875 207.359375 L 38.210938 195.671875 L 40.757812 190.472656 L 40.660156 189.40625 L 40.113281 188.597656 L 37.855469 187.761719 L 36.222656 184.960938 L 32.820312 177.59375 L 30.90625 176.101562 L 30.265625 175.914062 L 30.175781 174.5 L 30.242188 173.566406 L 30.46875 170.484375 L 27.628906 169.828125 L 26.589844 166.351562 L 23.042969 167.09375 L 22.511719 165.554688 L 21.277344 163.101562 L 21.589844 160.53125 L 21.753906 160.160156 L 22.710938 158.027344 L 23.792969 154.726562 L 21.757812 152.519531 L 20.867188 151.320312 L 19.351562 149.273438 L 20.597656 146.273438 L 16.316406 144.042969 L 15.320312 143.550781 L 15.375 142.617188 L 14.136719 140.742188 L 15.429688 138.410156 L 18.0625 137.136719 L 19.722656 136.761719 L 26.679688 136.511719 L 31.085938 131.851562 L 33.761719 130.363281 L 36.507812 127.726562 L 37.777344 126.761719 L 38.984375 124.710938 L 39.402344 122.613281 L 33.890625 119.683594 L 32.019531 117.480469 L 29.566406 115.050781 L 26.25 113.371094 L 19.558594 110.488281 L 16.949219 107.570312 L 15.773438 103.789062 L 14 100.929688 L 12.046875 99.066406 L 11.675781 97.554688 L 10.863281 95.695312 L 10.667969 92.046875 L 12.246094 87.207031 L 13.269531 85.503906 L 15.535156 85.027344 L 21.570312 82.449219 L 21.851562 79.160156 L 22.941406 77.117188 L 24.421875 76.214844 Z M 28.460938 76.21875 "/>
</svg>
