<?xml version="1.0" encoding="UTF-8"?>
<svg xmlns="http://www.w3.org/2000/svg" xmlns:xlink="http://www.w3.org/1999/xlink" width="288" height="288" viewBox="0 0 288 288">
<rect x="-28.8" y="-28.8" width="345.6" height="345.6" fill="rgb(100%, 100%, 100%)" fill-opacity="1"/>
<rect x="-28.8" y="-28.8" width="345.6" height="345.6" fill="rgb(100%, 100%, 100%)" fill-opacity="1"/>
<path fill="none" stroke-width="0.75" stroke-linecap="round" stroke-linejoin="round" stroke="rgb(100%, 100%, 100%)" stroke-opacity="1" stroke-miterlimit="10" d="M 0 288 L 288 288 L 288 0 L 0 0 Z M 0 288 "/>
<path fill="none" stroke-width="1.5" stroke-linecap="round" stroke-linejoin="round" stroke="rgb(0%, 0%, 0%)" stroke-opacity="1" stroke-miterlimit="10" d="M 13.03125 177.761719 L 13.0625 177.671875 L 14.507812 173.910156 L 15.328125 171.070312 L 15.847656 169.015625 L 16.285156 167.535156 L 15.691406 166.511719 L 17.246094 165.214844 L 19.441406 162.222656 L 21.203125 158.367188 L 21.683594 156.65625 L 22.527344 153.628906 L 23.628906 148.625 L 23.957031 147.128906 L 24.875 141.007812 L 25.25 136.886719 L 25.113281 135.265625 L 26.132812 131.207031 L 26.160156 128.523438 L 26.773438 124.40625 L 26.828125 122.195312 L 26.472656 119.230469 L 26.835938 118.070312 L 28.132812 114.5 L 28.589844 111.542969 L 28.597656 111.46875 L 29.734375 108.421875 L 29.816406 106.210938 L 30.148438 104.246094 L 29.59375 102.15625 L 30.226562 99.59375 L 29.695312 97.773438 L 30.65625 95.457031 L 30.9375 92.472656 L 30.921875 91.03125 L 29.960938 89.550781 L 29.988281 89.261719 L 31.515625 89.15625 L 36.257812 88.539062 L 38.011719 87.441406 L 39.757812 86.707031 L 42.511719 84.777344 L 48.597656 81.785156 L 59.359375 80.695312 L 63.378906 79.28125 L 63.929688 79.148438 L 65.132812 79.550781 L 66.71875 81.664062 L 68.113281 83.300781 L 68.195312 84.777344 L 69.070312 86.15625 L 68.96875 86.667969 L 68.71875 87.925781 L 69.847656 89.484375 L 69.679688 90.421875 L 69.417969 91.902344 L 70.015625 92.457031 L 70.621094 93.019531 L 73.730469 94.074219 L 78.742188 94.890625 L 80.515625 95.496094 L 82.441406 95.117188 L 84.054688 95.96875 L 86.332031 96.089844 L 86.773438 95.914062 L 88.941406 95.0625 L 91.648438 94.882812 L 94.886719 93.886719 L 96.601562 92.992188 L 97.53125 92.703125 L 98.285156 92.46875 L 99.398438 91.507812 L 101.246094 91.09375 L 103.761719 91.484375 L 105.96875 91.144531 L 110.4375 90.484375 L 110.738281 90.570312 L 113.492188 91.328125 L 114.054688 91.484375 L 116.890625 91.148438 L 120.921875 92.183594 L 121.980469 94.175781 L 124.015625 93.882812 L 125.246094 92.902344 L 129.90625 92.640625 L 130.898438 92.898438 L 131.503906 93.054688 L 132.824219 92.175781 L 138.316406 90.8125 L 139.535156 90.191406 L 140.117188 89.894531 L 141.5625 89.871094 L 144.382812 91.300781 L 144.953125 91.304688 L 147.75 91.324219 L 151.773438 90.648438 L 154.132812 90.503906 L 156.425781 89.054688 L 158.78125 88.6875 L 161.113281 87.871094 L 162.230469 87.484375 L 165.453125 87.058594 L 167.617188 86.773438 L 172.007812 86.488281 L 173.429688 85.292969 L 184.242188 85.550781 L 199.964844 85.933594 L 216.277344 86.328125 L 233.933594 86.753906 L 252.546875 87.003906 L 253.683594 86.832031 L 255.585938 85.832031 L 257.90625 85.964844 L 260.640625 86.585938 L 261.921875 87.050781 L 262.464844 87.574219 L 262.804688 88.183594 L 264.300781 88.304688 L 267.039062 88.769531 L 270.738281 89.828125 L 273.640625 90.855469 L 276.175781 92.207031 L 276.503906 92.519531 L 277.316406 93.992188 L 277.332031 94.621094 L 276.660156 95.402344 L 273.835938 99.21875 L 270.980469 103.191406 L 270.445312 104.59375 L 270.273438 105.035156 L 268.335938 109.398438 L 267.394531 110.523438 L 267.378906 110.546875 L 265.472656 111.980469 L 264.910156 113.601562 L 265.726562 115.152344 L 264.679688 116.96875 L 263.886719 117.90625 L 262.484375 119.570312 L 259.773438 120.519531 L 258.171875 121.445312 L 257.09375 123.796875 L 255.507812 126.761719 L 254.707031 127.824219 L 252.765625 129.203125 L 253.125 130.84375 L 252.199219 131.980469 L 253.0625 132.949219 L 253.878906 133.941406 L 253.226562 134.953125 L 253.058594 135.207031 L 254.601562 136.136719 L 256.230469 135.546875 L 258.269531 136.816406 L 261.15625 136.867188 L 261.371094 138.175781 L 263.445312 138.640625 L 263.667969 139.433594 L 263.605469 139.484375 L 260.976562 141.609375 L 262.300781 143.378906 L 261.554688 144.847656 L 261.023438 147.613281 L 260.707031 148.070312 L 259.449219 149.890625 L 259.382812 154.449219 L 259.339844 157.128906 L 259.347656 175.394531 L 259.363281 182.402344 L 259.351562 196.28125 L 259.363281 208.613281 L 253.695312 208.597656 L 246.894531 208.632812 L 239.621094 208.660156 L 231.367188 208.664062 L 220.671875 208.710938 L 220.664062 208.710938 L 210.628906 208.761719 L 201.546875 208.851562 L 194.109375 208.8125 L 187.257812 208.832031 L 183.429688 208.8125 L 182.242188 208.804688 L 170.160156 208.730469 L 161.125 208.789062 L 155.097656 208.789062 L 144.539062 208.8125 L 138.222656 208.816406 L 132.023438 208.824219 L 126.890625 208.828125 L 119.757812 208.691406 L 115.121094 208.703125 L 114.773438 207.925781 L 113.246094 207.273438 L 107.703125 206.496094 L 106.277344 206.941406 L 104.988281 206.484375 L 102.972656 205.507812 L 99.46875 204.710938 L 99.085938 204.300781 L 97.824219 203.605469 L 97.125 203.511719 L 96.671875 203.933594 L 95.652344 204.535156 L 92.050781 205.292969 L 90.613281 204.980469 L 89.304688 204.320312 L 87.816406 202.902344 L 85.648438 201.65625 L 83.867188 201.21875 L 82.847656 200.566406 L 82.621094 200.058594 L 86.582031 199.039062 L 87.445312 197.992188 L 86.941406 196.082031 L 86.351562 195.839844 L 84.777344 196.484375 L 81.472656 197.054688 L 78.421875 197.316406 L 76.867188 197.316406 L 68.167969 193.839844 L 62.507812 192.78125 L 59.183594 192.472656 L 58.820312 192.824219 L 60.328125 194.769531 L 62.925781 197.175781 L 62.804688 197.816406 L 59.6875 198.804688 L 57.917969 199.234375 L 55.828125 200.070312 L 54.066406 201.226562 L 52.542969 201.753906 L 51.222656 201.621094 L 49.816406 201.0625 L 46.214844 197.496094 L 41.683594 194.769531 L 41.144531 194.160156 L 39.726562 194.023438 L 37.726562 193.398438 L 37.050781 192.566406 L 38.054688 191.699219 L 39.4375 190.902344 L 41.886719 190.414062 L 42.628906 189.953125 L 43.0625 189.261719 L 43.96875 188.367188 L 43.730469 188.042969 L 41.996094 187.03125 L 39.425781 186.074219 L 32.296875 186.792969 L 30.339844 187.304688 L 29.234375 186.640625 L 28.398438 185.667969 L 26.597656 185.480469 L 24.128906 184.59375 L 21.199219 183.730469 L 18.335938 183.472656 L 12.386719 182.222656 L 11.015625 182.179688 L 10.667969 181.335938 Z M 13.03125 177.761719 "/>
</svg>
