<?xml version="1.0" encoding="UTF-8"?>
<svg xmlns="http://www.w3.org/2000/svg" xmlns:xlink="http://www.w3.org/1999/xlink" width="288" height="288" viewBox="0 0 288 288">
<rect x="-28.8" y="-28.8" width="345.6" height="345.6" fill="rgb(100%, 100%, 100%)" fill-opacity="1"/>
<rect x="-28.8" y="-28.8" width="345.6" height="345.6" fill="rgb(100%, 100%, 100%)" fill-opacity="1"/>
<path fill="none" stroke-width="0.75" stroke-linecap="round" stroke-linejoin="round" stroke="rgb(100%, 100%, 100%)" stroke-opacity="1" stroke-miterlimit="10" d="M 0 288 L 288 288 L 288 0 L 0 0 Z M 0 288 "/>
<path fill="none" stroke-width="1.5" stroke-linecap="round" stroke-linejoin="round" stroke="rgb(0%, 0%, 0%)" stroke-opacity="1" stroke-miterlimit="10" d="M 22.929688 126.066406 L 22.957031 126.03125 L 24.394531 124.316406 L 27.347656 117.65625 L 27.609375 116.980469 L 28.429688 114.839844 L 32.789062 108.773438 L 37.097656 102.953125 L 39.078125 100.644531 L 35.8125 97.5625 L 35.4375 95.085938 L 32.546875 93.011719 L 31.492188 92.964844 L 31.011719 91.921875 L 28.785156 89.671875 L 29.816406 85.199219 L 34.105469 78.503906 L 36.878906 72.546875 L 38.136719 67.339844 L 38.054688 63.136719 L 36.628906 59.929688 L 37.234375 57.761719 L 39.867188 56.617188 L 41.050781 53.238281 L 40.652344 44.808594 L 37.929688 37.84375 L 40.011719 32.324219 L 45.988281 25.933594 L 49.109375 20.769531 L 49.367188 16.835938 L 51.226562 14.570312 L 54.078125 18.816406 L 62.574219 19.941406 L 71.117188 20.097656 L 72.507812 19.027344 L 75.855469 12.0625 L 76.675781 11.695312 L 76.726562 12.15625 L 80.878906 14.46875 L 77.941406 15.582031 L 77.0625 17.375 L 83.703125 19.683594 L 86.058594 22.089844 L 89.132812 23.421875 L 94.132812 24.316406 L 96.398438 24.742188 L 98.15625 26.84375 L 99.988281 28.445312 L 103.332031 30.441406 L 106.789062 33.632812 L 109.292969 35.425781 L 111.289062 37.738281 L 114.832031 39.511719 L 116.546875 40.371094 L 115.746094 42.492188 L 118.910156 45.070312 L 123.476562 46.59375 L 124.628906 48.425781 L 128.066406 48.363281 L 129.183594 48.75 L 130.53125 49.214844 L 131.878906 51.207031 L 131.976562 52.144531 L 132.394531 52.214844 L 131.4375 60.890625 L 131.582031 64.773438 L 132.128906 65.894531 L 134.789062 65.988281 L 138.738281 65.347656 L 142.0625 63.460938 L 143.53125 61.847656 L 143.914062 63.523438 L 142.015625 64.667969 L 141.546875 68.207031 L 141.0625 69.921875 L 140.632812 71.625 L 140.832031 74.5625 L 137.363281 74.851562 L 137.027344 76.824219 L 140.117188 78.136719 L 139.101562 81.246094 L 141.070312 83.199219 L 143.03125 84.457031 L 142.484375 86.792969 L 143.738281 88.15625 L 141.988281 89.414062 L 137.238281 90.324219 L 134.949219 92.945312 L 137.859375 95.652344 L 138.121094 98.144531 L 136.300781 99.007812 L 136.179688 101.066406 L 136.90625 102.074219 L 137.785156 103.300781 L 140.285156 104.019531 L 144.734375 106.429688 L 149.238281 107 L 150.617188 104.308594 L 153.914062 103.945312 L 159.125 101.199219 L 162.566406 98.851562 L 162.53125 96.875 L 164.753906 96.664062 L 165.925781 97.507812 L 168.417969 99.3125 L 170.308594 100.273438 L 173.066406 101.285156 L 173.261719 104.996094 L 175.425781 106.996094 L 175.253906 109.492188 L 176.816406 111.5 L 176.65625 114.324219 L 180.96875 118.601562 L 184.769531 123.628906 L 187.992188 124.980469 L 190.957031 126.910156 L 191.675781 129.390625 L 191.109375 131.925781 L 189.820312 133.953125 L 192.453125 137.203125 L 194.730469 137.570312 L 198.546875 139.277344 L 201.289062 138.136719 L 207.128906 140.910156 L 208.652344 143.585938 L 211.265625 147.367188 L 210.671875 149.855469 L 213.410156 152.671875 L 213.40625 154.910156 L 216.21875 157.546875 L 219.714844 159.292969 L 222.488281 158.097656 L 222.734375 157.992188 L 222.417969 156.3125 L 227.113281 153.597656 L 228.488281 153.410156 L 233.832031 153.984375 L 240.320312 154.511719 L 244.648438 156.042969 L 246.085938 152.175781 L 249.753906 150.28125 L 253.003906 151.472656 L 257.878906 152.191406 L 262.464844 151.75 L 265.382812 151.304688 L 272.003906 153.796875 L 275.734375 156.878906 L 277.332031 160.070312 L 272.871094 164.820312 L 268.027344 170.777344 L 263.734375 175.457031 L 259.316406 178.722656 L 257.851562 180.972656 L 256.871094 184.460938 L 256.917969 202.886719 L 256.550781 209.722656 L 256.871094 211.542969 L 257.5 212.757812 L 260.289062 214.574219 L 263.617188 216.101562 L 264.976562 216.375 L 262.507812 218.433594 L 259.839844 222.335938 L 256.710938 231.675781 L 246.199219 244.539062 L 244.0625 251.777344 L 232.714844 259.320312 L 224.734375 267.796875 L 219.511719 267.585938 L 214.808594 271.210938 L 203.238281 275.910156 L 201.1875 275.925781 L 188.710938 276.070312 L 172.5 276.304688 L 165.226562 276.140625 L 164.109375 275.332031 L 148.851562 273.574219 L 139.28125 275.511719 L 138.070312 276.015625 L 133.148438 276.011719 L 117.96875 275.742188 L 110.964844 275.804688 L 110.824219 275.804688 L 109.011719 273.558594 L 89.238281 268.125 L 73.324219 255.753906 L 54.523438 255.515625 L 40.117188 257.132812 L 37.894531 255.492188 L 36.433594 252.316406 L 33.457031 247.714844 L 21.058594 236.757812 L 11.316406 225.839844 L 10.675781 222.230469 L 10.667969 204.136719 L 10.753906 203.367188 L 13.679688 189.453125 L 13.167969 185.101562 L 16.765625 182.617188 L 20.324219 182.117188 L 23.753906 178.503906 L 26.824219 173.042969 L 27.347656 168.898438 L 24.964844 161.226562 L 23.320312 150.476562 L 21.355469 145.125 L 25.292969 136.65625 L 25.460938 132.527344 L 23.1875 128.902344 L 22.746094 126.207031 Z M 22.929688 126.066406 "/>
</svg>
