<?xml version="1.0" encoding="UTF-8"?>
<svg xmlns="http://www.w3.org/2000/svg" xmlns:xlink="http://www.w3.org/1999/xlink" width="288" height="288" viewBox="0 0 288 288">
<rect x="-28.8" y="-28.8" width="345.6" height="345.6" fill="rgb(100%, 100%, 100%)" fill-opacity="1"/>
<rect x="-28.8" y="-28.8" width="345.6" height="345.6" fill="rgb(100%, 100%, 100%)" fill-opacity="1"/>
<path fill="none" stroke-width="0.75" stroke-linecap="round" stroke-linejoin="round" stroke="rgb(100%, 100%, 100%)" stroke-opacity="1" stroke-miterlimit="10" d="M 0 288 L 288 288 L 288 0 L 0 0 Z M 0 288 "/>
<path fill="none" stroke-width="1.5" stroke-linecap="round" stroke-linejoin="round" stroke="rgb(0%, 0%, 0%)" stroke-opacity="1" stroke-miterlimit="10" d="M 12.042969 171.859375 L 12.199219 170.371094 L 10.722656 168.125 L 10.667969 168.035156 L 13.367188 165.273438 L 14.96875 163.292969 L 17.199219 161.820312 L 19.835938 161.691406 L 19.90625 161.6875 L 20.054688 161.738281 L 23.683594 162.972656 L 26.890625 164.703125 L 29.199219 165.265625 L 32.425781 166.441406 L 34.394531 167.632812 L 35.546875 168.328125 L 37.15625 168.296875 L 37.417969 168.292969 L 37.714844 168.285156 L 38.949219 167.027344 L 39.722656 164.902344 L 37.886719 161.996094 L 36.210938 159.066406 L 37.292969 157.058594 L 38.058594 154.71875 L 38.3125 154.890625 L 39.433594 155.898438 L 41.824219 156.074219 L 45.5 155.519531 L 47.65625 154.945312 L 48.464844 155.351562 L 51.828125 154.953125 L 54.808594 153.710938 L 55.542969 152.761719 L 58.550781 152.097656 L 62.617188 150.5625 L 68.203125 149.375 L 86.53125 148.113281 L 87.242188 147.15625 L 86.96875 144.972656 L 87.453125 144.648438 L 89.765625 145.195312 L 93.472656 145.703125 L 96.308594 146.476562 L 98.152344 147.488281 L 99.859375 147.53125 L 102.503906 146.820312 L 106.085938 146.363281 L 109.429688 147.414062 L 110.398438 148.550781 L 109.808594 149.132812 L 109.875 150.054688 L 110.914062 150.828125 L 113.632812 152.085938 L 117.117188 153.167969 L 118.925781 153.082031 L 119.597656 152.03125 L 120.238281 149.53125 L 120.480469 146.863281 L 119.679688 145.335938 L 117.800781 144.960938 L 115.554688 144.839844 L 114.363281 144.523438 L 114.78125 143.6875 L 116.574219 141.519531 L 116.546875 138.621094 L 112.496094 135.335938 L 110.992188 133.976562 L 111.0625 133.722656 L 114.597656 133.882812 L 113.980469 131.207031 L 114.113281 128.335938 L 115.433594 128.117188 L 116.0625 128.011719 L 117.1875 126.753906 L 121.574219 125.246094 L 122.855469 124.960938 L 123.617188 125.875 L 126.441406 129.007812 L 130.765625 129.539062 L 133.207031 131.117188 L 134.613281 130.265625 L 135.449219 129.757812 L 136.398438 129.292969 L 137.542969 128.730469 L 138.21875 125.363281 L 138.578125 122.546875 L 138.625 122.199219 L 140.777344 120.105469 L 141.699219 118.34375 L 142.542969 118.546875 L 144.246094 118.957031 L 146.882812 117.832031 L 148.339844 115.898438 L 148.730469 114.671875 L 149.066406 114.453125 L 149.59375 113.277344 L 149.574219 112.597656 L 150.625 111.519531 L 154.101562 110.796875 L 154.785156 109.757812 L 157.015625 110.84375 L 159.375 113.9375 L 164.878906 114.761719 L 171.824219 114.84375 L 174.308594 113.464844 L 176.558594 113.144531 L 179.109375 113.5625 L 184.480469 114.050781 L 185.078125 111.546875 L 188.179688 108.953125 L 189.585938 108.039062 L 193.519531 108.128906 L 194.488281 106.195312 L 195.460938 100.851562 L 196.292969 100.261719 L 199.160156 100.375 L 202.011719 101.347656 L 202.871094 102.136719 L 204.351562 102.074219 L 206.425781 101.535156 L 208.703125 101.1875 L 212.296875 101.757812 L 219.980469 104.1875 L 223.941406 105.074219 L 226.453125 104.90625 L 228.804688 104.9375 L 237.875 108.699219 L 244.210938 109.226562 L 249.996094 109.242188 L 251.855469 108.105469 L 254.320312 107.144531 L 256.886719 107.277344 L 259.132812 107.769531 L 263.5 109.40625 L 265.523438 109.824219 L 265.871094 109.859375 L 266.699219 110.4375 L 267.667969 112.6875 L 267.578125 114.351562 L 267.5 115.816406 L 268.519531 117.003906 L 268.132812 119.746094 L 268.019531 120.074219 L 267.464844 121.6875 L 266.398438 124.390625 L 269.398438 127.324219 L 272.699219 130.851562 L 272.132812 132.421875 L 271.816406 133.304688 L 274.507812 135.132812 L 275.300781 136.335938 L 276.414062 138.03125 L 277.101562 138.703125 L 276.292969 139.238281 L 275.90625 140.492188 L 276.523438 141.628906 L 276.511719 143.058594 L 277.332031 145.023438 L 273.691406 145.453125 L 269.363281 145.386719 L 267.8125 145.5 L 266.363281 146.039062 L 264.863281 145.769531 L 260.949219 143.921875 L 258.738281 143.519531 L 257.175781 143.632812 L 256.007812 144.433594 L 253.996094 145.460938 L 252.105469 146.183594 L 252.53125 146.820312 L 260.648438 148.484375 L 262.085938 151.042969 L 260.523438 153.132812 L 259.996094 154.15625 L 258.09375 154.964844 L 255.761719 155.671875 L 252.949219 155.847656 L 252.617188 156.980469 L 253.722656 160.308594 L 252.828125 161.027344 L 251.933594 162.066406 L 252.773438 164.808594 L 254.511719 165.003906 L 254.898438 165.632812 L 254.589844 166.742188 L 254.285156 167.929688 L 253.667969 169.183594 L 253.363281 169.738281 L 252.210938 170.089844 L 248.609375 169.902344 L 245.511719 170.976562 L 239.277344 174.839844 L 237.09375 175.5 L 234.734375 177.046875 L 234.875 180.453125 L 234.554688 180.761719 L 233.980469 181.460938 L 226.527344 180.257812 L 226.265625 180.277344 L 221.277344 180.71875 L 217.863281 182.28125 L 213.71875 183.175781 L 205.03125 182.699219 L 196.574219 183.304688 L 194.570312 183.761719 L 192.375 184.023438 L 190.316406 184.933594 L 189.140625 186.21875 L 187.179688 187.738281 L 182.261719 187.613281 L 181.992188 187.609375 L 175.792969 187.222656 L 174.585938 187.140625 L 169.84375 186.8125 L 162.800781 186.65625 L 162.242188 186.644531 L 162.039062 186.65625 L 156.542969 186.996094 L 154.511719 187.125 L 144.992188 186.898438 L 144.386719 186.882812 L 137.519531 185.824219 L 132.109375 185.742188 L 124.960938 185.214844 L 110.765625 183.308594 L 106.628906 182.539062 L 102.675781 182.300781 L 98.007812 181.644531 L 94.453125 180.566406 L 92.175781 178.527344 L 89.75 175.816406 L 85.296875 172.28125 L 84.386719 170.523438 L 85.746094 168.980469 L 87.140625 167.820312 L 86.980469 167.320312 L 85.898438 167.066406 L 78.082031 168.570312 L 70.503906 170.476562 L 67.523438 170.527344 L 64.632812 170.101562 L 60.804688 170.074219 L 57.117188 170.582031 L 49.738281 170.84375 L 45.417969 172.25 L 42.664062 174.988281 L 41.164062 177.203125 L 39.917969 177.914062 L 37.34375 178.183594 L 33.496094 177.976562 L 30.792969 177.332031 L 28.035156 175.441406 L 23.757812 175.183594 L 19.832031 175.132812 L 18.792969 174.78125 L 18.863281 173.554688 L 17.3125 171.246094 L 14.75 170.523438 L 12.355469 172.09375 Z M 12.042969 171.859375 "/>
</svg>
