<?xml version="1.0" encoding="UTF-8"?>
<svg xmlns="http://www.w3.org/2000/svg" xmlns:xlink="http://www.w3.org/1999/xlink" width="288" height="288" viewBox="0 0 288 288">
<rect x="-28.8" y="-28.8" width="345.6" height="345.6" fill="rgb(100%, 100%, 100%)" fill-opacity="1"/>
<rect x="-28.8" y="-28.8" width="345.6" height="345.6" fill="rgb(100%, 100%, 100%)" fill-opacity="1"/>
<path fill="none" stroke-width="0.75" stroke-linecap="round" stroke-linejoin="round" stroke="rgb(100%, 100%, 100%)" stroke-opacity="1" stroke-miterlimit="10" d="M 0 288 L 288 288 L 288 0 L 0 0 Z M 0 288 "/>
<path fill="none" stroke-width="1.5" stroke-linecap="round" stroke-linejoin="round" stroke="rgb(0%, 0%, 0%)" stroke-opacity="1" stroke-miterlimit="10" d="M 162.660156 236.292969 L 164.421875 239.886719 L 161.726562 242.90625 L 157.902344 240.839844 L 159.296875 237.554688 Z M 162.660156 236.292969 "/>
<path fill="none" stroke-width="1.5" stroke-linecap="round" stroke-linejoin="round" stroke="rgb(0%, 0%, 0%)" stroke-opacity="1" stroke-miterlimit="10" d="M 28.140625 150.179688 L 28.851562 147.796875 L 29.140625 146.828125 L 30.589844 145.25 L 30.101562 143.996094 L 30.429688 143.296875 L 33.082031 137.679688 L 34.210938 137.792969 L 35.960938 139.644531 L 39.507812 139.960938 L 42.46875 140.648438 L 42.410156 137.828125 L 39.71875 136.257812 L 36.40625 132.5625 L 38.8125 129.148438 L 41.449219 126.976562 L 45.429688 124.914062 L 48.058594 122.546875 L 48.058594 122.542969 L 55.292969 120.246094 L 59.617188 118.289062 L 57.421875 115.035156 L 58.726562 113.617188 L 62.296875 111.371094 L 66.167969 111.367188 L 79.839844 111.351562 L 97.199219 111.339844 L 116.074219 111.316406 L 128.453125 111.304688 L 133.5625 111.171875 L 132.695312 103.386719 L 133.359375 94.792969 L 135.625 86.988281 L 135.625 83.546875 L 131.929688 79.339844 L 124.777344 76.886719 L 120.796875 73.167969 L 120.777344 68.453125 L 119.03125 62.753906 L 115.566406 56.070312 L 108.371094 49.230469 L 100.761719 44.363281 L 115.425781 31.15625 L 124.113281 23.429688 L 139.085938 10.667969 L 143.449219 11.042969 L 146.71875 11.980469 L 151.425781 12.820312 L 150.429688 15.546875 L 151.363281 23.734375 L 156.402344 25.734375 L 160.871094 27.847656 L 167.527344 25.53125 L 176.242188 23.886719 L 181.097656 23.46875 L 182.199219 21.472656 L 187.75 20.554688 L 190.984375 21.207031 L 196.75 20.824219 L 196.160156 18.683594 L 197.710938 16.917969 L 203.984375 17.035156 L 208.453125 17.898438 L 211.921875 19.480469 L 216.742188 22.078125 L 219.390625 23.609375 L 218.652344 47.335938 L 217.886719 71.746094 L 216.851562 105.082031 L 216.175781 126.664062 L 216.496094 127.164062 L 224.640625 126.121094 L 236.691406 127.0625 L 239.632812 126.996094 L 243.324219 128.875 L 246.171875 129.441406 L 252.296875 134.308594 L 258.601562 137.539062 L 261.523438 141.28125 L 259.246094 145.96875 L 257.902344 148.027344 L 259.730469 149.757812 L 264.027344 155.332031 L 267.488281 157.160156 L 270.335938 155.808594 L 272.1875 152.964844 L 273.421875 153.304688 L 264.273438 162.625 L 253.945312 173.140625 L 244.011719 182.683594 L 235.0625 191.285156 L 234.007812 192.136719 L 222.660156 198.273438 L 220.765625 201.105469 L 219.398438 207.914062 L 219.035156 208.496094 L 215.320312 206.308594 L 213.824219 204.828125 L 209.484375 205.691406 L 210.546875 208.644531 L 209.296875 210.058594 L 206.730469 212.644531 L 210.5 215.316406 L 201.472656 214.734375 L 200.90625 217.1875 L 199.796875 223.03125 L 192.457031 222.46875 L 188.054688 223.542969 L 186.113281 224.1875 L 182.511719 225.378906 L 180.261719 229.398438 L 177.53125 229.808594 L 176.6875 225.066406 L 169.15625 226.285156 L 162.703125 228.398438 L 160.589844 225.003906 L 158.527344 221.542969 L 161.71875 219.640625 L 158.550781 216.8125 L 157.394531 215.785156 L 152.667969 215.019531 L 151.363281 214.808594 L 150.382812 218.859375 L 148.941406 221.566406 L 151.933594 224.894531 L 149.457031 227.457031 L 151.109375 229.644531 L 148.847656 231.78125 L 145.125 231.621094 L 142.160156 231.566406 L 139.566406 235.199219 L 137.527344 235.367188 L 134.992188 237.9375 L 132.183594 239.4375 L 129.894531 235.4375 L 128.125 233.742188 L 127.25 232.90625 L 125.285156 235.089844 L 124.191406 235.976562 L 119.734375 240.683594 L 116.367188 240.445312 L 114.597656 241.625 L 109.660156 242.90625 L 106.585938 243.414062 L 105.136719 243.652344 L 102.609375 246.839844 L 98.96875 247.875 L 97.1875 249.636719 L 95.710938 249.40625 L 95.226562 245.847656 L 93.503906 245.347656 L 91.578125 244.789062 L 86.925781 246.804688 L 85.726562 249.039062 L 81.527344 248.84375 L 80.941406 248.816406 L 79.773438 250.703125 L 79.253906 251.542969 L 74.324219 251.355469 L 72.789062 253.296875 L 70.988281 256.511719 L 71.734375 259.085938 L 69.046875 260.269531 L 63.882812 261.085938 L 62.679688 261.03125 L 61.144531 260.957031 L 59.476562 263.738281 L 63.460938 265.617188 L 59.589844 268.625 L 58.640625 270.097656 L 57.378906 272.050781 L 53.988281 273.425781 L 53.335938 273.378906 L 50.457031 273.175781 L 49.332031 273.84375 L 47.988281 274.640625 L 46.304688 277.332031 L 39.867188 272.082031 L 18.890625 251.585938 L 18.75 249.65625 L 18.386719 243.617188 L 18.203125 240.582031 L 17.425781 223.988281 L 16.921875 213.171875 L 16.816406 211.507812 L 16.683594 207.769531 L 17.660156 204.417969 L 20.765625 202.25 L 22.402344 198.109375 L 15.28125 186.632812 L 15.011719 182.203125 L 14.578125 177.109375 L 14.726562 176.59375 L 21.902344 161.375 L 27.222656 150.097656 Z M 28.140625 150.179688 "/>
</svg>
