<?xml version="1.0" encoding="UTF-8"?>
<svg xmlns="http://www.w3.org/2000/svg" xmlns:xlink="http://www.w3.org/1999/xlink" width="288" height="288" viewBox="0 0 288 288">
<rect x="-28.8" y="-28.8" width="345.6" height="345.6" fill="rgb(100%, 100%, 100%)" fill-opacity="1"/>
<rect x="-28.8" y="-28.8" width="345.6" height="345.6" fill="rgb(100%, 100%, 100%)" fill-opacity="1"/>
<path fill="none" stroke-width="0.75" stroke-linecap="round" stroke-linejoin="round" stroke="rgb(100%, 100%, 100%)" stroke-opacity="1" stroke-miterlimit="10" d="M 0 288 L 288 288 L 288 0 L 0 0 Z M 0 288 "/>
<path fill="none" stroke-width="1.5" stroke-linecap="round" stroke-linejoin="round" stroke="rgb(0%, 0%, 0%)" stroke-opacity="1" stroke-miterlimit="10" d="M 110.476562 37.820312 L 109.328125 36.605469 L 114.191406 37.484375 Z M 110.476562 37.820312 "/>
<path fill="none" stroke-width="1.5" stroke-linecap="round" stroke-linejoin="round" stroke="rgb(0%, 0%, 0%)" stroke-opacity="1" stroke-miterlimit="10" d="M 46.503906 47.921875 L 49.929688 47.925781 L 58.863281 45.84375 L 62.507812 44.78125 L 65.742188 44.78125 L 70.824219 43.277344 L 73.433594 42.882812 L 75.789062 41.542969 L 78.761719 41.074219 L 81.070312 39.679688 L 83.324219 40.707031 L 85.222656 39.53125 L 87.429688 39.089844 L 88.636719 38.601562 L 91.480469 38.570312 L 95.738281 38.890625 L 99.449219 38.574219 L 103.660156 37.554688 L 104.9375 38.402344 L 102.191406 41.714844 L 99.011719 44.398438 L 98 45.597656 L 99.441406 47.484375 L 96.242188 49.410156 L 95.351562 51.335938 L 94.171875 52.496094 L 95.726562 52.730469 L 97.105469 52.9375 L 100.652344 51.390625 L 102.40625 50.976562 L 104.425781 49.976562 L 105.347656 47.828125 L 109.136719 50.023438 L 114.136719 52.851562 L 115.007812 52.789062 L 117.191406 52.628906 L 120.6875 53.949219 L 121.683594 53.730469 L 123.265625 55.253906 L 126.097656 54.332031 L 128.460938 55.945312 L 132.085938 56.832031 L 134.984375 60.5625 L 136.917969 64.496094 L 146.710938 66.234375 L 161.59375 68.878906 L 189.578125 73.847656 L 194.71875 75.828125 L 197.710938 76.984375 L 203.894531 79.371094 L 207.578125 79.101562 L 210.480469 79.710938 L 210.691406 79.753906 L 211.785156 80.902344 L 214.074219 80.839844 L 215.054688 79.679688 L 218.496094 79.410156 L 224.472656 81.355469 L 225.992188 80.789062 L 229.609375 82.320312 L 232.84375 82.148438 L 236.339844 82.898438 L 239.472656 84.050781 L 239.546875 84.078125 L 241.667969 86.289062 L 238.539062 88.847656 L 240.050781 89.933594 L 242.535156 90.59375 L 242.96875 90.707031 L 245.664062 90.097656 L 247.144531 91.589844 L 251.605469 92.023438 L 253.996094 93.550781 L 255.429688 94.464844 L 256.660156 95.875 L 254.425781 96.863281 L 256.832031 98.957031 L 256.339844 100.59375 L 255.472656 102.992188 L 255.394531 105.453125 L 253.261719 106.835938 L 252.78125 109.277344 L 252.4375 111.195312 L 255.664062 111.167969 L 258.199219 111.101562 L 260.460938 109.722656 L 262.988281 110.445312 L 262.472656 112.953125 L 260.21875 116.363281 L 258.667969 118.675781 L 261.058594 120.910156 L 263.457031 123.03125 L 266.425781 123.566406 L 264.609375 125.976562 L 264.375 129.265625 L 260.988281 129.394531 L 257.601562 129.945312 L 255.023438 130.367188 L 253.464844 131.796875 L 253.726562 134.230469 L 252.890625 135.011719 L 250.339844 136.898438 L 248.449219 139.925781 L 246.296875 141.664062 L 245.578125 143.722656 L 245.34375 144.382812 L 245.519531 147.039062 L 243.34375 148.820312 L 245.167969 150.4375 L 248.328125 150.902344 L 250.628906 148.742188 L 252.265625 147.078125 L 256.960938 145.582031 L 257.667969 144.886719 L 258.328125 144.234375 L 258.882812 143.753906 L 259.792969 142.96875 L 259.738281 141.453125 L 263.554688 137.863281 L 266.882812 135.300781 L 269.457031 135.027344 L 270.269531 134.441406 L 273.785156 133.644531 L 274.878906 132.707031 L 276.402344 139.089844 L 277.332031 143.960938 L 276.078125 145.976562 L 273.757812 148.152344 L 271.113281 154.253906 L 268.828125 160.734375 L 268.722656 161.035156 L 269.929688 164.03125 L 270.664062 166.429688 L 269 168.925781 L 265.878906 170.292969 L 263.101562 172.730469 L 262.726562 173.675781 L 261.078125 174.234375 L 258.355469 176.015625 L 252.8125 182.710938 L 246.671875 189.226562 L 238.171875 190.890625 L 234.871094 195.726562 L 231.332031 196.398438 L 224.609375 196.640625 L 220.21875 197.773438 L 220.417969 200.203125 L 220.058594 211.691406 L 220.148438 214.382812 L 219.46875 215.097656 L 216.429688 215.441406 L 211.277344 213.683594 L 204.304688 210.839844 L 199.347656 210.390625 L 196.796875 215.398438 L 195.277344 217.359375 L 193.398438 217.660156 L 191.433594 218.546875 L 190.769531 220.78125 L 190.609375 223.582031 L 191.5625 228.363281 L 191.917969 235.972656 L 191.667969 241.15625 L 193.488281 244.441406 L 200.191406 251.394531 L 197.320312 251.371094 L 194.648438 251.351562 L 192.074219 251.332031 L 175.546875 251.140625 L 173.722656 251.121094 L 169.023438 251.066406 L 151.398438 250.894531 L 146.847656 250.851562 L 131.660156 250.753906 L 121.261719 250.78125 L 120.71875 250.785156 L 110.183594 250.714844 L 108.652344 247.300781 L 107.210938 244.800781 L 105.019531 243.84375 L 99.449219 242.878906 L 97.175781 242.402344 L 94.890625 241.925781 L 91.019531 240.140625 L 88.28125 237.34375 L 86.84375 232.902344 L 84.839844 230.9375 L 83.941406 227.347656 L 83.757812 226.765625 L 82.960938 224.214844 L 82.949219 222.144531 L 82.929688 219.441406 L 85.035156 217.46875 L 87.425781 215.109375 L 88.9375 213.519531 L 86.414062 210.558594 L 83.976562 209.511719 L 81.289062 207.585938 L 81.695312 206.132812 L 81.117188 205.320312 L 80.011719 203.761719 L 80.757812 201.3125 L 79.984375 198.136719 L 78.957031 196.386719 L 77.914062 193.117188 L 78.746094 190.210938 L 79.414062 187.878906 L 77.179688 184.242188 L 77.007812 183.964844 L 73.605469 180.796875 L 70.222656 177.507812 L 69.351562 176.664062 L 63.277344 175.554688 L 62.558594 175.421875 L 58.742188 173.601562 L 55.09375 170.433594 L 50.070312 168.703125 L 48.164062 167.089844 L 46.210938 165.4375 L 45.007812 161.195312 L 42.582031 159.050781 L 36.390625 156.980469 L 35.03125 156.527344 L 28.820312 154.996094 L 28.160156 154.566406 L 25.824219 153.050781 L 24.640625 150.496094 L 24.496094 150.433594 L 22.214844 149.480469 L 20.28125 149.511719 L 19.847656 149.460938 L 19.417969 139.578125 L 17.933594 127.253906 L 15.933594 123.101562 L 12.882812 115.519531 L 11.230469 109.238281 L 10.667969 92.652344 L 11.515625 91.316406 L 16.234375 90.835938 L 22.292969 89.644531 L 23.246094 86.96875 L 22.183594 84.757812 L 26.058594 81.007812 L 31.609375 72.789062 L 35.902344 64.203125 L 38.996094 58.789062 L 40.84375 53.414062 L 45.246094 48.039062 Z M 46.503906 47.921875 "/>
</svg>
