<?xml version="1.0" encoding="UTF-8"?>
<svg xmlns="http://www.w3.org/2000/svg" xmlns:xlink="http://www.w3.org/1999/xlink" width="288" height="288" viewBox="0 0 288 288">
<rect x="-28.8" y="-28.8" width="345.6" height="345.6" fill="rgb(100%, 100%, 100%)" fill-opacity="1"/>
<rect x="-28.8" y="-28.8" width="345.6" height="345.6" fill="rgb(100%, 100%, 100%)" fill-opacity="1"/>
<path fill="none" stroke-width="0.75" stroke-linecap="round" stroke-linejoin="round" stroke="rgb(100%, 100%, 100%)" stroke-opacity="1" stroke-miterlimit="10" d="M 0 288 L 288 288 L 288 0 L 0 0 Z M 0 288 "/>
<path fill="none" stroke-width="1.5" stroke-linecap="round" stroke-linejoin="round" stroke="rgb(0%, 0%, 0%)" stroke-opacity="1" stroke-miterlimit="10" d="M 55.054688 182.660156 L 55.828125 175.8125 L 56.957031 165.851562 L 57.101562 164.566406 L 57.457031 161.234375 L 59.085938 145.910156 L 59.890625 138.324219 L 61.203125 126.027344 L 61.582031 122.507812 L 62.746094 111.617188 L 63.390625 105.746094 L 64.910156 91.921875 L 65.929688 82.675781 L 66.234375 80.089844 L 66.875 74.730469 L 67.546875 73.695312 L 67.382812 70.464844 L 67.46875 69.742188 L 69.398438 66.511719 L 71.554688 65.074219 L 72.417969 63.945312 L 72.546875 62.6875 L 71.980469 61.527344 L 71.125 60.773438 L 68.875 60.511719 L 68.644531 59.824219 L 70.050781 47.90625 L 70.363281 45.238281 L 70.484375 44.570312 L 73.183594 40.351562 L 73.824219 41.65625 L 75.921875 33.980469 L 76.164062 27.738281 L 77.761719 21.582031 L 80.195312 14.285156 L 84.601562 10.667969 L 110.179688 14.347656 L 121.875 17.847656 L 136.902344 23.847656 L 139.03125 30.269531 L 139.140625 23.847656 L 138.410156 17.359375 L 142.558594 12.75 L 151.6875 11.132812 L 165.34375 13.351562 L 176.050781 10.863281 L 187.28125 10.976562 L 193.351562 11.035156 L 200.648438 12.613281 L 200.925781 14.449219 L 201.554688 17.972656 L 202.640625 24.082031 L 204.011719 31.082031 L 204.390625 33.03125 L 205.09375 36.625 L 205.632812 39.371094 L 207.019531 46.648438 L 207.628906 49.847656 L 209.335938 58.828125 L 209.765625 61.300781 L 210.890625 67.820312 L 211.511719 71.308594 L 212.445312 76.578125 L 212.679688 79.765625 L 211.335938 82.714844 L 211.015625 87.945312 L 211.449219 93.777344 L 213.015625 97.613281 L 213.734375 104.902344 L 212.539062 111.460938 L 212.996094 115.273438 L 214.246094 121.324219 L 215.25 127.765625 L 215.140625 130.371094 L 216.625 132.484375 L 217.996094 134.550781 L 217.558594 140.304688 L 222.394531 150.554688 L 225.339844 155.015625 L 229.640625 159.371094 L 231.203125 163.621094 L 232.945312 167.3125 L 231.253906 168.257812 L 228.15625 171.074219 L 228.75 173.851562 L 228.53125 175.285156 L 227.910156 179.304688 L 227.695312 180.707031 L 225.351562 184.9375 L 223.941406 188.03125 L 224.582031 191.410156 L 224.773438 192.402344 L 225.101562 194.136719 L 224.765625 196.296875 L 226.246094 198.152344 L 225.820312 198.945312 L 225.054688 201.664062 L 226.699219 211.355469 L 225.816406 219.316406 L 225.441406 223.136719 L 222.332031 230.117188 L 219.648438 236.269531 L 214.21875 236.304688 L 206.351562 236.398438 L 205.859375 236.402344 L 201.722656 236.453125 L 193.082031 236.550781 L 185.773438 236.65625 L 178.597656 236.640625 L 170.867188 236.621094 L 161.847656 236.601562 L 160.644531 236.597656 L 151.769531 236.558594 L 145.4375 236.5 L 140.488281 236.453125 L 138.140625 236.433594 L 133.273438 236.414062 L 121.351562 236.335938 L 121.300781 236.335938 L 113.761719 236.371094 L 107.996094 236.390625 L 103.234375 236.421875 L 99.210938 236.429688 L 99.203125 236.429688 L 99.554688 239.082031 L 97.375 244.03125 L 102.082031 249.722656 L 103.027344 251.410156 L 107.15625 254.054688 L 109.292969 256.109375 L 109.242188 259.167969 L 107.707031 262.308594 L 107.035156 264.789062 L 108.558594 267.703125 L 111 268.902344 L 107.691406 270.84375 L 106.648438 274.277344 L 103.882812 277.332031 L 101.996094 276.910156 L 98.078125 275.539062 L 95.195312 270.277344 L 92.21875 262.78125 L 91.164062 259.394531 L 88.835938 256.121094 L 86.546875 251.46875 L 85.851562 247.34375 L 84.121094 243.5625 L 83.214844 242.292969 L 81.878906 237.140625 L 81.601562 235.230469 L 80.941406 234.988281 L 80 233.339844 L 78.152344 227.832031 L 77.734375 226.460938 L 76.921875 225.972656 L 74.765625 222.105469 L 73.050781 220.761719 L 72.417969 218.78125 L 72.566406 213.382812 L 71.648438 210.722656 L 71.367188 205.660156 L 71.3125 203.628906 L 70.429688 201.390625 L 68.960938 199.914062 L 68.707031 196.257812 L 68.351562 187.226562 L 67.65625 185.652344 L 61.464844 185.765625 L 60.839844 186.648438 L 58.167969 187.183594 L 55.167969 187.28125 L 55.054688 187.226562 Z M 55.054688 182.660156 "/>
</svg>
