<?xml version="1.0" encoding="UTF-8"?>
<svg xmlns="http://www.w3.org/2000/svg" xmlns:xlink="http://www.w3.org/1999/xlink" width="288" height="288" viewBox="0 0 288 288">
<rect x="-28.8" y="-28.8" width="345.6" height="345.6" fill="rgb(100%, 100%, 100%)" fill-opacity="1"/>
<rect x="-28.8" y="-28.8" width="345.6" height="345.6" fill="rgb(100%, 100%, 100%)" fill-opacity="1"/>
<path fill="none" stroke-width="0.75" stroke-linecap="round" stroke-linejoin="round" stroke="rgb(100%, 100%, 100%)" stroke-opacity="1" stroke-miterlimit="10" d="M 0 288 L 288 288 L 288 0 L 0 0 Z M 0 288 "/>
<path fill="none" stroke-width="1.5" stroke-linecap="round" stroke-linejoin="round" stroke="rgb(0%, 0%, 0%)" stroke-opacity="1" stroke-miterlimit="10" d="M 73.320312 173.738281 L 81.246094 172.359375 L 82.324219 171.753906 L 85.410156 170.019531 L 89.96875 168.691406 L 90.84375 168.433594 L 90.71875 165.546875 L 90.59375 162.746094 L 90.972656 162.320312 L 92.402344 160.703125 L 98.875 157.734375 L 98.996094 157.679688 L 106.570312 152.679688 L 108.4375 151.65625 L 112.890625 149.210938 L 120.386719 147.675781 L 124.539062 143.027344 L 130.722656 142.445312 L 135.773438 139.800781 L 135.96875 139.699219 L 133.023438 136.234375 L 131.695312 134.675781 L 124.757812 129.9375 L 121.1875 125.949219 L 116.058594 121.703125 L 113.339844 119.011719 L 111.378906 117.070312 L 108.796875 112.359375 L 102.75 111.949219 L 99.316406 110.550781 L 97.730469 106.214844 L 98.644531 103.308594 L 96.863281 95.898438 L 90.480469 92.859375 L 85.003906 93.5625 L 84.84375 90.992188 L 84.730469 89.175781 L 84.53125 85.976562 L 84.359375 77.367188 L 86.019531 72.03125 L 93.261719 69.1875 L 93.574219 69.066406 L 95.496094 62.660156 L 98.292969 58.640625 L 97.359375 57.445312 L 97.425781 57.445312 L 117.992188 55.183594 L 123.105469 55.464844 L 132.457031 51.367188 L 141.746094 44.132812 L 144.421875 36.640625 L 146.59375 19.851562 L 147.183594 10.667969 L 164.898438 18.808594 L 174.820312 23.632812 L 181.945312 27.101562 L 189.34375 30.359375 L 191.847656 31.445312 L 204.859375 37.09375 L 208.054688 40.9375 L 205.550781 49.460938 L 204.546875 51.75 L 202.652344 59.703125 L 203.691406 67.011719 L 206.109375 69.710938 L 212.625 73.242188 L 213.257812 73.40625 L 212.460938 74.984375 L 212.226562 75.453125 L 211.648438 76.605469 L 210.527344 78.832031 L 209.882812 80.113281 L 209.851562 80.175781 L 207.617188 82.394531 L 207.246094 82.761719 L 205.523438 84.46875 L 197.488281 85.082031 L 196.339844 85.167969 L 193.101562 86.65625 L 192.875 86.757812 L 192.71875 90.984375 L 191.277344 94.753906 L 187.730469 96.253906 L 186.480469 100.976562 L 186.339844 105.15625 L 190.421875 106.9375 L 192.445312 107.820312 L 197.824219 107.058594 L 203.167969 107.476562 L 209.789062 110.234375 L 212.917969 104.433594 L 215.261719 103.832031 L 217.558594 111.390625 L 218.171875 118.105469 L 217.042969 125.726562 L 214.925781 132.667969 L 211.730469 143.148438 L 211.203125 145.402344 L 208.007812 159.167969 L 206.832031 165.402344 L 202.757812 170.339844 L 200.019531 179.746094 L 197.730469 190.859375 L 194.371094 197.945312 L 185.617188 208.164062 L 184.910156 209.792969 L 183.148438 211.902344 L 183.085938 211.976562 L 181.6875 216.050781 L 174.824219 223.863281 L 169.816406 228.5 L 157.863281 233.796875 L 155.78125 235.351562 L 151.375 238.644531 L 144.1875 245.277344 L 141.464844 248.914062 L 136.765625 255.6875 L 137.691406 257.59375 L 129.703125 266.628906 L 126.511719 270.828125 L 120.316406 275.984375 L 112.742188 277.332031 L 109.050781 276.777344 L 110.355469 269.09375 L 116.019531 259.347656 L 117.964844 252.996094 L 115.855469 249.460938 L 114.761719 249.261719 L 105.683594 247.621094 L 100.152344 244.914062 L 95.515625 245.414062 L 90.488281 248.675781 L 87.203125 244.085938 L 82.179688 239.550781 L 80.636719 238.40625 L 71.082031 216.890625 L 69.828125 205.753906 L 70.375 184.234375 L 70.390625 173.902344 Z M 73.320312 173.738281 "/>
</svg>
