<?xml version="1.0" encoding="UTF-8"?>
<svg xmlns="http://www.w3.org/2000/svg" xmlns:xlink="http://www.w3.org/1999/xlink" width="288" height="288" viewBox="0 0 288 288">
<rect x="-28.8" y="-28.8" width="345.6" height="345.6" fill="rgb(100%, 100%, 100%)" fill-opacity="1"/>
<rect x="-28.8" y="-28.8" width="345.6" height="345.6" fill="rgb(100%, 100%, 100%)" fill-opacity="1"/>
<path fill="none" stroke-width="0.75" stroke-linecap="round" stroke-linejoin="round" stroke="rgb(100%, 100%, 100%)" stroke-opacity="1" stroke-miterlimit="10" d="M 0 288 L 288 288 L 288 0 L 0 0 Z M 0 288 "/>
<path fill="none" stroke-width="1.5" stroke-linecap="round" stroke-linejoin="round" stroke="rgb(0%, 0%, 0%)" stroke-opacity="1" stroke-miterlimit="10" d="M 133.9375 22.320312 L 138.445312 27.367188 L 148.652344 38.800781 L 165.78125 57.917969 L 169.601562 80.011719 L 166.035156 95.839844 L 169.183594 117.824219 L 184.75 128.828125 L 194.371094 149.824219 L 195.523438 152.339844 L 195.09375 159.847656 L 215.34375 179.886719 L 222.90625 185.6875 L 214.722656 206.859375 L 213.460938 241.125 L 211.210938 253.378906 L 165.636719 273.984375 L 84.457031 277.332031 L 83.714844 267.792969 L 83.324219 262.527344 L 81.703125 240.757812 L 81.699219 240.746094 L 77.332031 184.085938 L 76.863281 178.023438 L 84 105.394531 L 80.195312 81.859375 L 74.417969 68.890625 L 68.019531 63.828125 L 67.964844 63.125 L 66.835938 48.636719 L 65.09375 26.199219 L 83.972656 23.011719 L 110.621094 11.191406 L 122.789062 10.667969 Z M 133.9375 22.320312 "/>
</svg>
