<?xml version="1.0" encoding="UTF-8"?>
<svg xmlns="http://www.w3.org/2000/svg" xmlns:xlink="http://www.w3.org/1999/xlink" width="288" height="288" viewBox="0 0 288 288">
<defs>
<clipPath id="clip-0">
<path clip-rule="nonzero" d="M 59.039062 59.039062 L 257.757812 59.039062 L 257.757812 214.558594 L 59.039062 214.558594 Z M 59.039062 59.039062 "/>
</clipPath>
</defs>
<rect x="-28.8" y="-28.8" width="345.6" height="345.6" fill="rgb(100%, 100%, 100%)" fill-opacity="1"/>
<g clip-path="url(#clip-0)">
<path fill-rule="nonzero" fill="rgb(100%, 100%, 100%)" fill-opacity="1" stroke-width="0.75" stroke-linecap="round" stroke-linejoin="round" stroke="rgb(100%, 100%, 100%)" stroke-opacity="1" stroke-miterlimit="10" d="M 59.039062 214.558594 L 257.757812 214.558594 L 257.757812 59.039062 L 59.039062 59.039062 Z M 59.039062 214.558594 "/>
</g>
<path fill="none" stroke-width="0.75" stroke-linecap="round" stroke-linejoin="round" stroke="rgb(0%, 0%, 0%)" stroke-opacity="1" stroke-miterlimit="10" d="M 102.441406 139.816406 L 103.148438 138.964844 L 104.90625 139.308594 L 105.9375 140.226562 L 106.472656 141.707031 L 107.441406 141.792969 L 108.609375 139.316406 L 108.503906 139.050781 L 108.871094 138.140625 L 108.335938 137.527344 L 109.558594 136.726562 L 109.820312 136.753906 L 112.5625 130.945312 L 114.859375 126.085938 L 121.675781 126.078125 L 122.078125 125.824219 L 124.035156 124.875 L 124.21875 123.785156 L 123.863281 123.027344 L 122.542969 123.050781 L 122.820312 122.097656 L 122.414062 121.582031 L 122.71875 120.5 L 123.835938 119.484375 L 124.578125 118.414062 L 123.15625 117.316406 L 124.136719 115.765625 L 124.769531 114.796875 L 125.515625 114.40625 L 125.46875 113.601562 L 126.746094 112.847656 L 127.933594 112.253906 L 128.992188 111.585938 L 129.730469 111.109375 L 130.582031 107.445312 L 131.300781 104.359375 L 136.25 99.816406 L 137.285156 98.882812 L 135.945312 98.023438 L 132.175781 94.21875 L 129.0625 89.445312 L 126.425781 86.375 L 124.398438 85.09375 L 123.921875 84.410156 L 129.855469 84.472656 L 135.46875 84.53125 L 135.507812 77.703125 L 135.539062 71.640625 L 135.574219 64.800781 L 145.75 64.808594 L 157.902344 64.824219 L 170.507812 64.835938 L 180.410156 64.847656 L 186.234375 64.855469 L 185.96875 73.335938 L 185.660156 83.171875 L 185.433594 90.414062 L 185.433594 90.457031 L 186.707031 91.191406 L 187.976562 91.738281 L 189.726562 93.679688 L 192.480469 95.011719 L 192.480469 101.839844 L 192.519531 106.726562 L 192.695312 114.925781 L 192.738281 121.085938 L 192.753906 123.65625 L 193.570312 124.175781 L 192.097656 125.421875 L 193.195312 126.4375 L 192.097656 127.679688 L 192.699219 128.976562 L 192.117188 130.324219 L 192.105469 130.351562 L 194.679688 130.3125 L 195.652344 131.5625 L 196.859375 131.808594 L 199.546875 132.480469 L 201.75 132.242188 L 202.628906 133.082031 L 202.800781 134.894531 L 201.15625 135.015625 L 200.949219 136.1875 L 201.34375 136.695312 L 201.703125 136.882812 L 203.566406 133.863281 L 202.585938 132.050781 L 201.851562 131.121094 L 201.964844 130.3125 L 212.097656 138.121094 L 210.902344 139.328125 L 208.324219 142.113281 L 207.359375 143.09375 L 208.71875 143.46875 L 209.902344 143.691406 L 211.257812 145.007812 L 211.855469 146.140625 L 212.097656 147.160156 L 213.445312 149.5 L 214.828125 150.457031 L 214.566406 151.875 L 215.761719 152.703125 L 213.648438 153.992188 L 212.335938 154.679688 L 211.136719 155.621094 L 209.664062 156.773438 L 207.878906 157.429688 L 206.238281 158.425781 L 204.164062 157.757812 L 203.3125 158.335938 L 201.941406 158.394531 L 200.742188 159.558594 L 199.925781 160.773438 L 200.425781 161.640625 L 198.304688 162.898438 L 196.777344 161.375 L 196.269531 160.355469 L 194.785156 160.980469 L 192.375 161.171875 L 191.144531 161.964844 L 190.671875 163.15625 L 189.4375 163.824219 L 188.414062 163.371094 L 188.210938 163.480469 L 187.238281 164.007812 L 186.265625 163.925781 L 185.433594 165.257812 L 184.996094 167.429688 L 184.546875 168.65625 L 185.382812 171.398438 L 186.214844 175.636719 L 185.949219 177.847656 L 182.761719 180.578125 L 181.300781 183.039062 L 180.660156 184.625 L 180.085938 184.214844 L 179.101562 184.089844 L 176.828125 184.707031 L 175.726562 184.84375 L 174.808594 185.546875 L 174.71875 187.078125 L 175.324219 189.558594 L 175.542969 190.835938 L 174.902344 191.425781 L 172.105469 192.917969 L 171 194.390625 L 169.9375 196.679688 L 168.710938 197.636719 L 167.429688 197.457031 L 166.519531 197.796875 L 164.582031 199.511719 L 161.65625 202.832031 L 160.089844 205.300781 L 160.058594 207.144531 L 160.351562 208.800781 L 149.710938 202.945312 L 146.167969 201.945312 L 131.226562 202.066406 L 124.816406 199.769531 L 117.511719 195.328125 L 115.183594 193.433594 L 115 193.730469 L 115.226562 194.859375 L 115.257812 195.023438 L 114.695312 196.59375 L 113.964844 197.371094 L 112.761719 198.941406 L 111.710938 199.386719 L 110.253906 198.84375 L 108.503906 197.675781 L 108.265625 197.519531 L 108.359375 196.160156 L 108.359375 196.15625 L 108.679688 195.148438 L 107.03125 193.726562 L 105.609375 192.261719 L 103.9375 190.882812 L 104.378906 189.460938 L 104.589844 188.261719 L 104.753906 187.304688 L 104.503906 186.492188 L 104.257812 185.6875 L 104.171875 184.511719 L 104.058594 182.984375 L 101.039062 180.03125 L 101.761719 179.125 L 102.371094 177.027344 L 103.125 174.863281 L 102.664062 172.371094 L 102.390625 170.347656 L 103.242188 167.40625 L 103.21875 166.71875 L 103.214844 166.703125 L 103.1875 166.257812 L 103.125 165.226562 L 102.960938 162.605469 L 102.863281 161.03125 L 102.59375 156.621094 L 101.894531 155.492188 L 101.894531 154.171875 L 102.308594 152.757812 L 101.898438 147.933594 L 101.175781 139.984375 Z M 102.441406 139.816406 "/>
</svg>
