<?xml version="1.0" encoding="UTF-8"?>
<svg xmlns="http://www.w3.org/2000/svg" xmlns:xlink="http://www.w3.org/1999/xlink" width="288" height="288" viewBox="0 0 288 288">
<rect x="-28.8" y="-28.8" width="345.6" height="345.6" fill="rgb(100%, 100%, 100%)" fill-opacity="1"/>
<rect x="-28.8" y="-28.8" width="345.6" height="345.6" fill="rgb(100%, 100%, 100%)" fill-opacity="1"/>
<path fill="none" stroke-width="0.75" stroke-linecap="round" stroke-linejoin="round" stroke="rgb(100%, 100%, 100%)" stroke-opacity="1" stroke-miterlimit="10" d="M 0 288 L 288 288 L 288 0 L 0 0 Z M 0 288 "/>
<path fill="none" stroke-width="1.5" stroke-linecap="round" stroke-linejoin="round" stroke="rgb(0%, 0%, 0%)" stroke-opacity="1" stroke-miterlimit="10" d="M 127.300781 77.140625 L 129.148438 78.371094 L 128.882812 80.546875 L 126.597656 81.175781 L 125.683594 78.382812 Z M 127.300781 77.140625 "/>
<path fill="none" stroke-width="1.5" stroke-linecap="round" stroke-linejoin="round" stroke="rgb(0%, 0%, 0%)" stroke-opacity="1" stroke-miterlimit="10" d="M 41.613281 184.125 L 40.621094 183.886719 L 38.816406 182.976562 L 37.105469 180.757812 L 32.871094 177.863281 L 31.910156 175.71875 L 26.242188 170.808594 L 25.09375 168.367188 L 23.792969 166.597656 L 21.070312 164.332031 L 18.9375 164.878906 L 11.753906 162.066406 L 10.667969 161.808594 L 11.664062 159.347656 L 13.925781 155.535156 L 18.867188 151.300781 L 19.277344 147.871094 L 17.988281 141.300781 L 16.691406 137.046875 L 17.390625 135.148438 L 18.929688 127.496094 L 20.121094 125.714844 L 27.261719 121.851562 L 27.925781 121.316406 L 33.558594 115.90625 L 39.808594 109.898438 L 42.328125 107.332031 L 42.316406 102.917969 L 42.296875 97.277344 L 42.296875 96.472656 L 42.277344 90.59375 L 42.273438 89.832031 L 42.242188 85.375 L 42.195312 78.28125 L 58.007812 77.90625 L 59.664062 77.863281 L 61.347656 77.816406 L 71.058594 77.5625 L 81.976562 77.253906 L 87.015625 77.109375 L 87.019531 77.109375 L 94.648438 76.886719 L 100.308594 76.722656 L 102.210938 78.488281 L 105.765625 78.046875 L 109.855469 80.496094 L 112.769531 81.355469 L 116.949219 82.585938 L 118.605469 84.28125 L 122.632812 86.050781 L 125.847656 83.394531 L 126.941406 82.917969 L 131.933594 84.867188 L 132.515625 85.824219 L 134.511719 85.761719 L 139.847656 86.738281 L 147.390625 81.160156 L 152.230469 80.039062 L 157.914062 77.425781 L 157.15625 74.757812 L 155.792969 73.558594 L 164.460938 74.726562 L 177.363281 80.375 L 186.527344 79.695312 L 189.058594 77.808594 L 193.429688 75.542969 L 197.839844 74.417969 L 203.53125 72.164062 L 205.664062 71.753906 L 210.042969 70.914062 L 214.324219 69.183594 L 223.730469 67.140625 L 226.414062 66.296875 L 226.417969 71.738281 L 226.417969 79.40625 L 226.421875 83.726562 L 229.890625 84.582031 L 250.777344 105.710938 L 251.214844 107.433594 L 242.296875 101.175781 L 237.570312 101.65625 L 236.34375 102.667969 L 236.605469 106.082031 L 237.042969 107.683594 L 239.066406 107.863281 L 240.5625 106.945312 L 244.246094 108.058594 L 246.6875 110.324219 L 249.652344 113.808594 L 251.421875 117.585938 L 253.335938 117.648438 L 255.214844 115.371094 L 258.761719 115.097656 L 261.070312 117.640625 L 262.703125 117.492188 L 260.421875 113.546875 L 255.046875 109.628906 L 256.324219 109.464844 L 268.238281 116.511719 L 271.601562 125.351562 L 274.40625 127.363281 L 277.332031 130.066406 L 266.265625 129.246094 L 261.046875 130.949219 L 258.757812 134.765625 L 256.792969 136.476562 L 255.152344 136.085938 L 251.832031 137.585938 L 246.832031 140.984375 L 242.320312 142.269531 L 238.296875 141.445312 L 237.132812 142.28125 L 236.816406 143.394531 L 236.210938 144.472656 L 234.648438 145.054688 L 232.859375 144.746094 L 230.847656 143.546875 L 229.785156 144.058594 L 229.667969 146.28125 L 228.582031 146.875 L 226.523438 145.828125 L 224.210938 146.632812 L 221.636719 149.277344 L 218.023438 149.84375 L 217.03125 149.519531 L 217.011719 150.132812 L 216.929688 152.878906 L 215.882812 153.777344 L 214.210938 155.160156 L 213.351562 158.171875 L 213.3125 158.296875 L 213.285156 160.320312 L 211.351562 161.96875 L 212.832031 163.914062 L 213.078125 164.238281 L 211.539062 166.398438 L 208.179688 168.855469 L 204.15625 171.886719 L 202.496094 173.136719 L 200.550781 175.429688 L 200.238281 175.796875 L 197.769531 176.621094 L 195.058594 178.417969 L 190.824219 180.371094 L 189.84375 180.242188 L 188.839844 180.109375 L 188.027344 178.214844 L 186.160156 177.566406 L 184.136719 179.15625 L 181.710938 181.035156 L 181.46875 183.445312 L 179.378906 183.484375 L 176.609375 183.554688 L 175.179688 185.964844 L 174.757812 186.332031 L 173.410156 187.496094 L 173.429688 187.65625 L 173.832031 190.957031 L 173.519531 191.070312 L 171.042969 191.957031 L 171.667969 193.894531 L 172.425781 196.539062 L 170.207031 198.085938 L 167.148438 198.808594 L 165.285156 195.980469 L 162.484375 194.371094 L 161 194.890625 L 158.957031 196.75 L 158.539062 197.421875 L 156.996094 199.878906 L 155.84375 203.480469 L 153.792969 204.457031 L 154.125 206.339844 L 154.8125 210.832031 L 155.257812 213.113281 L 153.375 213.863281 L 151 213.773438 L 150.660156 214.390625 L 150.183594 215.265625 L 149.710938 218.121094 L 148.863281 220.226562 L 146.378906 220.875 L 143.574219 221.222656 L 140.914062 221.777344 L 138.691406 222.238281 L 137.273438 221.453125 L 136.207031 218.980469 L 134.246094 217.613281 L 133.746094 217.265625 L 131.636719 215.382812 L 128.402344 215.132812 L 126.199219 213.296875 L 125.414062 210.003906 L 125.347656 208.210938 L 124.871094 207.175781 L 124.574219 206.53125 L 122.609375 207.011719 L 123.820312 217.492188 L 124.632812 222.683594 L 123.835938 224.289062 L 121.132812 224.542969 L 117.636719 225.277344 L 115.714844 227.65625 L 115.261719 230.101562 L 115.074219 233.527344 L 113.96875 237.0625 L 111.800781 239.601562 L 109.65625 240.507812 L 97.707031 241.1875 L 97.910156 235.34375 L 94.460938 232.976562 L 92.5 228.105469 L 90.78125 224.8125 L 91.351562 222.839844 L 91.179688 220.496094 L 86.320312 218.6875 L 81.757812 220.101562 L 79.136719 219.183594 L 77.210938 217.9375 L 80.527344 215.050781 L 80.757812 213.296875 L 79.691406 212.03125 L 78.597656 211.179688 L 78.929688 207.921875 L 79.339844 205.558594 L 77.746094 205.148438 L 74.617188 205.847656 L 74.574219 205.839844 L 71.03125 205.042969 L 67.683594 204.320312 L 67.117188 203.25 L 66.808594 202.675781 L 66.851562 201.25 L 66.859375 200.992188 L 64.453125 197.648438 L 64.058594 196.140625 L 63.03125 194.769531 L 62.800781 194.464844 L 59.605469 193.625 L 58.230469 191.957031 L 57.699219 190.605469 L 56.980469 190.28125 L 56.167969 190.503906 L 55.617188 191.136719 L 55.382812 191.152344 L 55.066406 191.167969 L 53.164062 191.277344 L 50.710938 192.433594 L 50.648438 192.410156 L 49.921875 192.96875 L 48.480469 192.789062 L 48.179688 191.492188 L 47.730469 191.324219 L 46.148438 189.800781 L 44.570312 189.148438 L 41.589844 191.003906 L 41.589844 185.613281 Z M 41.613281 184.125 "/>
<path fill="none" stroke-width="1.5" stroke-linecap="round" stroke-linejoin="round" stroke="rgb(0%, 0%, 0%)" stroke-opacity="1" stroke-miterlimit="10" d="M 130.238281 58.476562 L 128.082031 58.394531 L 131.242188 55.097656 L 136.339844 52.273438 L 140.65625 50.890625 L 144.195312 51.492188 L 137.128906 54.210938 Z M 130.238281 58.476562 "/>
<path fill="none" stroke-width="1.5" stroke-linecap="round" stroke-linejoin="round" stroke="rgb(0%, 0%, 0%)" stroke-opacity="1" stroke-miterlimit="10" d="M 157.445312 52.832031 L 156.851562 51.410156 L 158.433594 48.488281 L 160.410156 46.8125 L 162.320312 46.980469 L 161.863281 48.242188 L 160.722656 49.675781 Z M 157.445312 52.832031 "/>
</svg>
