<?xml version="1.0" encoding="UTF-8"?>
<svg xmlns="http://www.w3.org/2000/svg" xmlns:xlink="http://www.w3.org/1999/xlink" width="288" height="288" viewBox="0 0 288 288">
<rect x="-28.8" y="-28.8" width="345.6" height="345.6" fill="rgb(100%, 100%, 100%)" fill-opacity="1"/>
<rect x="-28.8" y="-28.8" width="345.6" height="345.6" fill="rgb(100%, 100%, 100%)" fill-opacity="1"/>
<path fill="none" stroke-width="0.75" stroke-linecap="round" stroke-linejoin="round" stroke="rgb(100%, 100%, 100%)" stroke-opacity="1" stroke-miterlimit="10" d="M 0 288 L 288 288 L 288 0 L 0 0 Z M 0 288 "/>
<path fill="none" stroke-width="1.5" stroke-linecap="round" stroke-linejoin="round" stroke="rgb(0%, 0%, 0%)" stroke-opacity="1" stroke-miterlimit="10" d="M 59.839844 191.859375 L 62.234375 188.105469 L 65.261719 185.320312 L 66.976562 180.421875 L 71.164062 176.945312 L 71.59375 176.679688 L 78.074219 172.695312 L 80.113281 172.578125 L 80.140625 155.429688 L 79.464844 141.441406 L 79.679688 131.230469 L 80.976562 113.484375 L 80.820312 102.882812 L 74.109375 90.652344 L 65.765625 77.644531 L 61.226562 71.269531 L 60.996094 66.128906 L 61.015625 61.382812 L 62.359375 54.453125 L 65.617188 46.730469 L 69.28125 45.878906 L 78.289062 48.945312 L 87.671875 55.511719 L 92.640625 70.261719 L 96.453125 72.390625 L 103.320312 72.367188 L 101.082031 69.507812 L 98.675781 65.851562 L 97.75 64.441406 L 103.644531 60.804688 L 105.359375 59.480469 L 108.855469 56.777344 L 111.015625 53.769531 L 111.894531 52.542969 L 112.195312 52.125 L 119.230469 47.851562 L 122.796875 41.050781 L 127.671875 34.605469 L 132.894531 30.445312 L 139.0625 28.835938 L 146.195312 32.113281 L 147.363281 13.976562 L 151.441406 13.671875 L 162.609375 22.941406 L 165.003906 23.574219 L 167.359375 23.246094 L 171.226562 18.644531 L 175.988281 14.910156 L 179.496094 15.007812 L 192.460938 10.667969 L 199.414062 18.523438 L 203.8125 20.957031 L 206.144531 21.515625 L 204.265625 24.777344 L 195.617188 48.09375 L 193.941406 51.59375 L 194.902344 53.746094 L 195.824219 54.855469 L 200.710938 56.976562 L 214.578125 62.832031 L 213.324219 67.15625 L 212.078125 70.277344 L 211.933594 70.640625 L 210.71875 73.679688 L 210.417969 74.433594 L 209.53125 76.039062 L 207.800781 79.171875 L 207.589844 79.554688 L 207.296875 79.972656 L 206.035156 81.753906 L 203.28125 85.640625 L 203.050781 86.101562 L 210.921875 88.160156 L 220.839844 93.386719 L 227.515625 94.335938 L 229.078125 98.105469 L 228.765625 104.851562 L 230.421875 110.710938 L 230.449219 121.191406 L 228.453125 130.40625 L 218.234375 134.730469 L 212.976562 139.460938 L 211.546875 141.828125 L 212.835938 144.601562 L 213.527344 148.332031 L 203.90625 157.519531 L 197.523438 165.261719 L 197.296875 166.449219 L 196.007812 177.132812 L 195.1875 180.617188 L 195.015625 181.351562 L 186.574219 193.992188 L 178.660156 203.460938 L 171.585938 219.769531 L 167.820312 231.269531 L 148.972656 258.871094 L 132.214844 272.636719 L 127.335938 277.332031 L 97.679688 276.519531 L 95.414062 257.921875 L 90.902344 232.519531 L 88.929688 228.082031 L 87.257812 226.839844 L 83.394531 226.210938 L 79.488281 222.304688 L 76.773438 220.816406 L 72.648438 217.75 L 70.96875 216.835938 L 68.585938 215.539062 L 66.433594 211.992188 L 59.71875 209.898438 L 60.503906 206.265625 L 60.542969 202.671875 L 61.953125 198.542969 L 59.007812 196.804688 L 57.550781 193.539062 Z M 59.839844 191.859375 "/>
</svg>
