<?xml version="1.0" encoding="UTF-8"?>
<svg xmlns="http://www.w3.org/2000/svg" xmlns:xlink="http://www.w3.org/1999/xlink" width="288" height="288" viewBox="0 0 288 288">
<rect x="-28.8" y="-28.8" width="345.6" height="345.6" fill="rgb(100%, 100%, 100%)" fill-opacity="1"/>
<rect x="-28.8" y="-28.8" width="345.6" height="345.6" fill="rgb(100%, 100%, 100%)" fill-opacity="1"/>
<path fill="none" stroke-width="0.75" stroke-linecap="round" stroke-linejoin="round" stroke="rgb(100%, 100%, 100%)" stroke-opacity="1" stroke-miterlimit="10" d="M 0 288 L 288 288 L 288 0 L 0 0 Z M 0 288 "/>
<path fill="none" stroke-width="1.5" stroke-linecap="round" stroke-linejoin="round" stroke="rgb(0%, 0%, 0%)" stroke-opacity="1" stroke-miterlimit="10" d="M 20.941406 177.910156 L 20.507812 175.921875 L 22.859375 174.25 L 23.832031 172.964844 L 25.753906 169.367188 L 27.0625 166.519531 L 29.003906 165.394531 L 32.289062 164.246094 L 33.992188 162.226562 L 34.953125 161.089844 L 36.222656 158.886719 L 35.234375 157.007812 L 35.914062 155.039062 L 38.078125 153.414062 L 37.941406 152.59375 L 38.769531 149.550781 L 38.605469 146.621094 L 37.460938 143.808594 L 38.324219 141.480469 L 41.191406 139.636719 L 43.335938 136.808594 L 44.753906 133 L 45.476562 130.085938 L 45.511719 128.074219 L 45.023438 127.011719 L 42.964844 126.917969 L 40.125 125.277344 L 38.070312 124.753906 L 37.601562 124.351562 L 35.175781 122.265625 L 34.089844 120.359375 L 32.921875 118.996094 L 31.855469 116.566406 L 30.28125 115.683594 L 32.144531 113.554688 L 32.605469 112.503906 L 31.042969 111.441406 L 30.984375 109.460938 L 29.667969 107.625 L 27.042969 105.765625 L 28.132812 103.691406 L 28.089844 103.097656 L 27.964844 101.417969 L 27.964844 98.851562 L 27.960938 77.480469 L 27.960938 76.484375 L 27.949219 72.695312 L 27.9375 68.835938 L 27.890625 55.535156 L 27.902344 46.867188 L 27.90625 44.4375 L 27.910156 41.605469 L 28.144531 31.027344 L 28.210938 22.753906 L 28.238281 16.074219 L 28.261719 10.726562 L 39.285156 10.699219 L 52.894531 10.695312 L 67.648438 10.667969 L 67.648438 28.957031 L 67.65625 35.03125 L 67.660156 38.359375 L 67.660156 41.605469 L 67.648438 46.0625 L 68.074219 46.609375 L 68.386719 47.011719 L 71.222656 49.703125 L 73.585938 51.671875 L 75.808594 52.679688 L 76.214844 54.617188 L 80.683594 56.921875 L 80.183594 58.429688 L 81.867188 59.554688 L 80.789062 61.25 L 80.914062 62.453125 L 83.78125 61.164062 L 87.605469 60.753906 L 91.792969 61.035156 L 96.242188 64.699219 L 108.839844 76.652344 L 118.097656 84.9375 L 120.914062 88.839844 L 123.359375 91.757812 L 123.695312 92.257812 L 124.632812 92.582031 L 124.765625 93.839844 L 125.195312 94.476562 L 125.175781 94.640625 L 126.058594 94.789062 L 127.8125 95.085938 L 131.582031 94.910156 L 135.289062 94.183594 L 136.292969 94.691406 L 136.894531 94.992188 L 136.46875 97.527344 L 135.652344 100.085938 L 133.59375 100.429688 L 134.023438 102.292969 L 134.914062 101.3125 L 136.933594 99.464844 L 138.566406 98.476562 L 139.15625 96.980469 L 140.089844 95.429688 L 141.054688 95.097656 L 142.886719 96.246094 L 147.203125 100.28125 L 150.550781 104.003906 L 151.371094 106.132812 L 152.664062 108.351562 L 154.039062 110.285156 L 155.011719 112.167969 L 158.261719 114.621094 L 161.5625 116.183594 L 163.769531 114.59375 L 169.378906 119.6875 L 181.734375 123.949219 L 184.007812 126.527344 L 186.140625 130.183594 L 190.457031 135.714844 L 196.441406 140.691406 L 201.25 142.785156 L 205.871094 143.984375 L 208.457031 145.078125 L 210.222656 146.980469 L 213.042969 149.027344 L 214.820312 149.789062 L 215.425781 151.621094 L 217.25 155.621094 L 219.152344 160.675781 L 221.230469 165.359375 L 225.730469 169.855469 L 230.804688 173.347656 L 230.8125 173.351562 L 235.050781 172.707031 L 237.558594 174.695312 L 241.710938 172.851562 L 245.203125 172.96875 L 247.375 173.039062 L 249.125 171.988281 L 251.140625 168.328125 L 251.617188 167.710938 L 252.34375 166.765625 L 254.5 165.457031 L 254.816406 165.605469 L 256.957031 166.617188 L 259.15625 168.75 L 260.941406 170.449219 L 261.851562 172.261719 L 264.171875 173.78125 L 265.007812 175.378906 L 267.960938 176.125 L 267.953125 179.902344 L 267.980469 189.835938 L 268.03125 194.871094 L 268.058594 197.75 L 268.074219 206.234375 L 268.105469 213.449219 L 268.136719 220.625 L 268.15625 230.082031 L 268.160156 232.144531 L 268.160156 234.285156 L 268.179688 243.734375 L 268.097656 251.921875 L 268.035156 258.390625 L 268.050781 272.128906 L 254.933594 272.15625 L 251.039062 272.203125 L 249.578125 272.203125 L 239.847656 272.21875 L 225.476562 272.285156 L 225.472656 272.285156 L 223.484375 272.242188 L 219.25 272.152344 L 203.902344 272.179688 L 189.800781 272.261719 L 189.769531 272.261719 L 181.449219 272.328125 L 169.128906 277.332031 L 161.402344 275.6875 L 155.683594 275.71875 L 151.257812 272.511719 L 148.070312 272.441406 L 138.453125 272.421875 L 138.449219 272.421875 L 129.683594 272.414062 L 120.429688 276.246094 L 117.355469 276.183594 L 115.140625 275.957031 L 109.617188 274.203125 L 108.039062 272.246094 L 97.105469 272.34375 L 84.605469 272.292969 L 74.820312 272.320312 L 56.289062 272.300781 L 44.542969 272.296875 L 28.828125 272.199219 L 28.507812 272.195312 L 28.496094 257.246094 L 28.507812 240.417969 L 28.492188 231.921875 L 28.488281 229.691406 L 27.480469 224.015625 L 28.484375 215.316406 L 28.480469 209.777344 L 28.53125 206.527344 L 28.613281 201 L 30.136719 198.792969 L 30.519531 198.242188 L 31.164062 194.890625 L 32.066406 193.109375 L 30.464844 190.960938 L 33.648438 188.386719 L 33.726562 188.324219 L 33.453125 187.363281 L 30.941406 186.800781 L 30.679688 185.214844 L 27.179688 185.152344 L 24.710938 183.613281 L 22.734375 184.328125 L 20.867188 183.203125 L 21.066406 182.894531 L 21.859375 181.664062 L 20.867188 180.464844 L 19.820312 179.289062 Z M 20.941406 177.910156 "/>
</svg>
