<?xml version="1.0" encoding="UTF-8"?>
<svg xmlns="http://www.w3.org/2000/svg" xmlns:xlink="http://www.w3.org/1999/xlink" width="288" height="288" viewBox="0 0 288 288">
<rect x="-28.8" y="-28.8" width="345.6" height="345.6" fill="rgb(100%, 100%, 100%)" fill-opacity="1"/>
<rect x="-28.8" y="-28.8" width="345.6" height="345.6" fill="rgb(100%, 100%, 100%)" fill-opacity="1"/>
<path fill="none" stroke-width="0.75" stroke-linecap="round" stroke-linejoin="round" stroke="rgb(100%, 100%, 100%)" stroke-opacity="1" stroke-miterlimit="10" d="M 0 288 L 288 288 L 288 0 L 0 0 Z M 0 288 "/>
<path fill="none" stroke-width="1.5" stroke-linecap="round" stroke-linejoin="round" stroke="rgb(0%, 0%, 0%)" stroke-opacity="1" stroke-miterlimit="10" d="M 276.023438 99.921875 L 277.332031 101.449219 L 274.621094 103.902344 L 273.210938 106.277344 L 270.742188 103.945312 L 271.703125 101.113281 Z M 276.023438 99.921875 "/>
<path fill="none" stroke-width="1.5" stroke-linecap="round" stroke-linejoin="round" stroke="rgb(0%, 0%, 0%)" stroke-opacity="1" stroke-miterlimit="10" d="M 104.835938 35.894531 L 108.769531 35.15625 L 112.691406 35.859375 L 113.398438 36.640625 L 114.855469 38.871094 L 114.308594 39.894531 L 113.210938 40.703125 L 112.535156 40.761719 L 115.574219 41.3125 L 122.773438 40.160156 L 131.683594 38.039062 L 136.058594 39.375 L 140.042969 41.507812 L 140.601562 45.816406 L 141.519531 47.785156 L 142.847656 49.304688 L 144.621094 49.300781 L 146.894531 46.292969 L 148.789062 43.195312 L 149.410156 42.621094 L 149.507812 44.148438 L 150.449219 47.507812 L 152.144531 50.816406 L 153.859375 53.011719 L 156.726562 55.933594 L 158.589844 56.074219 L 164.675781 53.3125 L 173.804688 57.316406 L 174.871094 59.335938 L 177.824219 63.417969 L 181.027344 66.351562 L 188.144531 66.535156 L 190.683594 59.335938 L 189.457031 54.945312 L 185.394531 47.308594 L 184.292969 42.804688 L 185.585938 42.007812 L 192.460938 41.15625 L 193.578125 40.269531 L 195.097656 35.320312 L 196.964844 35.882812 L 200.78125 36.523438 L 204.8125 33.136719 L 207.203125 29.589844 L 208.503906 31.207031 L 209.929688 33.699219 L 211.488281 35.140625 L 214.390625 37.28125 L 217.582031 40.289062 L 219.570312 43.25 L 221.164062 44.394531 L 225.253906 43.570312 L 226.347656 43.683594 L 228.71875 40.105469 L 230.382812 38.160156 L 231.796875 38.714844 L 233.855469 38.664062 L 238.121094 34.101562 L 240.5625 29.933594 L 241.894531 28.792969 L 245.71875 30.875 L 247.246094 30.449219 L 249.453125 24.71875 L 251.835938 22.46875 L 252.527344 25.5625 L 250.683594 31.414062 L 248.722656 36.722656 L 245.039062 41.359375 L 244.859375 44.78125 L 243.59375 54.972656 L 244.082031 58.222656 L 244.9375 61.003906 L 246.136719 62.492188 L 249.332031 72.484375 L 252.238281 81.578125 L 255.101562 89.054688 L 255.609375 93.785156 L 252.980469 105.773438 L 249.90625 116.792969 L 250.175781 122.292969 L 250.183594 122.328125 L 251.574219 121.136719 L 254.070312 117.871094 L 257.207031 115.074219 L 258.375 111.535156 L 261.144531 111.296875 L 263.488281 109.789062 L 264.054688 107.847656 L 266.296875 106.375 L 268.074219 106.113281 L 269.796875 106.464844 L 269.753906 109.066406 L 266.886719 110.726562 L 266.816406 112.863281 L 266.050781 115.160156 L 262.710938 117.910156 L 260.5625 120.574219 L 259.777344 123.140625 L 256.71875 125.324219 L 254.835938 127.882812 L 252.359375 131.855469 L 252.285156 131.972656 L 252.894531 135.140625 L 253.414062 144.535156 L 252.652344 150.664062 L 251.265625 154.472656 L 248.617188 158.371094 L 246.308594 160.367188 L 243.535156 157.050781 L 241.324219 156.90625 L 239.773438 157.425781 L 238.175781 161.480469 L 236.878906 164.578125 L 236.550781 165.355469 L 236.972656 168.019531 L 238.121094 169.832031 L 237.769531 171.707031 L 237.859375 173.535156 L 234.179688 178.457031 L 234.140625 179.304688 L 234.042969 181.429688 L 231.949219 184.480469 L 229.835938 189.277344 L 229.523438 193.972656 L 229.511719 194.183594 L 229.339844 197.003906 L 230.667969 199.621094 L 229.546875 201.695312 L 231.875 204.753906 L 232.214844 208.488281 L 232.542969 208.820312 L 232.816406 209.105469 L 235.207031 211.5625 L 234.398438 215.164062 L 233.65625 216.554688 L 233.101562 217.597656 L 233.164062 220.378906 L 233.726562 224.132812 L 229.449219 224.09375 L 216.234375 223.96875 L 215.46875 223.960938 L 211.617188 223.972656 L 202.75 224.003906 L 193.960938 224.0625 L 190.925781 224.035156 L 186.203125 224 L 189.578125 227.5 L 192.273438 229.867188 L 192.582031 231.277344 L 190.984375 236.421875 L 192.40625 243.65625 L 189.550781 243.523438 L 184.785156 240.417969 L 182.507812 238.519531 L 179.746094 240.035156 L 178.785156 239.746094 L 176.917969 236.1875 L 174.476562 232.546875 L 171.964844 232.316406 L 166.652344 233.75 L 161.222656 234.746094 L 159.160156 234.734375 L 158.320312 235.390625 L 155.167969 240.796875 L 153.835938 239.867188 L 148.363281 237.8125 L 143.375 237.023438 L 142.347656 238.421875 L 142.957031 242.835938 L 144.050781 247.140625 L 143.40625 248.972656 L 140.664062 251.238281 L 137.042969 255.324219 L 134.820312 258.503906 L 133.277344 259.28125 L 127.765625 259.144531 L 122.265625 259.558594 L 120.066406 262.558594 L 118 264.894531 L 116.21875 265.53125 L 109.03125 258.117188 L 94.769531 255.53125 L 93.21875 252.261719 L 91.847656 251.625 L 90.535156 255.875 L 82.703125 259.957031 L 79.421875 257.492188 L 77.015625 254.503906 L 77.375 250.851562 L 79.640625 247.867188 L 83.535156 245.726562 L 85.332031 238.234375 L 82.371094 228.636719 L 79.769531 225.84375 L 77.027344 223.628906 L 74.144531 227.199219 L 71.714844 233.300781 L 69.1875 236.445312 L 65.613281 237.144531 L 60.382812 236.890625 L 58.347656 227.777344 L 57.675781 219.964844 L 58.390625 211.050781 L 59.183594 205.773438 L 54.144531 198.496094 L 53.867188 191.570312 L 51.429688 188 L 50.714844 189.804688 L 50.78125 191.792969 L 50.089844 190.351562 L 42.132812 170.046875 L 40.800781 160.640625 L 42.167969 153.402344 L 42.96875 150.976562 L 40.675781 147.167969 L 37.445312 142.839844 L 31.742188 137.175781 L 31.722656 136.679688 L 25.515625 135.917969 L 22.5 134.457031 L 19.058594 131.28125 L 17.519531 130.222656 L 14.855469 128.394531 L 14.289062 128.007812 L 15.898438 124.445312 L 15.964844 124.152344 L 15.96875 124.132812 L 16.679688 120.839844 L 16.191406 117.503906 L 14.394531 115.730469 L 17.128906 113.753906 L 16.984375 113.332031 L 15.972656 110.390625 L 16.007812 109.777344 L 16.195312 106.699219 L 16.789062 106.242188 L 18.953125 104.589844 L 20.726562 102.140625 L 21.242188 100.425781 L 19.484375 99.019531 L 17.675781 96.835938 L 16.410156 95.535156 L 14.457031 95.316406 L 10.964844 94.882812 L 10.667969 92.203125 L 10.71875 91.996094 L 11.464844 89.097656 L 12.734375 88.519531 L 13.382812 88.222656 L 15.550781 86.050781 L 16.300781 84.207031 L 17.980469 82.234375 L 20.828125 80.585938 L 24.144531 79.699219 L 25.671875 78.730469 L 28.871094 78.617188 L 29.882812 77.425781 L 32.378906 76.726562 L 34.175781 76.882812 L 34.769531 75.40625 L 36.707031 74.503906 L 36.714844 71.148438 L 36.722656 67.644531 L 36.761719 60.664062 L 36.777344 57.511719 L 36.785156 50.785156 L 40.589844 50.722656 L 41.570312 49.503906 L 43.3125 48.046875 L 45.203125 47.933594 L 47.371094 48.890625 L 48.925781 49.050781 L 51.269531 50.011719 L 53.476562 49.804688 L 55.042969 47.890625 L 62.425781 43.390625 L 67.425781 42.335938 L 72.640625 40.804688 L 77.636719 38.621094 L 80.007812 38.417969 L 86.210938 41.054688 L 89.5625 41.726562 L 90.644531 41.71875 L 91.929688 41.195312 L 94.117188 40.296875 L 93.910156 38.039062 L 96.769531 37.257812 L 99.894531 38.824219 L 101.9375 39.773438 L 103.515625 40.820312 L 107.511719 39.855469 L 108.371094 40.007812 L 107.496094 39.082031 L 106.070312 37.917969 L 103.613281 37.238281 L 103.222656 36.363281 Z M 104.835938 35.894531 "/>
<path fill="none" stroke-width="1.5" stroke-linecap="round" stroke-linejoin="round" stroke="rgb(0%, 0%, 0%)" stroke-opacity="1" stroke-miterlimit="10" d="M 54.878906 216.300781 L 54.144531 216.285156 L 53.390625 215.449219 L 53.464844 212.171875 L 54.011719 210.167969 L 55.296875 209.792969 L 55.660156 215.757812 Z M 54.878906 216.300781 "/>
<path fill="none" stroke-width="1.5" stroke-linecap="round" stroke-linejoin="round" stroke="rgb(0%, 0%, 0%)" stroke-opacity="1" stroke-miterlimit="10" d="M 66.011719 250.222656 L 63.457031 245.671875 L 63.476562 244.394531 L 67.613281 248.011719 Z M 66.011719 250.222656 "/>
</svg>
