<?xml version="1.0" encoding="UTF-8"?>
<svg xmlns="http://www.w3.org/2000/svg" xmlns:xlink="http://www.w3.org/1999/xlink" width="288" height="288" viewBox="0 0 288 288">
<rect x="-28.8" y="-28.8" width="345.6" height="345.6" fill="rgb(100%, 100%, 100%)" fill-opacity="1"/>
<rect x="-28.8" y="-28.8" width="345.6" height="345.6" fill="rgb(100%, 100%, 100%)" fill-opacity="1"/>
<path fill="none" stroke-width="0.75" stroke-linecap="round" stroke-linejoin="round" stroke="rgb(100%, 100%, 100%)" stroke-opacity="1" stroke-miterlimit="10" d="M 0 288 L 288 288 L 288 0 L 0 0 Z M 0 288 "/>
<path fill="none" stroke-width="1.5" stroke-linecap="round" stroke-linejoin="round" stroke="rgb(0%, 0%, 0%)" stroke-opacity="1" stroke-miterlimit="10" d="M 81.144531 68.683594 L 81.121094 68.175781 L 81.230469 67.992188 L 82.046875 61.117188 L 82.226562 59.613281 L 82.355469 58.507812 L 80.683594 53.5 L 81.976562 51.03125 L 83.648438 46.476562 L 84 44.550781 L 84.589844 39.550781 L 85.335938 33.246094 L 85.589844 31.070312 L 87.359375 16.789062 L 84.601562 15.191406 L 82.394531 11.320312 L 82.253906 10.667969 L 92.109375 10.777344 L 92.84375 10.777344 L 99.304688 10.792969 L 110.320312 10.894531 L 111.242188 10.90625 L 129.792969 11.132812 L 130.152344 11.136719 L 130.441406 11.140625 L 148.625 11.472656 L 151.183594 11.515625 L 166.523438 11.582031 L 173.757812 11.5625 L 174.125 11.5625 L 185.101562 11.667969 L 186.082031 11.441406 L 201.359375 11.769531 L 201.652344 11.832031 L 208.414062 11.898438 L 208.632812 13.34375 L 224.550781 16.78125 L 234.933594 20.199219 L 239.214844 23.296875 L 240.03125 28.878906 L 239.613281 36.011719 L 237.9375 42.828125 L 234.273438 51.988281 L 230.183594 56.511719 L 225.742188 62.960938 L 219.886719 74.085938 L 219.917969 74.535156 L 220.296875 76.65625 L 221.382812 82.816406 L 222.550781 89.4375 L 222.996094 91.96875 L 223.507812 94.914062 L 226.3125 111 L 226.515625 112.160156 L 228.765625 125.023438 L 228.847656 125.503906 L 229.988281 127.378906 L 231.757812 131.445312 L 232.253906 132.59375 L 233.503906 136.527344 L 234.109375 139.234375 L 234.410156 140.589844 L 237.460938 143.808594 L 237.75 144.554688 L 237.8125 144.722656 L 239.171875 148.214844 L 238.71875 151.6875 L 238.605469 152.550781 L 237.410156 153.992188 L 239.953125 155.667969 L 243.054688 157.988281 L 241.691406 159.761719 L 241.195312 160.402344 L 239.53125 161.332031 L 240.183594 162.710938 L 241.558594 163.285156 L 242.308594 165.261719 L 241.558594 169.046875 L 241.382812 174.300781 L 238.777344 180.40625 L 233.125 190.839844 L 234.980469 193.164062 L 234.988281 195.875 L 235.769531 197.3125 L 235.292969 198.691406 L 234.324219 201.503906 L 234.597656 203.539062 L 233.3125 207.304688 L 233.535156 209.574219 L 233.488281 210.289062 L 233.445312 211.039062 L 232.550781 213.046875 L 232.582031 217.023438 L 236.074219 221.339844 L 236.777344 223.144531 L 237.25 224.355469 L 237.683594 227.273438 L 236.285156 227.277344 L 230.714844 227.273438 L 226.8125 227.300781 L 222.324219 237.597656 L 218.265625 240.507812 L 215.820312 245.179688 L 214.242188 245.226562 L 212.476562 245.664062 L 211.917969 246.242188 L 209.703125 246.191406 L 207.976562 244.121094 L 207.707031 241.675781 L 206.773438 238.871094 L 204.605469 238.03125 L 200.484375 239.003906 L 199.300781 238.308594 L 196.847656 235.296875 L 194.816406 232.027344 L 194.316406 228.863281 L 193 229.164062 L 189.867188 232.027344 L 187.742188 232.613281 L 186.054688 231.871094 L 184.167969 232.078125 L 179.390625 235.148438 L 176.578125 235.847656 L 174.566406 238.9375 L 161.28125 240.339844 L 157.804688 241.148438 L 149.878906 235.800781 L 147.828125 234.0625 L 146.785156 233.816406 L 145.902344 234.101562 L 145.035156 235.289062 L 143.730469 242.007812 L 142.527344 243.828125 L 140.453125 245.308594 L 138.433594 247.988281 L 138.03125 250.585938 L 141.140625 252.015625 L 143.742188 257.058594 L 146.566406 261.105469 L 148.828125 264.671875 L 148.523438 268.707031 L 148.136719 274.429688 L 146.5 276.378906 L 143.75 277.332031 L 133.6875 274.566406 L 125.980469 272.09375 L 122.726562 271.550781 L 121.269531 270.921875 L 119.351562 268.824219 L 117.390625 266.882812 L 116.0625 266.585938 L 115.503906 267.203125 L 108.773438 268.914062 L 100.910156 270.105469 L 97.296875 269.496094 L 101.511719 267.238281 L 101.984375 264.769531 L 98.667969 261.476562 L 96.28125 257.992188 L 95.347656 255.703125 L 96.886719 252.175781 L 96.242188 250.234375 L 95.460938 246.53125 L 91.703125 244.742188 L 89.101562 246.960938 L 88.960938 250.101562 L 88.148438 252.429688 L 87.074219 254.949219 L 86.976562 260.453125 L 85.5 264.960938 L 82.609375 264.933594 L 79.59375 265.0625 L 76.980469 262.28125 L 74.433594 261.222656 L 72.929688 262.253906 L 72.496094 252.59375 L 72.089844 242.148438 L 72.082031 241.9375 L 71.421875 227.40625 L 71.132812 221.003906 L 70.324219 204.09375 L 70.285156 203.292969 L 69.796875 193.085938 L 69.597656 188.898438 L 69.351562 183.816406 L 69.351562 180.386719 L 66.882812 179.273438 L 64.746094 177.761719 L 64.289062 175.890625 L 64.613281 169.890625 L 61.171875 165.34375 L 55.714844 159.726562 L 54.070312 152.59375 L 52.070312 148.144531 L 46.023438 138.839844 L 44.953125 132.453125 L 44.945312 127.953125 L 47.066406 123.816406 L 50.03125 116.550781 L 51.246094 109.945312 L 52.144531 106.511719 L 53.675781 102.007812 L 55.070312 96.179688 L 54.007812 92.585938 L 52.210938 89.066406 L 51.617188 86.4375 L 53.363281 82.585938 L 55.121094 79.871094 L 57.101562 79.484375 L 59.632812 77.859375 L 61.621094 75.519531 L 64.644531 74.902344 L 68.429688 74.660156 L 76.136719 74.652344 L 80.078125 73.65625 L 80.660156 72.765625 Z M 81.144531 68.683594 "/>
</svg>
