<?xml version="1.0" encoding="UTF-8"?>
<svg xmlns="http://www.w3.org/2000/svg" xmlns:xlink="http://www.w3.org/1999/xlink" width="288" height="288" viewBox="0 0 288 288">
<defs>
<clipPath id="clip-0">
<path clip-rule="nonzero" d="M 59.039062 59.039062 L 257.757812 59.039062 L 257.757812 214.558594 L 59.039062 214.558594 Z M 59.039062 59.039062 "/>
</clipPath>
</defs>
<rect x="-28.8" y="-28.8" width="345.6" height="345.6" fill="rgb(100%, 100%, 100%)" fill-opacity="1"/>
<g clip-path="url(#clip-0)">
<path fill-rule="nonzero" fill="rgb(100%, 100%, 100%)" fill-opacity="1" stroke-width="0.75" stroke-linecap="round" stroke-linejoin="round" stroke="rgb(100%, 100%, 100%)" stroke-opacity="1" stroke-miterlimit="10" d="M 59.039062 214.558594 L 257.757812 214.558594 L 257.757812 59.039062 L 59.039062 59.039062 Z M 59.039062 214.558594 "/>
</g>
<path fill="none" stroke-width="0.75" stroke-linecap="round" stroke-linejoin="round" stroke="rgb(0%, 0%, 0%)" stroke-opacity="1" stroke-miterlimit="10" d="M 91.949219 155.113281 L 91.714844 154.039062 L 92.984375 153.132812 L 93.507812 152.441406 L 94.546875 150.496094 L 95.253906 148.960938 L 96.304688 148.351562 L 98.078125 147.730469 L 98.996094 146.640625 L 99.515625 146.027344 L 100.199219 144.835938 L 99.667969 143.824219 L 100.035156 142.761719 L 101.203125 141.882812 L 101.128906 141.441406 L 101.574219 139.796875 L 101.488281 138.214844 L 100.867188 136.695312 L 101.335938 135.441406 L 102.882812 134.445312 L 104.042969 132.917969 L 104.804688 130.859375 L 105.199219 129.285156 L 105.21875 128.199219 L 104.953125 127.625 L 103.839844 127.574219 L 102.304688 126.6875 L 101.199219 126.40625 L 100.945312 126.191406 L 99.632812 125.0625 L 99.050781 124.035156 L 98.417969 123.296875 L 97.84375 121.984375 L 96.992188 121.507812 L 97.996094 120.359375 L 98.246094 119.792969 L 97.402344 119.21875 L 97.371094 118.148438 L 96.660156 117.15625 L 95.242188 116.152344 L 95.832031 115.03125 L 95.808594 114.714844 L 95.742188 113.804688 L 95.742188 112.421875 L 95.738281 100.878906 L 95.738281 100.34375 L 95.734375 98.296875 L 95.726562 96.210938 L 95.699219 89.03125 L 95.707031 84.347656 L 95.710938 83.035156 L 95.710938 81.507812 L 95.839844 75.796875 L 95.871094 71.328125 L 95.890625 67.722656 L 95.902344 64.832031 L 101.851562 64.816406 L 109.203125 64.816406 L 117.171875 64.800781 L 117.171875 74.675781 L 117.175781 77.957031 L 117.175781 81.507812 L 117.171875 83.914062 L 117.398438 84.210938 L 117.570312 84.425781 L 119.101562 85.878906 L 120.378906 86.945312 L 121.578125 87.488281 L 121.796875 88.53125 L 124.210938 89.777344 L 123.9375 90.589844 L 124.847656 91.199219 L 124.265625 92.113281 L 124.335938 92.765625 L 125.882812 92.066406 L 127.949219 91.847656 L 130.207031 92 L 132.609375 93.976562 L 139.414062 100.433594 L 144.410156 104.90625 L 145.933594 107.011719 L 147.253906 108.589844 L 147.4375 108.859375 L 147.941406 109.035156 L 148.011719 109.714844 L 148.246094 110.058594 L 148.234375 110.144531 L 148.710938 110.226562 L 149.660156 110.386719 L 151.695312 110.292969 L 153.695312 109.898438 L 154.238281 110.171875 L 154.5625 110.335938 L 154.332031 111.707031 L 153.894531 113.085938 L 152.78125 113.273438 L 153.011719 114.277344 L 153.492188 113.75 L 154.582031 112.75 L 155.464844 112.21875 L 155.785156 111.410156 L 156.289062 110.570312 L 156.8125 110.390625 L 157.800781 111.011719 L 160.128906 113.191406 L 161.9375 115.203125 L 162.382812 116.351562 L 163.078125 117.550781 L 163.820312 118.59375 L 164.347656 119.609375 L 166.101562 120.933594 L 167.882812 121.777344 L 169.078125 120.921875 L 172.105469 123.671875 L 178.777344 125.972656 L 180.003906 127.363281 L 181.15625 129.339844 L 183.484375 132.328125 L 186.71875 135.015625 L 189.316406 136.144531 L 191.808594 136.792969 L 193.207031 137.382812 L 194.160156 138.410156 L 195.683594 139.515625 L 196.644531 139.925781 L 196.972656 140.914062 L 197.953125 143.074219 L 198.980469 145.804688 L 200.105469 148.335938 L 202.535156 150.761719 L 205.273438 152.648438 L 205.277344 152.648438 L 207.566406 152.300781 L 208.921875 153.375 L 211.164062 152.378906 L 213.046875 152.441406 L 214.222656 152.480469 L 215.167969 151.914062 L 216.257812 149.9375 L 216.511719 149.605469 L 216.90625 149.09375 L 218.070312 148.386719 L 218.238281 148.46875 L 219.398438 149.015625 L 220.585938 150.164062 L 221.550781 151.082031 L 222.039062 152.0625 L 223.292969 152.882812 L 223.746094 153.746094 L 225.339844 154.148438 L 225.335938 156.1875 L 225.351562 161.550781 L 225.378906 164.269531 L 225.390625 165.824219 L 225.402344 170.40625 L 225.417969 174.300781 L 225.433594 178.175781 L 225.445312 183.285156 L 225.445312 184.398438 L 225.449219 185.554688 L 225.457031 190.65625 L 225.414062 195.078125 L 225.378906 198.570312 L 225.386719 205.988281 L 218.304688 206.003906 L 216.199219 206.027344 L 215.414062 206.03125 L 210.15625 206.039062 L 202.398438 206.074219 L 202.394531 206.074219 L 201.320312 206.050781 L 199.035156 206.003906 L 190.746094 206.015625 L 183.132812 206.0625 L 183.113281 206.0625 L 178.621094 206.097656 L 171.96875 208.800781 L 167.796875 207.910156 L 164.710938 207.929688 L 162.320312 206.195312 L 160.597656 206.15625 L 155.402344 206.148438 L 150.667969 206.144531 L 145.671875 208.214844 L 144.011719 208.179688 L 142.816406 208.058594 L 139.832031 207.109375 L 138.980469 206.054688 L 133.078125 206.105469 L 126.328125 206.078125 L 121.042969 206.09375 L 111.035156 206.082031 L 104.691406 206.078125 L 96.207031 206.027344 L 96.035156 206.027344 L 96.027344 197.953125 L 96.035156 188.867188 L 96.023438 184.277344 L 96.023438 183.074219 L 95.480469 180.007812 L 96.019531 175.3125 L 96.019531 172.320312 L 96.046875 170.566406 L 96.089844 167.582031 L 96.914062 166.390625 L 97.121094 166.089844 L 97.46875 164.28125 L 97.957031 163.316406 L 97.089844 162.160156 L 98.8125 160.769531 L 98.851562 160.734375 L 98.707031 160.214844 L 97.347656 159.914062 L 97.207031 159.054688 L 95.316406 159.023438 L 93.984375 158.191406 L 92.917969 158.578125 L 91.90625 157.96875 L 92.015625 157.800781 L 92.445312 157.140625 L 91.910156 156.488281 L 91.34375 155.855469 Z M 91.949219 155.113281 "/>
</svg>
