<?xml version="1.0" encoding="UTF-8"?>
<svg xmlns="http://www.w3.org/2000/svg" xmlns:xlink="http://www.w3.org/1999/xlink" width="288" height="288" viewBox="0 0 288 288">
<defs>
<clipPath id="clip-0">
<path clip-rule="nonzero" d="M 59.039062 59.039062 L 257.757812 59.039062 L 257.757812 214.558594 L 59.039062 214.558594 Z M 59.039062 59.039062 "/>
</clipPath>
</defs>
<rect x="-28.8" y="-28.8" width="345.6" height="345.6" fill="rgb(100%, 100%, 100%)" fill-opacity="1"/>
<g clip-path="url(#clip-0)">
<path fill-rule="nonzero" fill="rgb(100%, 100%, 100%)" fill-opacity="1" stroke-width="0.75" stroke-linecap="round" stroke-linejoin="round" stroke="rgb(100%, 100%, 100%)" stroke-opacity="1" stroke-miterlimit="10" d="M 59.039062 214.558594 L 257.757812 214.558594 L 257.757812 59.039062 L 59.039062 59.039062 Z M 59.039062 214.558594 "/>
</g>
<path fill="none" stroke-width="0.75" stroke-linecap="round" stroke-linejoin="round" stroke="rgb(0%, 0%, 0%)" stroke-opacity="1" stroke-miterlimit="10" d="M 236.617188 110.6875 L 237.390625 111.59375 L 235.785156 113.046875 L 234.949219 114.453125 L 233.488281 113.070312 L 234.054688 111.390625 Z M 236.617188 110.6875 "/>
<path fill="none" stroke-width="0.75" stroke-linecap="round" stroke-linejoin="round" stroke="rgb(0%, 0%, 0%)" stroke-opacity="1" stroke-miterlimit="10" d="M 135.195312 72.753906 L 137.527344 72.316406 L 139.851562 72.734375 L 140.269531 73.195312 L 141.132812 74.515625 L 140.8125 75.125 L 140.160156 75.601562 L 139.761719 75.636719 L 141.558594 75.964844 L 145.824219 75.28125 L 151.101562 74.023438 L 153.695312 74.816406 L 156.054688 76.078125 L 156.386719 78.632812 L 156.929688 79.796875 L 157.71875 80.699219 L 158.769531 80.699219 L 160.113281 78.914062 L 161.234375 77.078125 L 161.605469 76.738281 L 161.664062 77.644531 L 162.21875 79.632812 L 163.226562 81.59375 L 164.242188 82.894531 L 165.9375 84.625 L 167.042969 84.707031 L 170.648438 83.074219 L 176.058594 85.445312 L 176.691406 86.640625 L 178.441406 89.058594 L 180.335938 90.796875 L 184.554688 90.90625 L 186.058594 86.640625 L 185.328125 84.042969 L 182.925781 79.515625 L 182.269531 76.847656 L 183.035156 76.375 L 187.109375 75.871094 L 187.773438 75.34375 L 188.671875 72.414062 L 189.777344 72.746094 L 192.039062 73.125 L 194.429688 71.121094 L 195.84375 69.019531 L 196.613281 69.976562 L 197.460938 71.453125 L 198.382812 72.308594 L 200.101562 73.574219 L 201.992188 75.359375 L 203.167969 77.109375 L 204.117188 77.789062 L 206.539062 77.300781 L 207.183594 77.371094 L 208.589844 75.25 L 209.578125 74.09375 L 210.414062 74.425781 L 211.632812 74.394531 L 214.160156 71.691406 L 215.605469 69.222656 L 216.394531 68.546875 L 218.660156 69.78125 L 219.566406 69.527344 L 220.875 66.132812 L 222.285156 64.800781 L 222.695312 66.632812 L 221.605469 70.097656 L 220.441406 73.246094 L 218.261719 75.992188 L 218.152344 78.019531 L 217.402344 84.058594 L 217.691406 85.980469 L 218.199219 87.628906 L 218.910156 88.511719 L 220.800781 94.429688 L 222.523438 99.820312 L 224.222656 104.246094 L 224.519531 107.050781 L 222.964844 114.152344 L 221.140625 120.679688 L 221.300781 123.9375 L 221.308594 123.960938 L 222.128906 123.253906 L 223.609375 121.320312 L 225.46875 119.664062 L 226.160156 117.566406 L 227.800781 117.425781 L 229.191406 116.53125 L 229.523438 115.382812 L 230.851562 114.507812 L 231.90625 114.351562 L 232.925781 114.5625 L 232.902344 116.105469 L 231.203125 117.085938 L 231.160156 118.355469 L 230.707031 119.714844 L 228.730469 121.34375 L 227.457031 122.921875 L 226.992188 124.441406 L 225.179688 125.734375 L 224.0625 127.253906 L 222.597656 129.605469 L 222.554688 129.675781 L 222.914062 131.550781 L 223.222656 137.117188 L 222.769531 140.746094 L 221.949219 143.003906 L 220.378906 145.316406 L 219.011719 146.496094 L 217.367188 144.53125 L 216.058594 144.445312 L 215.140625 144.753906 L 214.195312 147.15625 L 213.425781 148.992188 L 213.230469 149.453125 L 213.480469 151.03125 L 214.160156 152.105469 L 213.953125 153.214844 L 214.003906 154.296875 L 211.824219 157.214844 L 211.800781 157.714844 L 211.746094 158.972656 L 210.503906 160.78125 L 209.25 163.621094 L 209.066406 166.40625 L 209.058594 166.53125 L 208.957031 168.199219 L 209.746094 169.753906 L 209.082031 170.980469 L 210.460938 172.792969 L 210.664062 175.003906 L 210.855469 175.203125 L 211.019531 175.371094 L 212.433594 176.824219 L 211.957031 178.960938 L 211.515625 179.785156 L 211.1875 180.402344 L 211.222656 182.050781 L 211.558594 184.273438 L 209.023438 184.25 L 201.195312 184.175781 L 200.738281 184.171875 L 198.460938 184.179688 L 193.207031 184.199219 L 188 184.230469 L 186.203125 184.21875 L 183.402344 184.195312 L 185.402344 186.269531 L 187 187.671875 L 187.179688 188.507812 L 186.234375 191.554688 L 187.078125 195.839844 L 185.386719 195.761719 L 182.5625 193.921875 L 181.210938 192.796875 L 179.578125 193.695312 L 179.007812 193.523438 L 177.902344 191.414062 L 176.457031 189.257812 L 174.96875 189.121094 L 171.820312 189.972656 L 168.601562 190.5625 L 167.382812 190.554688 L 166.882812 190.941406 L 165.015625 194.144531 L 164.226562 193.59375 L 160.984375 192.378906 L 158.03125 191.910156 L 157.421875 192.738281 L 157.78125 195.355469 L 158.429688 197.90625 L 158.046875 198.988281 L 156.425781 200.332031 L 154.277344 202.753906 L 152.960938 204.636719 L 152.046875 205.097656 L 148.78125 205.015625 L 145.523438 205.261719 L 144.21875 207.039062 L 142.996094 208.421875 L 141.941406 208.800781 L 137.683594 204.40625 L 129.234375 202.875 L 128.316406 200.9375 L 127.503906 200.5625 L 126.726562 203.078125 L 122.085938 205.5 L 120.140625 204.039062 L 118.714844 202.265625 L 118.929688 200.101562 L 120.273438 198.335938 L 122.578125 197.066406 L 123.644531 192.628906 L 121.886719 186.941406 L 120.347656 185.289062 L 118.722656 183.976562 L 117.015625 186.089844 L 115.578125 189.707031 L 114.078125 191.566406 L 111.960938 191.980469 L 108.863281 191.832031 L 107.65625 186.433594 L 107.257812 181.804688 L 107.683594 176.523438 L 108.152344 173.394531 L 105.164062 169.085938 L 105 164.980469 L 103.558594 162.867188 L 103.132812 163.9375 L 103.175781 165.113281 L 102.761719 164.257812 L 98.050781 152.230469 L 97.261719 146.660156 L 98.070312 142.371094 L 98.546875 140.933594 L 97.183594 138.675781 L 95.273438 136.113281 L 91.894531 132.757812 L 91.882812 132.464844 L 88.203125 132.011719 L 86.417969 131.148438 L 84.378906 129.265625 L 83.46875 128.636719 L 81.890625 127.554688 L 81.554688 127.324219 L 82.507812 125.214844 L 82.546875 125.039062 L 82.546875 125.027344 L 82.96875 123.082031 L 82.679688 121.101562 L 81.617188 120.050781 L 83.238281 118.882812 L 83.152344 118.628906 L 82.550781 116.886719 L 82.574219 116.523438 L 82.683594 114.703125 L 83.035156 114.429688 L 84.316406 113.449219 L 85.367188 112 L 85.671875 110.984375 L 84.632812 110.152344 L 83.5625 108.859375 L 82.8125 108.085938 L 81.652344 107.957031 L 79.585938 107.703125 L 79.40625 106.113281 L 79.441406 105.988281 L 79.882812 104.273438 L 80.632812 103.929688 L 81.015625 103.753906 L 82.300781 102.46875 L 82.746094 101.375 L 83.742188 100.207031 L 85.429688 99.230469 L 87.390625 98.707031 L 88.296875 98.132812 L 90.191406 98.0625 L 90.792969 97.359375 L 92.273438 96.945312 L 93.335938 97.039062 L 93.6875 96.160156 L 94.835938 95.628906 L 94.839844 93.640625 L 94.84375 91.5625 L 94.867188 87.429688 L 94.878906 85.5625 L 94.882812 81.574219 L 97.132812 81.539062 L 97.714844 80.816406 L 98.75 79.953125 L 99.867188 79.886719 L 101.152344 80.453125 L 102.074219 80.550781 L 103.460938 81.117188 L 104.769531 80.996094 L 105.699219 79.859375 L 110.070312 77.195312 L 113.035156 76.570312 L 116.125 75.664062 L 119.085938 74.371094 L 120.488281 74.246094 L 124.164062 75.808594 L 126.148438 76.210938 L 126.789062 76.203125 L 127.550781 75.894531 L 128.847656 75.363281 L 128.722656 74.023438 L 130.417969 73.5625 L 132.269531 74.488281 L 133.480469 75.050781 L 134.414062 75.671875 L 136.78125 75.101562 L 137.292969 75.191406 L 136.773438 74.644531 L 135.929688 73.953125 L 134.472656 73.550781 L 134.242188 73.03125 Z M 135.195312 72.753906 "/>
<path fill="none" stroke-width="0.75" stroke-linecap="round" stroke-linejoin="round" stroke="rgb(0%, 0%, 0%)" stroke-opacity="1" stroke-miterlimit="10" d="M 105.601562 179.632812 L 105.164062 179.625 L 104.71875 179.128906 L 104.761719 177.1875 L 105.085938 176 L 105.847656 175.777344 L 106.0625 179.3125 Z M 105.601562 179.632812 "/>
<path fill="none" stroke-width="0.75" stroke-linecap="round" stroke-linejoin="round" stroke="rgb(0%, 0%, 0%)" stroke-opacity="1" stroke-miterlimit="10" d="M 112.199219 199.730469 L 110.683594 197.035156 L 110.695312 196.277344 L 113.144531 198.421875 Z M 112.199219 199.730469 "/>
</svg>
