<?xml version="1.0" encoding="UTF-8"?>
<svg xmlns="http://www.w3.org/2000/svg" xmlns:xlink="http://www.w3.org/1999/xlink" width="288" height="288" viewBox="0 0 288 288">
<defs>
<clipPath id="clip-0">
<path clip-rule="nonzero" d="M 59.039062 59.039062 L 257.757812 59.039062 L 257.757812 214.558594 L 59.039062 214.558594 Z M 59.039062 59.039062 "/>
</clipPath>
</defs>
<rect x="-28.8" y="-28.8" width="345.6" height="345.6" fill="rgb(100%, 100%, 100%)" fill-opacity="1"/>
<g clip-path="url(#clip-0)">
<path fill-rule="nonzero" fill="rgb(100%, 100%, 100%)" fill-opacity="1" stroke-width="0.75" stroke-linecap="round" stroke-linejoin="round" stroke="rgb(100%, 100%, 100%)" stroke-opacity="1" stroke-miterlimit="10" d="M 59.039062 214.558594 L 257.757812 214.558594 L 257.757812 59.039062 L 59.039062 59.039062 Z M 59.039062 214.558594 "/>
</g>
<path fill="none" stroke-width="0.75" stroke-linecap="round" stroke-linejoin="round" stroke="rgb(0%, 0%, 0%)" stroke-opacity="1" stroke-miterlimit="10" d="M 112.953125 162.644531 L 114.246094 160.617188 L 115.882812 159.113281 L 116.808594 156.46875 L 119.066406 154.589844 L 119.300781 154.449219 L 122.800781 152.292969 L 123.902344 152.230469 L 123.914062 142.972656 L 123.550781 135.417969 L 123.667969 129.90625 L 124.367188 120.320312 L 124.28125 114.597656 L 120.660156 107.992188 L 116.152344 100.96875 L 113.703125 97.527344 L 113.578125 94.75 L 113.589844 92.1875 L 114.3125 88.445312 L 116.074219 84.273438 L 118.054688 83.816406 L 122.914062 85.46875 L 127.980469 89.015625 L 130.667969 96.980469 L 132.726562 98.128906 L 136.433594 98.117188 L 135.226562 96.574219 L 133.925781 94.597656 L 133.425781 93.839844 L 136.609375 91.875 L 137.535156 91.160156 L 139.421875 89.699219 L 140.585938 88.074219 L 141.0625 87.414062 L 141.226562 87.1875 L 145.023438 84.878906 L 146.949219 81.207031 L 149.582031 77.726562 L 152.402344 75.480469 L 155.734375 74.609375 L 159.585938 76.382812 L 160.214844 66.585938 L 162.417969 66.421875 L 168.449219 71.425781 L 169.742188 71.769531 L 171.015625 71.59375 L 173.101562 69.109375 L 175.675781 67.09375 L 177.566406 67.144531 L 184.570312 64.800781 L 188.324219 69.042969 L 190.699219 70.355469 L 191.957031 70.660156 L 190.941406 72.417969 L 186.273438 85.011719 L 185.371094 86.902344 L 185.886719 88.0625 L 186.382812 88.664062 L 189.023438 89.808594 L 196.511719 92.96875 L 195.835938 95.304688 L 195.164062 96.988281 L 195.082031 97.1875 L 194.429688 98.828125 L 194.265625 99.234375 L 193.789062 100.101562 L 192.851562 101.792969 L 192.738281 102 L 192.578125 102.226562 L 191.898438 103.1875 L 190.410156 105.285156 L 190.285156 105.535156 L 194.539062 106.648438 L 199.894531 109.46875 L 203.496094 109.980469 L 204.34375 112.015625 L 204.171875 115.660156 L 205.070312 118.824219 L 205.082031 124.484375 L 204.003906 129.457031 L 198.484375 131.796875 L 195.648438 134.347656 L 194.875 135.628906 L 195.570312 137.125 L 195.945312 139.140625 L 190.75 144.101562 L 187.300781 148.28125 L 187.179688 148.921875 L 186.484375 154.691406 L 186.042969 156.574219 L 185.949219 156.96875 L 181.390625 163.796875 L 177.117188 168.910156 L 173.296875 177.714844 L 171.261719 183.925781 L 161.085938 198.828125 L 152.035156 206.261719 L 149.402344 208.800781 L 133.386719 208.359375 L 132.164062 198.316406 L 129.726562 184.601562 L 128.664062 182.203125 L 127.757812 181.535156 L 125.671875 181.191406 L 123.5625 179.085938 L 122.097656 178.28125 L 119.871094 176.625 L 118.964844 176.132812 L 117.675781 175.429688 L 116.515625 173.515625 L 112.886719 172.386719 L 113.3125 170.421875 L 113.335938 168.484375 L 114.09375 166.253906 L 112.503906 165.316406 L 111.714844 163.550781 Z M 112.953125 162.644531 "/>
</svg>
