<?xml version="1.0" encoding="UTF-8"?>
<svg xmlns="http://www.w3.org/2000/svg" xmlns:xlink="http://www.w3.org/1999/xlink" width="288" height="288" viewBox="0 0 288 288">
<defs>
<clipPath id="clip-0">
<path clip-rule="nonzero" d="M 59.039062 59.039062 L 257.757812 59.039062 L 257.757812 214.558594 L 59.039062 214.558594 Z M 59.039062 59.039062 "/>
</clipPath>
</defs>
<rect x="-28.8" y="-28.8" width="345.6" height="345.6" fill="rgb(100%, 100%, 100%)" fill-opacity="1"/>
<g clip-path="url(#clip-0)">
<path fill-rule="nonzero" fill="rgb(100%, 100%, 100%)" fill-opacity="1" stroke-width="0.75" stroke-linecap="round" stroke-linejoin="round" stroke="rgb(100%, 100%, 100%)" stroke-opacity="1" stroke-miterlimit="10" d="M 59.039062 214.558594 L 257.757812 214.558594 L 257.757812 59.039062 L 59.039062 59.039062 Z M 59.039062 214.558594 "/>
</g>
<path fill="none" stroke-width="0.75" stroke-linecap="round" stroke-linejoin="round" stroke="rgb(0%, 0%, 0%)" stroke-opacity="1" stroke-miterlimit="10" d="M 75.917969 167.40625 L 77.574219 167.503906 L 78.253906 166.015625 L 79.449219 165.976562 L 79.511719 165.972656 L 80.570312 167.121094 L 81.769531 167.328125 L 82.425781 165.933594 L 82.972656 165.296875 L 83.207031 165.023438 L 82.347656 163.683594 L 83.40625 162.707031 L 83.429688 161.960938 L 83.429688 161.890625 L 83.621094 160.457031 L 84.253906 159.351562 L 84.65625 158.046875 L 84.753906 157.722656 L 84.148438 157.265625 L 81.632812 158.917969 L 80.558594 159.148438 L 77.382812 158.433594 L 74.617188 157.328125 L 74.3125 156.519531 L 73.863281 155.855469 L 71.535156 155.226562 L 68.628906 154.800781 L 67.707031 154.800781 L 68.066406 154.414062 L 68.410156 153.753906 L 68.191406 153.226562 L 67.511719 152.683594 L 67.136719 152.105469 L 67.027344 151.542969 L 66.820312 151.082031 L 66.695312 150.652344 L 66.480469 150.3125 L 68.375 147.773438 L 68.765625 146.199219 L 67.105469 145.277344 L 66.398438 145.003906 L 66.976562 144.800781 L 69.339844 144.96875 L 70.839844 144.449219 L 71.625 143.933594 L 73.71875 144.417969 L 76.796875 145.398438 L 78.25 146.0625 L 78.847656 146.574219 L 79.179688 147.007812 L 78.996094 147.742188 L 79.699219 148.03125 L 81.144531 148.140625 L 82.109375 148.367188 L 81.773438 149.339844 L 81.707031 150.144531 L 83.046875 150.03125 L 84.722656 149.417969 L 86.03125 148.3125 L 86.839844 147.246094 L 87.453125 144.652344 L 87.664062 144.433594 L 88.671875 144.636719 L 92.757812 144.523438 L 94.683594 145.007812 L 97.738281 145.089844 L 97.679688 145.496094 L 98.222656 146.128906 L 99.425781 146.941406 L 99.460938 146.835938 L 100.558594 146.3125 L 100.613281 146.328125 L 101.953125 146.730469 L 101.957031 146.730469 L 103.738281 145.5625 L 106.632812 145.210938 L 108.835938 144.699219 L 108.742188 144.296875 L 108.605469 143.695312 L 107.222656 142.613281 L 107.207031 142.558594 L 106.5625 140.625 L 107.207031 139.578125 L 108.898438 138.46875 L 109.632812 137.085938 L 110.972656 137.511719 L 111.773438 137.320312 L 112.515625 136.632812 L 111.71875 135.34375 L 112.015625 134.640625 L 112.101562 134.4375 L 113.242188 134.117188 L 114.742188 135.234375 L 116.703125 134.824219 L 116.945312 135.042969 L 117.679688 135.703125 L 118.972656 135.800781 L 119.378906 134.660156 L 120.707031 134.011719 L 122.214844 134.136719 L 123.089844 133.804688 L 123.789062 133.539062 L 125.804688 134.429688 L 126.449219 134.789062 L 127.230469 135.226562 L 127.582031 135.425781 L 129.328125 136.058594 L 130.316406 136.890625 L 131.058594 137.855469 L 132.167969 136.398438 L 132.511719 135.238281 L 133.273438 134.152344 L 134.03125 134.003906 L 135.191406 133.777344 L 136.394531 132.90625 L 137.84375 132.292969 L 137.90625 132.265625 L 138.625 133.253906 L 139.964844 134.808594 L 141.449219 135.375 L 141.71875 135.484375 L 142.449219 135.777344 L 142.765625 134.617188 L 141.574219 133.535156 L 141.582031 132.894531 L 142.832031 131.785156 L 144.765625 130.898438 L 146.449219 130.320312 L 146.660156 130.085938 L 146.671875 130.078125 L 147.746094 129.164062 L 148.464844 128.90625 L 149.277344 128.613281 L 149.816406 129.257812 L 150.410156 129.121094 L 152.148438 128.875 L 154.648438 128.273438 L 155.851562 127.652344 L 156.65625 126.980469 L 157.832031 123.484375 L 158.105469 123.335938 L 158.453125 123.128906 L 162.832031 124.332031 L 163.226562 124.132812 L 163.964844 123.9375 L 165.195312 123.140625 L 165.234375 123.011719 L 165.53125 122.078125 L 165.695312 121.910156 L 165.671875 120.988281 L 165.800781 119.742188 L 166.074219 119.347656 L 166.734375 119.492188 L 168.621094 120.140625 L 168.789062 120.222656 L 168.953125 119.972656 L 169.910156 119.496094 L 169.914062 119.492188 L 170.316406 118.953125 L 169.949219 117.988281 L 169.839844 117.699219 L 169.78125 116.226562 L 169.546875 114.925781 L 170.667969 114.378906 L 172.050781 114.429688 L 172.246094 114.40625 L 173.574219 114.253906 L 174.429688 114.703125 L 175.285156 115.308594 L 175.621094 115.546875 L 176.5625 115.355469 L 178.300781 114.246094 L 179.484375 113.835938 L 180.84375 113.367188 L 183.296875 113.074219 L 184.320312 113.171875 L 184.542969 111.617188 L 184.648438 111.414062 L 184.933594 110.863281 L 183.910156 110.5 L 183.125 110.101562 L 182.8125 109.945312 L 183.859375 108.957031 L 183.46875 108.011719 L 182.816406 107.28125 L 182.363281 106.777344 L 183.210938 106.160156 L 184.152344 105.503906 L 185.761719 104.5 L 186.617188 104.851562 L 187.46875 105.675781 L 188.753906 106.152344 L 189.082031 106.277344 L 190.40625 105.648438 L 191.4375 105.59375 L 191.605469 105.582031 L 191.734375 105.574219 L 192.03125 105.234375 L 192.46875 105.113281 L 192.859375 105.289062 L 193.144531 106.019531 L 193.890625 106.921875 L 195.617188 107.375 L 195.742188 107.539062 L 196.296875 108.28125 L 196.507812 109.09375 L 197.8125 110.902344 L 197.804688 111.042969 L 197.785156 111.8125 L 197.949219 112.121094 L 198.257812 112.703125 L 200.066406 113.09375 L 201.980469 113.523438 L 202.003906 113.527344 L 203.695312 113.148438 L 204.863281 113.449219 L 205.425781 113.625 L 206.640625 114.007812 L 207.058594 114.859375 L 208.230469 115.351562 L 208.496094 116.253906 L 210.035156 116.742188 L 210.648438 116.933594 L 211.402344 116.648438 L 211.496094 116.613281 L 211.871094 115.742188 L 214.042969 115.195312 L 216.203125 115.984375 L 217.691406 116.175781 L 218.988281 117.109375 L 219.777344 117.675781 L 220.292969 117.339844 L 220.871094 116.96875 L 222.421875 117.167969 L 223.4375 116.6875 L 223.824219 115.929688 L 225.449219 115.046875 L 225.730469 114.839844 L 226.160156 114.523438 L 227.753906 114.203125 L 229.007812 113.894531 L 229.167969 114.246094 L 229.425781 114.804688 L 229.460938 115.773438 L 229.886719 117.554688 L 230.8125 118.324219 L 231.078125 118.546875 L 232.824219 118.679688 L 233.964844 119.699219 L 234.234375 119.886719 L 234.804688 120.285156 L 236.195312 120.421875 L 237.367188 120.636719 L 238.402344 122.328125 L 238.980469 122.78125 L 238.878906 122.992188 L 238.753906 123.761719 L 237.851562 124.734375 L 236.878906 126.007812 L 236.941406 127.128906 L 239.433594 131.015625 L 241.644531 133.386719 L 242.066406 134.289062 L 243.492188 134.984375 L 242.136719 135.863281 L 241.875 137.164062 L 241.480469 137.425781 L 242.058594 137.988281 L 242.214844 138.386719 L 242.785156 139.847656 L 244.410156 140.652344 L 246.375 142.070312 L 248.167969 143.308594 L 250.398438 143.472656 L 244.976562 147.460938 L 242.476562 149.300781 L 242.359375 149.394531 L 241.410156 150.15625 L 239.230469 150.679688 L 236.800781 151.726562 L 236.695312 151.769531 L 236.53125 151.863281 L 232.792969 153.929688 L 232.886719 155.257812 L 232.222656 156.089844 L 230.714844 156.507812 L 229.472656 157.320312 L 229.566406 158.632812 L 229.132812 159.222656 L 228.863281 159.589844 L 226.140625 160.453125 L 224.675781 160.371094 L 223.769531 161.71875 L 223.265625 163.027344 L 220.941406 163.429688 L 217.464844 164.425781 L 216.292969 164.929688 L 215.726562 164.929688 L 214.1875 164.933594 L 212.15625 165.726562 L 210.742188 166.550781 L 210.386719 167 L 205.65625 166.902344 L 204.8125 166.875 L 203.492188 166.828125 L 203.484375 166.828125 L 197.925781 166.761719 L 197.921875 166.761719 L 197.132812 166.75 L 191.589844 166.652344 L 188.039062 166.5625 L 187.957031 166.628906 L 186.179688 167.386719 L 184.246094 167.96875 L 183.785156 168.464844 L 183.148438 168.746094 L 182.074219 168.375 L 181.203125 168.394531 L 180.132812 168.144531 L 176.585938 167.871094 L 172.691406 167.421875 L 170.835938 166.988281 L 168.722656 166.648438 L 166.460938 166.371094 L 164.429688 166.304688 L 163.410156 166.175781 L 162.609375 166.054688 L 161.65625 166.03125 L 159.671875 165.984375 L 157.308594 165.859375 L 154.839844 165.730469 L 151.96875 165.597656 L 147.183594 165.375 L 144.945312 165.269531 L 143.9375 165.628906 L 143.6875 165.558594 L 142.65625 165.277344 L 139.011719 165.363281 L 137.855469 165.390625 L 132.097656 165.460938 L 130.839844 165.476562 L 125.707031 165.539062 L 125.433594 165.542969 L 118.617188 165.628906 L 117.386719 165.65625 L 113.691406 165.746094 L 113.777344 164.992188 L 110.007812 164.660156 L 108.644531 164.632812 L 108.988281 165.8125 L 109.496094 167.765625 L 109.109375 169.046875 L 109.042969 169.046875 L 107.324219 169.085938 L 98.921875 169.015625 L 98.390625 169.011719 L 98.285156 169.011719 L 91.308594 169 L 90.894531 169 L 87.878906 168.992188 L 82.140625 168.910156 L 79.03125 169.015625 L 77.359375 169.074219 L 74.523438 169.101562 L 73.777344 168.105469 L 74.40625 167.199219 Z M 75.917969 167.40625 "/>
</svg>
