<?xml version="1.0" encoding="UTF-8"?>
<svg xmlns="http://www.w3.org/2000/svg" xmlns:xlink="http://www.w3.org/1999/xlink" width="288" height="288" viewBox="0 0 288 288">
<rect x="-28.8" y="-28.8" width="345.6" height="345.6" fill="rgb(100%, 100%, 100%)" fill-opacity="1"/>
<rect x="-28.8" y="-28.8" width="345.6" height="345.6" fill="rgb(100%, 100%, 100%)" fill-opacity="1"/>
<path fill="none" stroke-width="0.75" stroke-linecap="round" stroke-linejoin="round" stroke="rgb(100%, 100%, 100%)" stroke-opacity="1" stroke-miterlimit="10" d="M 0 288 L 288 288 L 288 0 L 0 0 Z M 0 288 "/>
<path fill="none" stroke-width="1.5" stroke-linecap="round" stroke-linejoin="round" stroke="rgb(0%, 0%, 0%)" stroke-opacity="1" stroke-miterlimit="10" d="M 40.375 149.589844 L 41.679688 148.011719 L 44.933594 148.644531 L 46.847656 150.34375 L 47.835938 153.085938 L 49.628906 153.25 L 51.792969 148.660156 L 51.601562 148.171875 L 52.28125 146.484375 L 51.285156 145.34375 L 53.554688 143.863281 L 54.035156 143.914062 L 59.113281 133.15625 L 63.367188 124.160156 L 75.992188 124.144531 L 76.738281 123.671875 L 80.363281 121.914062 L 80.703125 119.898438 L 80.042969 118.496094 L 77.601562 118.535156 L 78.109375 116.773438 L 77.363281 115.820312 L 77.921875 113.8125 L 79.992188 111.933594 L 81.367188 109.957031 L 78.734375 107.917969 L 80.550781 105.050781 L 81.722656 103.253906 L 83.105469 102.527344 L 83.019531 101.042969 L 85.382812 99.640625 L 87.578125 98.546875 L 89.542969 97.304688 L 90.90625 96.425781 L 92.484375 89.640625 L 93.816406 83.925781 L 102.976562 75.511719 L 104.898438 73.78125 L 102.417969 72.191406 L 95.433594 65.148438 L 89.667969 56.308594 L 84.792969 50.625 L 81.039062 48.246094 L 80.148438 46.984375 L 91.140625 47.097656 L 101.535156 47.207031 L 101.605469 34.558594 L 101.667969 23.332031 L 101.730469 10.667969 L 120.578125 10.6875 L 143.082031 10.710938 L 166.425781 10.734375 L 184.761719 10.757812 L 195.546875 10.769531 L 195.050781 26.472656 L 194.484375 44.691406 L 194.0625 58.097656 L 194.058594 58.183594 L 196.417969 59.542969 L 198.773438 60.550781 L 202.011719 64.148438 L 207.113281 66.613281 L 207.113281 79.257812 L 207.183594 88.308594 L 207.507812 103.496094 L 207.59375 114.898438 L 207.617188 119.660156 L 209.132812 120.625 L 206.398438 122.933594 L 208.4375 124.808594 L 206.402344 127.109375 L 207.519531 129.515625 L 206.441406 132.007812 L 206.417969 132.058594 L 211.183594 131.988281 L 212.984375 134.300781 L 215.222656 134.757812 L 220.195312 136 L 224.277344 135.558594 L 225.90625 137.113281 L 226.226562 140.472656 L 223.175781 140.699219 L 222.792969 142.867188 L 223.527344 143.808594 L 224.191406 144.152344 L 227.636719 138.566406 L 225.824219 135.203125 L 224.46875 133.484375 L 224.675781 131.988281 L 243.441406 146.449219 L 241.230469 148.679688 L 236.449219 153.839844 L 234.667969 155.65625 L 237.183594 156.347656 L 239.375 156.757812 L 241.882812 159.195312 L 242.992188 161.300781 L 243.4375 163.1875 L 245.933594 167.519531 L 248.496094 169.292969 L 248.011719 171.914062 L 250.222656 173.453125 L 246.308594 175.839844 L 243.882812 177.113281 L 241.660156 178.851562 L 238.933594 180.988281 L 235.625 182.199219 L 232.59375 184.042969 L 228.75 182.808594 L 227.171875 183.878906 L 224.628906 183.992188 L 222.410156 186.144531 L 220.902344 188.394531 L 221.824219 190.003906 L 217.894531 192.332031 L 215.066406 189.507812 L 214.128906 187.621094 L 211.378906 188.78125 L 206.917969 189.132812 L 204.640625 190.597656 L 203.761719 192.804688 L 201.476562 194.042969 L 199.582031 193.207031 L 199.207031 193.410156 L 197.40625 194.386719 L 195.605469 194.230469 L 194.0625 196.699219 L 193.253906 200.726562 L 192.417969 202.992188 L 193.964844 208.070312 L 195.507812 215.917969 L 195.015625 220.015625 L 189.117188 225.074219 L 186.414062 229.625 L 185.222656 232.566406 L 184.160156 231.804688 L 182.335938 231.574219 L 178.125 232.714844 L 176.089844 232.96875 L 174.390625 234.273438 L 174.21875 237.105469 L 175.34375 241.699219 L 175.746094 244.070312 L 174.5625 245.160156 L 169.375 247.921875 L 167.332031 250.648438 L 165.371094 254.886719 L 163.09375 256.660156 L 160.71875 256.332031 L 159.039062 256.953125 L 155.445312 260.132812 L 150.035156 266.285156 L 147.128906 270.851562 L 147.066406 274.265625 L 147.617188 277.332031 L 127.914062 266.492188 L 121.351562 264.640625 L 93.679688 264.863281 L 81.808594 260.605469 L 68.277344 252.386719 L 63.972656 248.875 L 63.628906 249.421875 L 64.046875 251.515625 L 64.109375 251.824219 L 63.0625 254.730469 L 61.710938 256.171875 L 59.480469 259.078125 L 57.539062 259.898438 L 54.839844 258.890625 L 51.597656 256.734375 L 51.160156 256.445312 L 51.328125 253.921875 L 51.328125 253.917969 L 51.929688 252.054688 L 48.875 249.421875 L 46.238281 246.707031 L 43.140625 244.15625 L 43.960938 241.519531 L 44.347656 239.296875 L 44.660156 237.527344 L 44.195312 236.019531 L 43.738281 234.535156 L 43.578125 232.351562 L 43.367188 229.523438 L 37.777344 224.058594 L 39.117188 222.375 L 40.246094 218.492188 L 41.636719 214.488281 L 40.789062 209.867188 L 40.28125 206.125 L 41.855469 200.675781 L 41.808594 199.402344 L 41.808594 199.378906 L 41.757812 198.546875 L 41.640625 196.644531 L 41.335938 191.785156 L 41.15625 188.875 L 40.65625 180.707031 L 39.359375 178.613281 L 39.363281 176.167969 L 40.125 173.550781 L 39.367188 164.613281 L 38.027344 149.898438 Z M 40.375 149.589844 "/>
</svg>
