<?xml version="1.0" encoding="UTF-8"?>
<svg xmlns="http://www.w3.org/2000/svg" xmlns:xlink="http://www.w3.org/1999/xlink" width="288" height="288" viewBox="0 0 288 288">
<rect x="-28.8" y="-28.8" width="345.6" height="345.6" fill="rgb(100%, 100%, 100%)" fill-opacity="1"/>
<rect x="-28.8" y="-28.8" width="345.6" height="345.6" fill="rgb(100%, 100%, 100%)" fill-opacity="1"/>
<path fill="none" stroke-width="0.75" stroke-linecap="round" stroke-linejoin="round" stroke="rgb(100%, 100%, 100%)" stroke-opacity="1" stroke-miterlimit="10" d="M 0 288 L 288 288 L 288 0 L 0 0 Z M 0 288 "/>
<path fill="none" stroke-width="1.5" stroke-linecap="round" stroke-linejoin="round" stroke="rgb(0%, 0%, 0%)" stroke-opacity="1" stroke-miterlimit="10" d="M 24.457031 188.355469 L 26.863281 188.496094 L 27.847656 186.34375 L 29.578125 186.285156 L 29.667969 186.28125 L 31.207031 187.945312 L 32.945312 188.242188 L 33.890625 186.222656 L 34.683594 185.300781 L 35.023438 184.902344 L 33.777344 182.960938 L 35.3125 181.550781 L 35.34375 180.460938 L 35.347656 180.359375 L 35.625 178.285156 L 36.539062 176.683594 L 37.125 174.792969 L 37.269531 174.324219 L 36.390625 173.664062 L 32.746094 176.054688 L 31.1875 176.386719 L 26.585938 175.351562 L 22.574219 173.75 L 22.132812 172.578125 L 21.484375 171.617188 L 18.105469 170.707031 L 13.894531 170.085938 L 12.558594 170.089844 L 13.078125 169.523438 L 13.578125 168.570312 L 13.265625 167.808594 L 12.277344 167.019531 L 11.734375 166.179688 L 11.578125 165.363281 L 11.277344 164.699219 L 11.097656 164.074219 L 10.785156 163.582031 L 13.53125 159.90625 L 14.097656 157.621094 L 11.6875 156.285156 L 10.667969 155.890625 L 11.503906 155.59375 L 14.925781 155.839844 L 17.101562 155.085938 L 18.238281 154.335938 L 21.277344 155.039062 L 25.734375 156.464844 L 27.839844 157.425781 L 28.707031 158.167969 L 29.191406 158.792969 L 28.921875 159.859375 L 29.941406 160.277344 L 32.039062 160.4375 L 33.433594 160.765625 L 32.945312 162.171875 L 32.851562 163.339844 L 34.792969 163.175781 L 37.222656 162.285156 L 39.121094 160.6875 L 40.289062 159.140625 L 41.179688 155.378906 L 41.488281 155.0625 L 42.945312 155.359375 L 48.867188 155.195312 L 51.660156 155.894531 L 56.085938 156.011719 L 56.003906 156.601562 L 56.789062 157.519531 L 58.53125 158.699219 L 58.578125 158.546875 L 60.171875 157.785156 L 60.253906 157.808594 L 62.195312 158.390625 L 64.78125 156.695312 L 68.976562 156.1875 L 72.167969 155.445312 L 72.035156 154.867188 L 71.832031 153.992188 L 69.832031 152.425781 L 69.804688 152.34375 L 68.875 149.542969 L 69.808594 148.027344 L 72.257812 146.417969 L 73.320312 144.414062 L 75.265625 145.027344 L 76.421875 144.75 L 77.503906 143.757812 L 76.347656 141.890625 L 76.777344 140.867188 L 76.898438 140.578125 L 78.554688 140.113281 L 80.726562 141.730469 L 83.566406 141.136719 L 83.921875 141.453125 L 84.980469 142.410156 L 86.859375 142.550781 L 87.445312 140.898438 L 89.371094 139.957031 L 91.558594 140.140625 L 92.824219 139.660156 L 93.839844 139.273438 L 96.761719 140.5625 L 97.695312 141.085938 L 98.828125 141.722656 L 99.335938 142.007812 L 101.867188 142.925781 L 103.300781 144.128906 L 104.375 145.53125 L 105.984375 143.417969 L 106.480469 141.734375 L 107.582031 140.160156 L 108.679688 139.949219 L 110.363281 139.621094 L 112.109375 138.355469 L 114.207031 137.464844 L 114.296875 137.425781 L 115.335938 138.859375 L 117.28125 141.113281 L 119.433594 141.9375 L 119.824219 142.09375 L 120.886719 142.519531 L 121.34375 140.832031 L 119.613281 139.269531 L 119.625 138.34375 L 121.4375 136.730469 L 124.242188 135.449219 L 126.679688 134.613281 L 126.984375 134.269531 L 127 134.257812 L 128.5625 132.9375 L 129.597656 132.5625 L 130.78125 132.132812 L 131.558594 133.066406 L 132.421875 132.871094 L 134.9375 132.515625 L 138.5625 131.640625 L 140.304688 130.742188 L 141.476562 129.765625 L 143.175781 124.699219 L 143.574219 124.484375 L 144.074219 124.1875 L 150.425781 125.933594 L 150.996094 125.644531 L 152.066406 125.359375 L 153.84375 124.207031 L 153.90625 124.019531 L 154.335938 122.664062 L 154.574219 122.421875 L 154.539062 121.085938 L 154.726562 119.28125 L 155.121094 118.703125 L 156.078125 118.914062 L 158.8125 119.855469 L 159.058594 119.976562 L 159.292969 119.613281 L 160.683594 118.921875 L 160.6875 118.914062 L 161.273438 118.136719 L 160.742188 116.738281 L 160.582031 116.316406 L 160.492188 114.183594 L 160.152344 112.296875 L 161.78125 111.507812 L 163.785156 111.582031 L 164.066406 111.546875 L 165.992188 111.324219 L 167.230469 111.976562 L 168.472656 112.851562 L 168.960938 113.195312 L 170.320312 112.921875 L 172.84375 111.3125 L 174.554688 110.71875 L 176.527344 110.039062 L 180.082031 109.613281 L 181.566406 109.757812 L 181.890625 107.503906 L 182.042969 107.210938 L 182.457031 106.40625 L 180.972656 105.882812 L 179.832031 105.308594 L 179.378906 105.078125 L 180.898438 103.648438 L 180.332031 102.277344 L 179.386719 101.222656 L 178.726562 100.488281 L 179.957031 99.59375 L 181.320312 98.644531 L 183.65625 97.1875 L 184.890625 97.699219 L 186.132812 98.894531 L 187.988281 99.585938 L 188.464844 99.761719 L 190.386719 98.855469 L 191.878906 98.773438 L 192.125 98.757812 L 192.308594 98.746094 L 192.738281 98.25 L 193.375 98.078125 L 193.941406 98.332031 L 194.355469 99.390625 L 195.433594 100.695312 L 197.9375 101.351562 L 198.117188 101.59375 L 198.925781 102.667969 L 199.230469 103.847656 L 201.117188 106.46875 L 201.109375 106.667969 L 201.078125 107.785156 L 201.316406 108.234375 L 201.765625 109.074219 L 204.382812 109.640625 L 207.160156 110.265625 L 207.191406 110.269531 L 209.644531 109.722656 L 211.339844 110.160156 L 212.152344 110.414062 L 213.910156 110.96875 L 214.519531 112.203125 L 216.21875 112.914062 L 216.601562 114.226562 L 218.835938 114.929688 L 219.722656 115.207031 L 220.816406 114.796875 L 220.953125 114.746094 L 221.492188 113.484375 L 224.644531 112.691406 L 227.773438 113.832031 L 229.929688 114.109375 L 231.808594 115.464844 L 232.953125 116.285156 L 233.703125 115.800781 L 234.535156 115.257812 L 236.785156 115.550781 L 238.257812 114.851562 L 238.816406 113.753906 L 241.171875 112.472656 L 241.578125 112.175781 L 242.199219 111.714844 L 244.511719 111.253906 L 246.328125 110.804688 L 246.5625 111.3125 L 246.9375 112.121094 L 246.988281 113.527344 L 247.605469 116.105469 L 249.328125 117.546875 L 251.863281 117.742188 L 253.515625 119.214844 L 253.90625 119.488281 L 254.730469 120.0625 L 256.746094 120.261719 L 258.445312 120.574219 L 259.949219 123.027344 L 260.78125 123.683594 L 260.636719 123.988281 L 260.453125 125.105469 L 259.144531 126.511719 L 257.738281 128.359375 L 257.828125 129.980469 L 261.441406 135.617188 L 264.644531 139.054688 L 265.253906 140.363281 L 267.320312 141.371094 L 265.359375 142.640625 L 264.976562 144.527344 L 264.40625 144.90625 L 265.246094 145.722656 L 265.46875 146.296875 L 266.296875 148.414062 L 268.652344 149.585938 L 271.5 151.636719 L 274.097656 153.433594 L 277.332031 153.671875 L 269.472656 159.449219 L 265.847656 162.117188 L 265.683594 162.253906 L 264.300781 163.359375 L 261.144531 164.117188 L 257.625 165.628906 L 257.472656 165.695312 L 257.234375 165.828125 L 251.8125 168.824219 L 251.949219 170.75 L 250.992188 171.957031 L 248.800781 172.558594 L 247.003906 173.738281 L 247.136719 175.644531 L 246.511719 176.496094 L 246.117188 177.03125 L 242.175781 178.277344 L 240.054688 178.160156 L 238.738281 180.113281 L 238.007812 182.011719 L 234.640625 182.589844 L 229.601562 184.035156 L 227.902344 184.769531 L 227.078125 184.769531 L 224.851562 184.777344 L 221.910156 185.925781 L 219.859375 187.113281 L 219.34375 187.769531 L 212.488281 187.628906 L 211.261719 187.585938 L 209.347656 187.519531 L 209.339844 187.515625 L 201.28125 187.425781 L 201.277344 187.425781 L 200.132812 187.40625 L 192.101562 187.261719 L 186.957031 187.132812 L 186.835938 187.226562 L 184.257812 188.328125 L 181.457031 189.175781 L 180.789062 189.890625 L 179.871094 190.296875 L 178.3125 189.761719 L 177.046875 189.792969 L 175.496094 189.425781 L 170.359375 189.03125 L 164.710938 188.375 L 162.019531 187.75 L 158.960938 187.257812 L 155.679688 186.855469 L 152.738281 186.757812 L 151.257812 186.574219 L 150.101562 186.398438 L 148.714844 186.363281 L 145.84375 186.296875 L 142.414062 186.117188 L 138.839844 185.929688 L 134.675781 185.734375 L 127.742188 185.414062 L 124.503906 185.261719 L 123.039062 185.78125 L 122.675781 185.679688 L 121.183594 185.273438 L 115.898438 185.394531 L 114.226562 185.433594 L 105.882812 185.535156 L 104.058594 185.558594 L 96.621094 185.652344 L 96.222656 185.65625 L 86.34375 185.777344 L 84.558594 185.820312 L 79.207031 185.949219 L 79.328125 184.859375 L 73.867188 184.378906 L 71.890625 184.339844 L 72.386719 186.050781 L 73.125 188.878906 L 72.566406 190.734375 L 72.46875 190.738281 L 69.976562 190.789062 L 57.796875 190.691406 L 57.027344 190.683594 L 56.878906 190.683594 L 46.765625 190.667969 L 46.414062 190.667969 L 46.164062 190.664062 L 41.792969 190.65625 L 33.480469 190.535156 L 28.976562 190.6875 L 26.546875 190.773438 L 22.441406 190.8125 L 21.355469 189.367188 L 22.265625 188.058594 Z M 24.457031 188.355469 "/>
</svg>
