<?xml version="1.0" encoding="UTF-8"?>
<svg xmlns="http://www.w3.org/2000/svg" xmlns:xlink="http://www.w3.org/1999/xlink" width="288" height="288" viewBox="0 0 288 288">
<defs>
<clipPath id="clip-0">
<path clip-rule="nonzero" d="M 59.039062 59.039062 L 257.757812 59.039062 L 257.757812 214.558594 L 59.039062 214.558594 Z M 59.039062 59.039062 "/>
</clipPath>
</defs>
<rect x="-28.8" y="-28.8" width="345.6" height="345.6" fill="rgb(100%, 100%, 100%)" fill-opacity="1"/>
<g clip-path="url(#clip-0)">
<path fill-rule="nonzero" fill="rgb(100%, 100%, 100%)" fill-opacity="1" stroke-width="0.75" stroke-linecap="round" stroke-linejoin="round" stroke="rgb(100%, 100%, 100%)" stroke-opacity="1" stroke-miterlimit="10" d="M 59.039062 214.558594 L 257.757812 214.558594 L 257.757812 59.039062 L 59.039062 59.039062 Z M 59.039062 214.558594 "/>
</g>
<path fill="none" stroke-width="0.75" stroke-linecap="round" stroke-linejoin="round" stroke="rgb(0%, 0%, 0%)" stroke-opacity="1" stroke-miterlimit="10" d="M 67.722656 111.882812 L 68.859375 110.480469 L 68.785156 109.648438 L 68.75 109.261719 L 69.921875 108.246094 L 69.355469 107.746094 L 70.136719 106.988281 L 69.601562 106.03125 L 71.113281 105.269531 L 71.285156 104.855469 L 71.648438 103.996094 L 71.09375 103.183594 L 70.621094 101.050781 L 69.304688 101.054688 L 68.429688 100.332031 L 68.257812 100.050781 L 67.699219 99.128906 L 69.070312 98.886719 L 69.242188 97.59375 L 69.320312 96.539062 L 67.261719 95.214844 L 67.535156 94.246094 L 67.128906 93.402344 L 71.253906 93.402344 L 78.464844 93.40625 L 82.578125 93.410156 L 82.632812 93.410156 L 82.898438 93.246094 L 83.960938 92.773438 L 85.066406 93.410156 L 88.019531 93.414062 L 88.769531 93.414062 L 98.609375 93.40625 L 99.523438 93.40625 L 101.410156 93.402344 L 106.300781 93.390625 L 114.804688 93.398438 L 116.503906 93.398438 L 128.15625 93.402344 L 129.636719 93.402344 L 133.671875 93.410156 L 141.519531 93.425781 L 172.667969 93.425781 L 181.640625 93.40625 L 181.644531 93.40625 L 184.59375 93.402344 L 192.238281 93.394531 L 211.703125 93.394531 L 219.441406 93.398438 L 219.027344 94.753906 L 219.640625 95.617188 L 219.960938 96.066406 L 219.734375 96.867188 L 221.222656 97.933594 L 222.566406 98.511719 L 222.949219 98.957031 L 224.515625 99.261719 L 225.644531 100.164062 L 226.433594 100.386719 L 230.554688 99.546875 L 232.386719 101.410156 L 235.246094 104.023438 L 240.113281 105.371094 L 244.453125 106.132812 L 245.816406 106.25 L 250.398438 106.203125 L 249.734375 112.769531 L 247.003906 115.832031 L 242.878906 114.804688 L 237.617188 115.660156 L 234.945312 119.003906 L 235.710938 120.71875 L 235.601562 121.734375 L 237.195312 122.414062 L 237.910156 122.65625 L 239.261719 123.648438 L 240.199219 124.246094 L 241.273438 124.929688 L 242.101562 125.960938 L 241.710938 127.121094 L 242.566406 128.207031 L 244.335938 129.210938 L 244.988281 129.476562 L 246.292969 130.015625 L 248.035156 130.722656 L 249.347656 131.917969 L 249.28125 133.757812 L 249.386719 133.964844 L 249.929688 135 L 249.46875 136.621094 L 249.429688 136.855469 L 249.234375 138.144531 L 248.773438 139.242188 L 248.796875 140.15625 L 247.046875 140.976562 L 246.871094 141.0625 L 245.113281 142.117188 L 245.082031 142.5 L 245 143.449219 L 244.378906 144.300781 L 244.296875 146.152344 L 243.601562 146.6875 L 242.136719 147.160156 L 240.847656 148.269531 L 239.382812 148.382812 L 237.742188 148.472656 L 236.402344 149.355469 L 234.0625 150.210938 L 231.652344 150.261719 L 230.65625 150.320312 L 233.34375 152.957031 L 234.242188 155.148438 L 230.414062 154.65625 L 229.074219 154.804688 L 228.21875 155.5 L 226.441406 155.359375 L 224.242188 155.363281 L 222.382812 156.007812 L 223.296875 157.003906 L 224.429688 158.371094 L 225.664062 158.472656 L 226.8125 159.929688 L 226.953125 161.019531 L 226.964844 161.101562 L 227.152344 162.535156 L 226.957031 164.390625 L 226.015625 165.582031 L 224.339844 166.828125 L 222.972656 168.171875 L 223.007812 169.351562 L 222.328125 170.90625 L 222.257812 171.636719 L 222.183594 172.402344 L 220.355469 173.390625 L 220.3125 173.414062 L 218.589844 173.382812 L 215.988281 174.09375 L 215.011719 174.976562 L 214.4375 176.351562 L 215.191406 177.039062 L 214.851562 178.710938 L 215.046875 180.230469 L 213.730469 180.828125 L 211.503906 180.148438 L 210.910156 179.265625 L 209.644531 178.457031 L 208.382812 177.339844 L 208.082031 176.222656 L 206.613281 175.882812 L 206.203125 175.082031 L 205.320312 174.375 L 204.964844 174.089844 L 199.015625 174.304688 L 198.910156 174.308594 L 192.210938 174.464844 L 187.371094 174.558594 L 184.457031 174.613281 L 179.242188 174.738281 L 177.863281 174.773438 L 177.074219 174.777344 L 170.648438 174.832031 L 166.242188 174.941406 L 165.152344 174.96875 L 159.390625 175.035156 L 156.027344 175.570312 L 155.183594 175.054688 L 153.230469 175.0625 L 152.085938 175.066406 L 147.078125 175.121094 L 145.191406 175.144531 L 140.253906 175.222656 L 138.113281 175.253906 L 134.117188 175.28125 L 131.894531 175.292969 L 127.351562 175.308594 L 125.578125 175.316406 L 122.800781 175.289062 L 117.480469 175.230469 L 114.796875 175.199219 L 110.433594 175.140625 L 102.886719 175.054688 L 101.800781 175.042969 L 97.292969 174.988281 L 90.714844 174.902344 L 91.195312 174.382812 L 90.269531 172.980469 L 89.933594 172.949219 L 90.003906 172.84375 L 88.441406 172.121094 L 87.230469 170.589844 L 88.777344 169.257812 L 88.773438 169.234375 L 88.574219 167.476562 L 89.441406 166.304688 L 89.210938 165.984375 L 88.671875 165.222656 L 88.941406 163.867188 L 87.878906 162.589844 L 87.910156 161.582031 L 87.9375 160.710938 L 87.796875 159.542969 L 87.992188 158.535156 L 88.136719 157.777344 L 86.636719 157.851562 L 86.632812 157.652344 L 86.589844 156.335938 L 87.191406 155.195312 L 86.183594 153.953125 L 86.152344 153.453125 L 83.320312 152.628906 L 80.5 151.351562 L 78.109375 149.667969 L 73.742188 145.519531 L 75.953125 145.105469 L 76.621094 144.261719 L 78.824219 141.988281 L 79.074219 140.871094 L 78.84375 140.238281 L 77.367188 139.144531 L 76.351562 136.765625 L 77.117188 134.542969 L 77.152344 133.960938 L 76.359375 133.570312 L 76.472656 131.714844 L 74.238281 130.230469 L 74.539062 128.886719 L 74.5625 128.773438 L 74.570312 127.496094 L 74.121094 127.046875 L 72.535156 125.472656 L 72.425781 123.429688 L 73.289062 122.019531 L 71.472656 121.214844 L 70.566406 120.6875 L 70.128906 120.476562 L 70.582031 119.398438 L 70.496094 119.253906 L 69.171875 117.039062 L 67.335938 115.742188 L 66.398438 114.707031 L 66.480469 113.21875 Z M 67.722656 111.882812 "/>
</svg>
