<?xml version="1.0" encoding="UTF-8"?>
<svg xmlns="http://www.w3.org/2000/svg" xmlns:xlink="http://www.w3.org/1999/xlink" width="288" height="288" viewBox="0 0 288 288">
<rect x="-28.8" y="-28.8" width="345.6" height="345.6" fill="rgb(100%, 100%, 100%)" fill-opacity="1"/>
<rect x="-28.8" y="-28.8" width="345.6" height="345.6" fill="rgb(100%, 100%, 100%)" fill-opacity="1"/>
<path fill="none" stroke-width="0.75" stroke-linecap="round" stroke-linejoin="round" stroke="rgb(100%, 100%, 100%)" stroke-opacity="1" stroke-miterlimit="10" d="M 0 288 L 288 288 L 288 0 L 0 0 Z M 0 288 "/>
<path fill="none" stroke-width="1.5" stroke-linecap="round" stroke-linejoin="round" stroke="rgb(0%, 0%, 0%)" stroke-opacity="1" stroke-miterlimit="10" d="M 60.632812 91.867188 L 60.757812 90.527344 L 60.597656 88.773438 L 59.898438 87.820312 L 61.402344 87.054688 L 61.621094 85.457031 L 60.820312 82.996094 L 58.632812 81.617188 L 59.78125 80.6875 L 62.070312 82.066406 L 64.039062 81.75 L 66.210938 81.238281 L 67.265625 81.832031 L 68.792969 81.15625 L 70.789062 80.855469 L 71.820312 80.105469 L 73.636719 79.859375 L 75.027344 80.835938 L 74.941406 82.007812 L 76.53125 82.878906 L 76.734375 82.882812 L 78.96875 82.917969 L 80.777344 82.269531 L 82.011719 81.832031 L 83.359375 81.921875 L 86.34375 83.191406 L 87.457031 83.90625 L 88.046875 84.101562 L 94.414062 82.605469 L 109.941406 80.8125 L 116.429688 80.421875 L 122.785156 80.371094 L 128.445312 81.785156 L 134.433594 83.53125 L 135.511719 84.589844 L 132.269531 83.929688 L 127.546875 82.359375 L 125.800781 82.292969 L 129.832031 87.078125 L 132.039062 88.777344 L 136.496094 90.050781 L 140.234375 90.480469 L 151.75 89.707031 L 155.839844 88.699219 L 157.023438 88.191406 L 158.085938 88.441406 L 165.574219 88.714844 L 173.160156 88.988281 L 176.617188 89.070312 L 177.316406 88.484375 L 178.09375 88.339844 L 180.332031 88.8125 L 181.820312 88.640625 L 183.628906 88.433594 L 186.496094 87.980469 L 190 88.15625 L 191.726562 87.519531 L 193.710938 86.5 L 193.714844 86.496094 L 201.980469 86.472656 L 203.878906 86.472656 L 210.265625 86.480469 L 220.179688 86.488281 L 220.695312 86.488281 L 227.636719 86.496094 L 230.695312 86.523438 L 233.996094 86.554688 L 237.363281 86.585938 L 249.070312 86.609375 L 249.847656 87.519531 L 250.570312 88.789062 L 252.191406 90.179688 L 252.503906 90.449219 L 253.875 90.796875 L 255.769531 91.894531 L 257.703125 91.980469 L 259.234375 93.078125 L 259.433594 94.390625 L 259.722656 94.664062 L 259.902344 94.757812 L 259.988281 94.914062 L 261.164062 96.023438 L 260.660156 96.613281 L 260.6875 97.636719 L 260.546875 98.621094 L 260.734375 99.023438 L 263.785156 106.199219 L 268.875 113.167969 L 270.742188 116.5625 L 271.488281 118.375 L 272.085938 121.007812 L 272.269531 122.859375 L 272.246094 123.90625 L 271.867188 125.34375 L 270.355469 126.195312 L 260.597656 128.632812 L 258.761719 129.398438 L 255.886719 131.304688 L 253.234375 133.273438 L 252.625 133.945312 L 252.457031 134.390625 L 253.042969 135.039062 L 256.523438 136.097656 L 260.03125 136.945312 L 261.175781 137.585938 L 263.761719 138.398438 L 264.707031 139.132812 L 265.21875 139.773438 L 265.179688 141.25 L 264.015625 143.300781 L 264.5 144.851562 L 263.316406 145.886719 L 262.339844 147.035156 L 262.203125 149.054688 L 263.957031 151.292969 L 265.390625 152.820312 L 265.945312 154.023438 L 265.355469 154.964844 L 265.539062 155.910156 L 266.816406 156.910156 L 270.859375 160.011719 L 272.851562 163.007812 L 274.125 164.175781 L 277.066406 165.695312 L 277.332031 166.320312 L 276.152344 166.894531 L 275.199219 166.96875 L 274.429688 167.121094 L 273.929688 167.65625 L 274.703125 168.230469 L 275.742188 169.074219 L 277.039062 171.460938 L 276.910156 173.417969 L 275.914062 173.917969 L 274.640625 175.082031 L 273.777344 176.148438 L 266.800781 176.890625 L 265.125 178.035156 L 261.308594 180.25 L 258.699219 181.523438 L 254.847656 183.832031 L 248.75 187.8125 L 246.503906 189.480469 L 244.859375 190.863281 L 239.925781 194.550781 L 238.410156 196.101562 L 238.707031 197.382812 L 240.292969 200.390625 L 240.628906 201.75 L 240.347656 203.011719 L 239.824219 204.132812 L 239.910156 204.632812 L 241.367188 205.449219 L 243.691406 206.730469 L 243.824219 207.164062 L 243.496094 207.71875 L 242.695312 208.140625 L 239.792969 207.695312 L 236.550781 206.824219 L 235.449219 206.929688 L 233.695312 206.730469 L 226.464844 205.054688 L 221.589844 203.742188 L 221.109375 202.890625 L 220.1875 201.660156 L 218.113281 200.628906 L 213.355469 199.738281 L 211.417969 199.042969 L 203.691406 198.652344 L 200.335938 198.636719 L 197.960938 198.925781 L 196.445312 198.894531 L 194.355469 200.714844 L 192.914062 201.242188 L 190.808594 201.296875 L 188.964844 200.972656 L 187.082031 200.015625 L 184.0625 199.511719 L 181.882812 199.753906 L 180.277344 199.546875 L 178.890625 199.496094 L 178.410156 199.6875 L 177.296875 199.660156 L 175.683594 200.117188 L 173.917969 200.765625 L 171.96875 201.257812 L 170.472656 202.320312 L 169.136719 204.398438 L 165.351562 203.464844 L 164.09375 203.871094 L 162.308594 204.140625 L 161.089844 203.863281 L 161.378906 203.144531 L 161.929688 202.335938 L 161.902344 201.207031 L 161.554688 199.964844 L 160.382812 199.558594 L 158.621094 199.410156 L 157.714844 199.164062 L 157.617188 198.753906 L 156.71875 198.226562 L 155.160156 196.894531 L 153.6875 195.238281 L 152.671875 194.746094 L 151.191406 195.535156 L 148.949219 196.429688 L 147.554688 196.738281 L 144.863281 199.320312 L 140.023438 199.40625 L 139.722656 198.199219 L 139.214844 197.042969 L 136.382812 196.753906 L 136.304688 196.074219 L 135.707031 194.375 L 130.03125 191.054688 L 129.34375 189.675781 L 129.566406 189.140625 L 129.453125 188.890625 L 128.164062 188.894531 L 127.953125 188.890625 L 121.863281 188.808594 L 117.28125 188.734375 L 110.460938 188.664062 L 105.449219 188.613281 L 105.441406 188.613281 L 99.792969 188.59375 L 91.800781 188.710938 L 85.25 188.734375 L 82.558594 188.574219 L 80.285156 188.683594 L 77.167969 188.839844 L 74.839844 188.773438 L 72.582031 188.839844 L 68.898438 188.945312 L 64.488281 188.933594 L 59.699219 188.917969 L 54.074219 188.855469 L 52.5 187.613281 L 51.332031 187.023438 L 50.335938 185.390625 L 50.082031 184.046875 L 49.476562 182.824219 L 48.746094 182.210938 L 48.757812 180.714844 L 48.355469 179.546875 L 48.101562 177.226562 L 49.066406 174.613281 L 49.015625 173.101562 L 48.6875 171.523438 L 47.683594 171.054688 L 47.746094 170.6875 L 46.097656 169.515625 L 45.246094 167.4375 L 44.503906 167.417969 L 43.429688 167.066406 L 42.3125 166.304688 L 41.363281 165.464844 L 40.867188 163.769531 L 37.324219 163 L 33.789062 162.519531 L 33.542969 162.761719 L 33.6875 164.472656 L 33.5 165.386719 L 31.171875 165.953125 L 28.863281 166.003906 L 28.992188 165.722656 L 31.75 162.644531 L 32.992188 160.707031 L 34.402344 157.1875 L 32.703125 154.417969 L 32.234375 153.125 L 31.441406 152.503906 L 26.597656 151.160156 L 26.230469 150.691406 L 26.972656 148.871094 L 26.605469 148.109375 L 25.441406 147.300781 L 23.90625 145.699219 L 23.308594 144.34375 L 25.269531 142.75 L 25.75 141.582031 L 26.601562 139.980469 L 27.226562 139.105469 L 27.34375 138.867188 L 26.0625 138.246094 L 25.734375 137.371094 L 26.082031 136.117188 L 25.402344 135.1875 L 23.683594 134.585938 L 22.570312 133.789062 L 22.050781 132.800781 L 22.457031 131.246094 L 23.785156 129.132812 L 20.96875 126.597656 L 14.011719 123.640625 L 10.667969 121.578125 L 10.941406 120.40625 L 12.40625 119.34375 L 15.066406 118.390625 L 17.078125 116.703125 L 18.210938 114.703125 L 18.25 114.324219 L 18.308594 112.902344 L 15.214844 107.105469 L 14.710938 105.660156 L 14.339844 103.917969 L 14.148438 103.445312 L 20.261719 104.664062 L 22.824219 105.351562 L 22.507812 104.578125 L 21.988281 103.914062 L 22.328125 102.941406 L 22.152344 101.472656 L 16.605469 100.726562 L 12.941406 100.472656 L 12.527344 99.457031 L 12.878906 98.800781 L 13.894531 99.1875 L 17.496094 99.339844 L 26.359375 97.375 L 41.664062 94.832031 L 58.011719 92.453125 L 60.59375 92.28125 Z M 60.632812 91.867188 "/>
</svg>
