<?xml version="1.0" encoding="UTF-8"?>
<svg xmlns="http://www.w3.org/2000/svg" xmlns:xlink="http://www.w3.org/1999/xlink" width="288" height="288" viewBox="0 0 288 288">
<rect x="-28.8" y="-28.8" width="345.6" height="345.6" fill="rgb(100%, 100%, 100%)" fill-opacity="1"/>
<rect x="-28.8" y="-28.8" width="345.6" height="345.6" fill="rgb(100%, 100%, 100%)" fill-opacity="1"/>
<path fill="none" stroke-width="0.75" stroke-linecap="round" stroke-linejoin="round" stroke="rgb(100%, 100%, 100%)" stroke-opacity="1" stroke-miterlimit="10" d="M 0 288 L 288 288 L 288 0 L 0 0 Z M 0 288 "/>
<path fill="none" stroke-width="1.5" stroke-linecap="round" stroke-linejoin="round" stroke="rgb(0%, 0%, 0%)" stroke-opacity="1" stroke-miterlimit="10" d="M 96.351562 65.199219 L 102.042969 59.679688 L 110.574219 55 L 121.359375 52.886719 L 121.632812 52.832031 L 123.667969 52.433594 L 125.117188 52.148438 L 139.15625 53.753906 L 149.566406 58.136719 L 142.582031 63.941406 L 139.71875 72.113281 L 134.667969 76.765625 L 130.667969 83.027344 L 126.84375 85.832031 L 129.28125 91.28125 L 134.195312 94.183594 L 131.84375 101.074219 L 131.78125 107.070312 L 121.554688 110.125 L 124.898438 116.632812 L 126.542969 118.355469 L 150.621094 117.320312 L 165.601562 111.46875 L 190.917969 109.773438 L 178.472656 135.140625 L 172.648438 144.609375 L 174.914062 167.476562 L 172.054688 182.996094 L 175.375 202.625 L 182.921875 215.523438 L 182.601562 216.347656 L 189.855469 221.910156 L 197.042969 223.082031 L 200.796875 220.769531 L 203.578125 237.195312 L 206.382812 263.378906 L 207.175781 277.292969 L 185.695312 277.332031 L 161.175781 277.101562 L 139.460938 276.894531 L 105.714844 275.839844 L 105.082031 267.660156 L 84.066406 268.527344 L 56.527344 264.34375 L 35.375 267.605469 L 73.871094 242.496094 L 78.394531 231.902344 L 94.738281 229.914062 L 99.386719 226.753906 L 100.832031 212.054688 L 97.152344 164.511719 L 95.878906 148.121094 L 92.839844 145.71875 L 77.988281 138.578125 L 75.492188 134.753906 L 84.828125 128.640625 L 94.242188 127.050781 L 94.203125 126.554688 L 94.199219 126.53125 L 90.789062 70.957031 L 93.117188 70.957031 Z M 96.351562 65.199219 "/>
<path fill="none" stroke-width="1.5" stroke-linecap="round" stroke-linejoin="round" stroke="rgb(0%, 0%, 0%)" stroke-opacity="1" stroke-miterlimit="10" d="M 207.753906 42.675781 L 208.75 34.550781 L 223.757812 20.496094 L 246.753906 11.046875 L 252.625 10.667969 L 249.320312 23.253906 L 216.304688 40.652344 Z M 207.753906 42.675781 "/>
</svg>
