<?xml version="1.0" encoding="UTF-8"?>
<svg xmlns="http://www.w3.org/2000/svg" xmlns:xlink="http://www.w3.org/1999/xlink" width="288" height="288" viewBox="0 0 288 288">
<defs>
<clipPath id="clip-0">
<path clip-rule="nonzero" d="M 59.039062 59.039062 L 257.757812 59.039062 L 257.757812 214.558594 L 59.039062 214.558594 Z M 59.039062 59.039062 "/>
</clipPath>
</defs>
<rect x="-28.8" y="-28.8" width="345.6" height="345.6" fill="rgb(100%, 100%, 100%)" fill-opacity="1"/>
<g clip-path="url(#clip-0)">
<path fill-rule="nonzero" fill="rgb(100%, 100%, 100%)" fill-opacity="1" stroke-width="0.75" stroke-linecap="round" stroke-linejoin="round" stroke="rgb(100%, 100%, 100%)" stroke-opacity="1" stroke-miterlimit="10" d="M 59.039062 214.558594 L 257.757812 214.558594 L 257.757812 59.039062 L 59.039062 59.039062 Z M 59.039062 214.558594 "/>
</g>
<path fill="none" stroke-width="0.75" stroke-linecap="round" stroke-linejoin="round" stroke="rgb(0%, 0%, 0%)" stroke-opacity="1" stroke-miterlimit="10" d="M 146.878906 90.667969 L 148.152344 91.515625 L 147.96875 93.015625 L 146.390625 93.449219 L 145.761719 91.523438 Z M 146.878906 90.667969 "/>
<path fill="none" stroke-width="0.75" stroke-linecap="round" stroke-linejoin="round" stroke="rgb(0%, 0%, 0%)" stroke-opacity="1" stroke-miterlimit="10" d="M 87.753906 164.488281 L 87.066406 164.324219 L 85.820312 163.691406 L 84.644531 162.164062 L 81.71875 160.164062 L 81.058594 158.683594 L 77.144531 155.296875 L 76.355469 153.613281 L 75.457031 152.390625 L 73.578125 150.828125 L 72.109375 151.207031 L 67.152344 149.265625 L 66.398438 149.089844 L 67.085938 147.390625 L 68.648438 144.757812 L 72.058594 141.839844 L 72.34375 139.472656 L 71.453125 134.9375 L 70.558594 132.003906 L 71.039062 130.691406 L 72.101562 125.414062 L 72.925781 124.183594 L 77.851562 121.519531 L 78.308594 121.148438 L 82.195312 117.414062 L 86.507812 113.269531 L 88.246094 111.5 L 88.238281 108.453125 L 88.226562 104.558594 L 88.222656 104.007812 L 88.210938 99.949219 L 88.207031 99.421875 L 88.1875 96.347656 L 88.152344 91.453125 L 99.066406 91.195312 L 100.207031 91.164062 L 101.367188 91.132812 L 108.070312 90.957031 L 115.601562 90.746094 L 119.078125 90.644531 L 119.082031 90.644531 L 124.347656 90.492188 L 128.25 90.378906 L 129.566406 91.597656 L 132.019531 91.292969 L 134.839844 92.984375 L 136.851562 93.574219 L 139.734375 94.421875 L 140.878906 95.59375 L 143.65625 96.8125 L 145.875 94.984375 L 146.628906 94.652344 L 150.074219 96 L 150.476562 96.660156 L 151.855469 96.617188 L 155.535156 97.289062 L 160.738281 93.441406 L 164.078125 92.667969 L 168 90.863281 L 167.476562 89.023438 L 166.539062 88.195312 L 172.515625 89 L 181.421875 92.898438 L 187.742188 92.429688 L 189.492188 91.128906 L 192.507812 89.566406 L 195.546875 88.789062 L 199.476562 87.234375 L 200.949219 86.953125 L 203.972656 86.371094 L 206.921875 85.175781 L 213.414062 83.769531 L 215.265625 83.183594 L 215.265625 86.941406 L 215.269531 92.230469 L 215.269531 95.210938 L 217.664062 95.800781 L 232.074219 110.382812 L 232.378906 111.570312 L 226.222656 107.25 L 222.964844 107.582031 L 222.117188 108.28125 L 222.300781 110.636719 L 222.597656 111.742188 L 223.996094 111.867188 L 225.027344 111.230469 L 227.570312 112 L 229.253906 113.566406 L 231.300781 115.96875 L 232.519531 118.574219 L 233.839844 118.617188 L 235.140625 117.046875 L 237.585938 116.855469 L 239.179688 118.613281 L 240.304688 118.507812 L 238.730469 115.789062 L 235.023438 113.085938 L 235.902344 112.972656 L 244.125 117.832031 L 246.445312 123.933594 L 248.382812 125.320312 L 250.398438 127.1875 L 242.765625 126.617188 L 239.160156 127.796875 L 237.582031 130.429688 L 236.226562 131.609375 L 235.09375 131.339844 L 232.804688 132.375 L 229.351562 134.71875 L 226.238281 135.605469 L 223.464844 135.035156 L 222.660156 135.613281 L 222.445312 136.382812 L 222.023438 137.125 L 220.945312 137.527344 L 219.714844 137.316406 L 218.324219 136.488281 L 217.589844 136.839844 L 217.511719 138.375 L 216.761719 138.785156 L 215.34375 138.0625 L 213.746094 138.617188 L 211.96875 140.441406 L 209.476562 140.832031 L 208.789062 140.609375 L 208.777344 141.03125 L 208.722656 142.925781 L 208 143.546875 L 206.84375 144.5 L 206.25 146.578125 L 206.226562 146.664062 L 206.207031 148.058594 L 204.871094 149.199219 L 205.894531 150.539062 L 206.0625 150.765625 L 205 152.253906 L 202.683594 153.949219 L 199.90625 156.042969 L 198.761719 156.90625 L 197.417969 158.488281 L 197.203125 158.738281 L 195.5 159.308594 L 193.628906 160.546875 L 190.710938 161.894531 L 190.03125 161.804688 L 189.339844 161.714844 L 188.777344 160.40625 L 187.488281 159.960938 L 186.09375 161.058594 L 184.421875 162.351562 L 184.253906 164.019531 L 182.8125 164.042969 L 180.902344 164.09375 L 179.914062 165.757812 L 179.621094 166.007812 L 178.695312 166.8125 L 178.707031 166.921875 L 178.984375 169.199219 L 178.769531 169.277344 L 177.058594 169.890625 L 177.492188 171.226562 L 178.011719 173.050781 L 176.480469 174.121094 L 174.375 174.621094 L 173.085938 172.667969 L 171.152344 171.554688 L 170.128906 171.914062 L 168.722656 173.199219 L 168.429688 173.660156 L 167.367188 175.355469 L 166.570312 177.839844 L 165.15625 178.515625 L 165.386719 179.8125 L 165.859375 182.914062 L 166.167969 184.488281 L 164.871094 185.003906 L 163.230469 184.941406 L 162.996094 185.367188 L 162.667969 185.972656 L 162.339844 187.945312 L 161.753906 189.394531 L 160.042969 189.84375 L 158.105469 190.085938 L 156.269531 190.464844 L 154.738281 190.785156 L 153.757812 190.242188 L 153.023438 188.539062 L 151.667969 187.59375 L 151.324219 187.351562 L 149.867188 186.054688 L 147.636719 185.882812 L 147.296875 185.601562 L 146.117188 184.613281 L 145.578125 182.34375 L 145.527344 181.105469 L 145.199219 180.390625 L 144.996094 179.945312 L 143.640625 180.28125 L 144.476562 187.511719 L 145.039062 191.09375 L 144.484375 192.199219 L 142.621094 192.375 L 140.207031 192.882812 L 138.882812 194.523438 L 138.570312 196.210938 L 138.441406 198.574219 L 137.675781 201.011719 L 136.183594 202.765625 L 134.703125 203.390625 L 126.457031 203.859375 L 126.597656 199.828125 L 124.21875 198.195312 L 122.863281 194.832031 L 121.679688 192.5625 L 122.070312 191.199219 L 121.953125 189.582031 L 118.601562 188.335938 L 115.453125 189.308594 L 113.644531 188.675781 L 112.316406 187.816406 L 114.605469 185.824219 L 114.761719 184.613281 L 114.027344 183.742188 L 113.273438 183.152344 L 113.5 180.90625 L 113.785156 179.277344 L 112.683594 178.992188 L 110.523438 179.476562 L 110.496094 179.46875 L 108.050781 178.917969 L 105.742188 178.421875 L 105.351562 177.683594 L 105.140625 177.285156 L 105.167969 176.304688 L 105.171875 176.125 L 103.511719 173.816406 L 103.242188 172.777344 L 102.53125 171.832031 L 102.375 171.621094 L 100.167969 171.042969 L 99.21875 169.890625 L 98.851562 168.957031 L 98.355469 168.734375 L 97.792969 168.886719 L 97.414062 169.324219 L 97.253906 169.335938 L 97.035156 169.347656 L 95.722656 169.421875 L 94.03125 170.21875 L 93.988281 170.203125 L 93.488281 170.589844 L 92.492188 170.464844 L 92.285156 169.570312 L 91.972656 169.453125 L 90.882812 168.402344 L 89.792969 167.953125 L 87.734375 169.234375 L 87.734375 165.511719 Z M 87.753906 164.488281 "/>
<path fill="none" stroke-width="0.75" stroke-linecap="round" stroke-linejoin="round" stroke="rgb(0%, 0%, 0%)" stroke-opacity="1" stroke-miterlimit="10" d="M 148.90625 77.789062 L 147.417969 77.730469 L 149.597656 75.457031 L 153.113281 73.507812 L 156.09375 72.554688 L 158.535156 72.96875 L 153.660156 74.847656 Z M 148.90625 77.789062 "/>
<path fill="none" stroke-width="0.75" stroke-linecap="round" stroke-linejoin="round" stroke="rgb(0%, 0%, 0%)" stroke-opacity="1" stroke-miterlimit="10" d="M 167.675781 73.894531 L 167.269531 72.914062 L 168.359375 70.894531 L 169.722656 69.742188 L 171.039062 69.859375 L 170.722656 70.726562 L 169.9375 71.714844 Z M 167.675781 73.894531 "/>
</svg>
