<?xml version="1.0" encoding="UTF-8"?>
<svg xmlns="http://www.w3.org/2000/svg" xmlns:xlink="http://www.w3.org/1999/xlink" width="288" height="288" viewBox="0 0 288 288">
<defs>
<clipPath id="clip-0">
<path clip-rule="nonzero" d="M 59.039062 59.039062 L 257.757812 59.039062 L 257.757812 214.558594 L 59.039062 214.558594 Z M 59.039062 59.039062 "/>
</clipPath>
</defs>
<rect x="-28.8" y="-28.8" width="345.6" height="345.6" fill="rgb(100%, 100%, 100%)" fill-opacity="1"/>
<g clip-path="url(#clip-0)">
<path fill-rule="nonzero" fill="rgb(100%, 100%, 100%)" fill-opacity="1" stroke-width="0.75" stroke-linecap="round" stroke-linejoin="round" stroke="rgb(100%, 100%, 100%)" stroke-opacity="1" stroke-miterlimit="10" d="M 59.039062 214.558594 L 257.757812 214.558594 L 257.757812 59.039062 L 59.039062 59.039062 Z M 59.039062 214.558594 "/>
</g>
<path fill="none" stroke-width="0.75" stroke-linecap="round" stroke-linejoin="round" stroke="rgb(0%, 0%, 0%)" stroke-opacity="1" stroke-miterlimit="10" d="M 124.457031 96.128906 L 124.445312 95.855469 L 124.503906 95.757812 L 124.945312 92.042969 L 125.042969 91.230469 L 125.113281 90.632812 L 124.210938 87.929688 L 124.910156 86.597656 L 125.808594 84.136719 L 126 83.097656 L 126.316406 80.398438 L 126.71875 76.992188 L 126.859375 75.816406 L 127.8125 68.105469 L 126.324219 67.242188 L 125.132812 65.152344 L 125.058594 64.800781 L 130.378906 64.859375 L 130.777344 64.859375 L 134.265625 64.867188 L 140.214844 64.921875 L 140.710938 64.929688 L 150.730469 65.050781 L 150.921875 65.054688 L 151.078125 65.054688 L 160.898438 65.234375 L 162.277344 65.257812 L 170.5625 65.292969 L 174.46875 65.285156 L 174.667969 65.28125 L 180.59375 65.339844 L 181.125 65.21875 L 189.375 65.394531 L 189.53125 65.429688 L 193.183594 65.464844 L 193.300781 66.246094 L 201.898438 68.101562 L 207.503906 69.949219 L 209.816406 71.621094 L 210.257812 74.636719 L 210.03125 78.488281 L 209.125 82.167969 L 207.148438 87.113281 L 204.9375 89.554688 L 202.539062 93.039062 L 199.378906 99.046875 L 199.394531 99.289062 L 199.597656 100.433594 L 200.1875 103.761719 L 200.816406 107.335938 L 201.058594 108.703125 L 201.335938 110.292969 L 202.847656 118.980469 L 202.957031 119.605469 L 204.171875 126.554688 L 204.21875 126.8125 L 204.832031 127.824219 L 205.789062 130.019531 L 206.058594 130.640625 L 206.730469 132.765625 L 207.222656 134.957031 L 208.867188 136.695312 L 209.023438 137.101562 L 209.058594 137.191406 L 209.792969 139.078125 L 209.546875 140.949219 L 209.488281 141.417969 L 208.839844 142.195312 L 210.214844 143.101562 L 211.890625 144.351562 L 211.152344 145.3125 L 210.886719 145.660156 L 209.988281 146.160156 L 210.339844 146.902344 L 211.082031 147.214844 L 211.488281 148.28125 L 211.082031 150.324219 L 210.984375 153.164062 L 209.578125 156.457031 L 206.527344 162.09375 L 207.527344 163.347656 L 207.535156 164.8125 L 207.957031 165.585938 L 207.699219 166.332031 L 207.175781 167.851562 L 207.324219 168.949219 L 206.628906 170.984375 L 206.75 172.210938 L 206.722656 172.597656 L 206.699219 173.003906 L 206.21875 174.085938 L 206.234375 176.234375 L 208.121094 178.5625 L 208.5 179.539062 L 208.753906 180.191406 L 208.988281 181.769531 L 205.226562 181.769531 L 203.117188 181.78125 L 200.695312 187.339844 L 198.503906 188.914062 L 197.183594 191.4375 L 196.332031 191.460938 L 195.378906 191.699219 L 195.074219 192.011719 L 193.878906 191.984375 L 192.949219 190.867188 L 192.804688 189.542969 L 192.296875 188.03125 L 191.125 187.578125 L 188.902344 188.101562 L 188.261719 187.726562 L 186.9375 186.101562 L 185.839844 184.335938 L 185.570312 182.625 L 184.859375 182.789062 L 183.167969 184.335938 L 182.019531 184.652344 L 181.109375 184.25 L 180.089844 184.363281 L 177.511719 186.019531 L 175.992188 186.398438 L 174.90625 188.066406 L 167.730469 188.824219 L 165.851562 189.261719 L 161.574219 186.371094 L 160.46875 185.433594 L 159.902344 185.300781 L 159.429688 185.457031 L 158.957031 186.09375 L 158.253906 189.722656 L 157.605469 190.707031 L 156.484375 191.507812 L 155.394531 192.953125 L 155.175781 194.355469 L 156.855469 195.128906 L 158.261719 197.851562 L 159.785156 200.035156 L 161.007812 201.960938 L 160.84375 204.140625 L 160.632812 207.230469 L 159.75 208.285156 L 158.265625 208.800781 L 152.832031 207.304688 L 148.667969 205.96875 L 146.914062 205.679688 L 146.125 205.335938 L 145.089844 204.207031 L 144.03125 203.15625 L 143.3125 202.996094 L 143.011719 203.328125 L 139.378906 204.253906 L 135.128906 204.894531 L 133.179688 204.566406 L 135.457031 203.347656 L 135.710938 202.015625 L 133.921875 200.238281 L 132.632812 198.355469 L 132.128906 197.121094 L 132.957031 195.214844 L 132.609375 194.167969 L 132.1875 192.167969 L 130.160156 191.199219 L 128.753906 192.398438 L 128.679688 194.09375 L 128.238281 195.351562 L 127.660156 196.714844 L 127.609375 199.683594 L 126.808594 202.121094 L 125.25 202.105469 L 123.621094 202.171875 L 122.207031 200.671875 L 120.832031 200.101562 L 120.019531 200.65625 L 119.789062 195.441406 L 119.570312 189.800781 L 119.5625 189.6875 L 119.207031 181.839844 L 119.050781 178.382812 L 118.613281 169.25 L 118.59375 168.816406 L 118.332031 163.304688 L 118.222656 161.046875 L 118.089844 158.300781 L 118.089844 156.449219 L 116.757812 155.847656 L 115.601562 155.03125 L 115.355469 154.019531 L 115.53125 150.78125 L 113.671875 148.328125 L 110.726562 145.292969 L 109.839844 141.441406 L 108.757812 139.039062 L 105.492188 134.011719 L 104.914062 130.5625 L 104.910156 128.132812 L 106.058594 125.902344 L 107.65625 121.976562 L 108.3125 118.410156 L 108.796875 116.554688 L 109.625 114.125 L 110.378906 110.976562 L 109.804688 109.035156 L 108.832031 107.136719 L 108.515625 105.714844 L 109.457031 103.636719 L 110.40625 102.167969 L 111.476562 101.960938 L 112.84375 101.082031 L 113.914062 99.820312 L 115.546875 99.488281 L 117.589844 99.355469 L 121.753906 99.351562 L 123.882812 98.816406 L 124.195312 98.332031 Z M 124.457031 96.128906 "/>
</svg>
