<?xml version="1.0" encoding="UTF-8"?>
<svg xmlns="http://www.w3.org/2000/svg" xmlns:xlink="http://www.w3.org/1999/xlink" width="288" height="288" viewBox="0 0 288 288">
<rect x="-28.8" y="-28.8" width="345.6" height="345.6" fill="rgb(100%, 100%, 100%)" fill-opacity="1"/>
<rect x="-28.8" y="-28.8" width="345.6" height="345.6" fill="rgb(100%, 100%, 100%)" fill-opacity="1"/>
<path fill="none" stroke-width="0.75" stroke-linecap="round" stroke-linejoin="round" stroke="rgb(100%, 100%, 100%)" stroke-opacity="1" stroke-miterlimit="10" d="M 0 288 L 288 288 L 288 0 L 0 0 Z M 0 288 "/>
<path fill="none" stroke-width="1.5" stroke-linecap="round" stroke-linejoin="round" stroke="rgb(0%, 0%, 0%)" stroke-opacity="1" stroke-miterlimit="10" d="M 12.585938 107.886719 L 14.230469 105.855469 L 14.121094 104.648438 L 14.070312 104.089844 L 15.769531 102.621094 L 14.953125 101.890625 L 16.082031 100.796875 L 15.304688 99.40625 L 17.496094 98.304688 L 17.746094 97.707031 L 18.269531 96.457031 L 17.46875 95.28125 L 16.785156 92.191406 L 14.875 92.195312 L 13.609375 91.148438 L 13.359375 90.738281 L 12.546875 89.40625 L 14.535156 89.050781 L 14.785156 87.179688 L 14.898438 85.652344 L 11.914062 83.730469 L 12.3125 82.324219 L 11.722656 81.101562 L 17.699219 81.105469 L 28.152344 81.109375 L 34.113281 81.113281 L 34.191406 81.113281 L 34.578125 80.878906 L 36.121094 80.191406 L 37.71875 81.117188 L 41.996094 81.121094 L 43.085938 81.121094 L 57.34375 81.113281 L 58.671875 81.109375 L 61.40625 81.101562 L 68.496094 81.085938 L 80.816406 81.097656 L 83.28125 81.097656 L 100.167969 81.101562 L 102.3125 81.101562 L 108.164062 81.113281 L 119.535156 81.136719 L 132.75 81.140625 L 138.953125 81.140625 L 149.96875 81.136719 L 157.335938 81.140625 L 164.675781 81.140625 L 177.683594 81.109375 L 177.6875 81.109375 L 181.960938 81.105469 L 193.039062 81.09375 L 221.253906 81.09375 L 232.464844 81.101562 L 231.867188 83.0625 L 232.753906 84.3125 L 233.214844 84.964844 L 232.890625 86.128906 L 235.046875 87.671875 L 236.996094 88.511719 L 237.550781 89.15625 L 239.820312 89.597656 L 241.457031 90.902344 L 242.597656 91.226562 L 248.574219 90.007812 L 251.226562 92.710938 L 255.371094 96.496094 L 262.425781 98.449219 L 268.710938 99.554688 L 270.691406 99.722656 L 277.332031 99.65625 L 276.367188 109.175781 L 272.414062 113.613281 L 266.433594 112.125 L 258.804688 113.363281 L 254.933594 118.207031 L 256.046875 120.695312 L 255.886719 122.167969 L 258.199219 123.148438 L 259.230469 123.5 L 261.1875 124.941406 L 262.550781 125.804688 L 264.109375 126.792969 L 265.304688 128.289062 L 264.742188 129.972656 L 265.980469 131.546875 L 268.546875 133 L 269.488281 133.386719 L 271.378906 134.164062 L 273.910156 135.191406 L 275.804688 136.921875 L 275.710938 139.59375 L 275.867188 139.890625 L 276.648438 141.394531 L 275.980469 143.738281 L 275.929688 144.078125 L 275.644531 145.949219 L 274.976562 147.539062 L 275.007812 148.867188 L 272.476562 150.054688 L 272.21875 150.175781 L 269.671875 151.707031 L 269.625 152.261719 L 269.507812 153.636719 L 268.605469 154.871094 L 268.488281 157.558594 L 267.480469 158.332031 L 265.359375 159.015625 L 263.488281 160.621094 L 261.367188 160.785156 L 258.988281 160.917969 L 257.042969 162.195312 L 253.65625 163.433594 L 250.164062 163.511719 L 248.71875 163.59375 L 252.613281 167.414062 L 253.914062 170.59375 L 248.367188 169.878906 L 246.425781 170.09375 L 245.1875 171.101562 L 242.609375 170.898438 L 239.421875 170.90625 L 236.730469 171.835938 L 238.054688 173.277344 L 239.691406 175.261719 L 241.484375 175.40625 L 243.148438 177.523438 L 243.355469 179.097656 L 243.371094 179.21875 L 243.640625 181.296875 L 243.355469 183.984375 L 241.992188 185.710938 L 239.566406 187.515625 L 237.582031 189.46875 L 237.636719 191.175781 L 236.648438 193.429688 L 236.546875 194.488281 L 236.441406 195.597656 L 233.789062 197.03125 L 233.726562 197.066406 L 231.230469 197.019531 L 227.460938 198.050781 L 226.042969 199.332031 L 225.214844 201.320312 L 226.304688 202.320312 L 225.8125 204.742188 L 226.097656 206.941406 L 224.191406 207.808594 L 220.964844 206.824219 L 220.101562 205.542969 L 218.265625 204.371094 L 216.441406 202.753906 L 216.003906 201.132812 L 213.871094 200.640625 L 213.28125 199.484375 L 212 198.453125 L 211.488281 198.042969 L 202.867188 198.355469 L 202.710938 198.359375 L 193 198.585938 L 185.984375 198.722656 L 181.761719 198.804688 L 174.207031 198.984375 L 172.207031 199.03125 L 171.0625 199.039062 L 161.75 199.117188 L 155.363281 199.28125 L 153.785156 199.320312 L 145.4375 199.414062 L 140.5625 200.1875 L 139.339844 199.441406 L 136.511719 199.453125 L 134.851562 199.457031 L 127.589844 199.539062 L 124.859375 199.570312 L 117.699219 199.683594 L 114.597656 199.730469 L 108.808594 199.769531 L 105.589844 199.789062 L 99.003906 199.8125 L 96.433594 199.820312 L 92.40625 199.777344 L 84.699219 199.699219 L 80.804688 199.648438 L 74.484375 199.566406 L 63.546875 199.441406 L 61.976562 199.425781 L 55.441406 199.34375 L 45.90625 199.222656 L 46.605469 198.46875 L 45.257812 196.433594 L 44.773438 196.386719 L 44.875 196.238281 L 42.609375 195.191406 L 40.859375 192.96875 L 43.09375 191.039062 L 43.09375 191.007812 L 42.800781 188.457031 L 44.058594 186.761719 L 43.726562 186.296875 L 42.945312 185.195312 L 43.335938 183.230469 L 41.792969 181.375 L 41.839844 179.917969 L 41.878906 178.65625 L 41.679688 176.964844 L 41.957031 175.5 L 42.167969 174.398438 L 39.996094 174.511719 L 39.988281 174.222656 L 39.925781 172.3125 L 40.796875 170.65625 L 39.339844 168.859375 L 39.292969 168.132812 L 35.1875 166.941406 L 31.101562 165.089844 L 27.636719 162.652344 L 21.308594 156.636719 L 24.511719 156.035156 L 25.480469 154.816406 L 28.671875 151.519531 L 29.039062 149.898438 L 28.699219 148.984375 L 26.5625 147.398438 L 25.089844 143.953125 L 26.199219 140.726562 L 26.25 139.882812 L 25.097656 139.316406 L 25.261719 136.628906 L 22.027344 134.476562 L 22.460938 132.535156 L 22.496094 132.371094 L 22.507812 130.515625 L 21.855469 129.867188 L 19.554688 127.585938 L 19.398438 124.625 L 20.652344 122.578125 L 18.015625 121.414062 L 16.707031 120.648438 L 16.070312 120.339844 L 16.726562 118.78125 L 16.601562 118.570312 L 14.683594 115.363281 L 12.023438 113.480469 L 10.667969 111.980469 L 10.78125 109.824219 Z M 12.585938 107.886719 "/>
</svg>
