<?xml version="1.0" encoding="UTF-8"?>
<svg xmlns="http://www.w3.org/2000/svg" xmlns:xlink="http://www.w3.org/1999/xlink" width="288" height="288" viewBox="0 0 288 288">
<defs>
<clipPath id="clip-0">
<path clip-rule="nonzero" d="M 59.039062 59.039062 L 257.757812 59.039062 L 257.757812 214.558594 L 59.039062 214.558594 Z M 59.039062 59.039062 "/>
</clipPath>
</defs>
<rect x="-28.8" y="-28.8" width="345.6" height="345.6" fill="rgb(100%, 100%, 100%)" fill-opacity="1"/>
<g clip-path="url(#clip-0)">
<path fill-rule="nonzero" fill="rgb(100%, 100%, 100%)" fill-opacity="1" stroke-width="0.75" stroke-linecap="round" stroke-linejoin="round" stroke="rgb(100%, 100%, 100%)" stroke-opacity="1" stroke-miterlimit="10" d="M 59.039062 214.558594 L 257.757812 214.558594 L 257.757812 59.039062 L 59.039062 59.039062 Z M 59.039062 214.558594 "/>
</g>
<path fill="none" stroke-width="0.75" stroke-linecap="round" stroke-linejoin="round" stroke="rgb(0%, 0%, 0%)" stroke-opacity="1" stroke-miterlimit="10" d="M 132.671875 94.246094 L 135.742188 91.265625 L 140.351562 88.742188 L 146.171875 87.597656 L 146.324219 87.570312 L 147.421875 87.355469 L 148.203125 87.199219 L 155.785156 88.066406 L 161.40625 90.433594 L 157.632812 93.566406 L 156.085938 97.980469 L 153.359375 100.492188 L 151.203125 103.875 L 149.136719 105.390625 L 150.453125 108.332031 L 153.105469 109.898438 L 151.835938 113.617188 L 151.800781 116.859375 L 146.28125 118.507812 L 148.085938 122.019531 L 148.972656 122.949219 L 161.972656 122.390625 L 170.066406 119.234375 L 183.734375 118.316406 L 177.015625 132.015625 L 173.871094 137.128906 L 175.09375 149.476562 L 173.550781 157.855469 L 175.34375 168.457031 L 179.417969 175.421875 L 179.246094 175.867188 L 183.160156 178.871094 L 187.042969 179.503906 L 189.070312 178.253906 L 190.574219 187.125 L 192.085938 201.265625 L 192.515625 208.777344 L 180.914062 208.800781 L 167.675781 208.675781 L 155.949219 208.5625 L 137.726562 207.992188 L 137.382812 203.578125 L 126.035156 204.042969 L 111.164062 201.785156 L 99.742188 203.546875 L 120.53125 189.988281 L 122.972656 184.265625 L 131.796875 183.191406 L 134.308594 181.484375 L 135.089844 173.550781 L 133.101562 147.878906 L 132.414062 139.023438 L 130.773438 137.726562 L 122.753906 133.871094 L 121.40625 131.804688 L 126.445312 128.507812 L 131.53125 127.648438 L 131.507812 127.378906 L 131.507812 127.367188 L 129.664062 97.355469 L 130.921875 97.355469 Z M 132.671875 94.246094 "/>
<path fill="none" stroke-width="0.75" stroke-linecap="round" stroke-linejoin="round" stroke="rgb(0%, 0%, 0%)" stroke-opacity="1" stroke-miterlimit="10" d="M 192.828125 82.085938 L 193.367188 77.699219 L 201.46875 70.105469 L 213.886719 65.003906 L 217.058594 64.800781 L 215.273438 71.597656 L 197.445312 80.992188 Z M 192.828125 82.085938 "/>
</svg>
