<?xml version="1.0" encoding="UTF-8"?>
<svg xmlns="http://www.w3.org/2000/svg" xmlns:xlink="http://www.w3.org/1999/xlink" width="288" height="288" viewBox="0 0 288 288">
<defs>
<clipPath id="clip-0">
<path clip-rule="nonzero" d="M 59.039062 59.039062 L 257.757812 59.039062 L 257.757812 214.558594 L 59.039062 214.558594 Z M 59.039062 59.039062 "/>
</clipPath>
</defs>
<rect x="-28.8" y="-28.8" width="345.6" height="345.6" fill="rgb(100%, 100%, 100%)" fill-opacity="1"/>
<g clip-path="url(#clip-0)">
<path fill-rule="nonzero" fill="rgb(100%, 100%, 100%)" fill-opacity="1" stroke-width="0.75" stroke-linecap="round" stroke-linejoin="round" stroke="rgb(100%, 100%, 100%)" stroke-opacity="1" stroke-miterlimit="10" d="M 59.039062 214.558594 L 257.757812 214.558594 L 257.757812 59.039062 L 59.039062 59.039062 Z M 59.039062 214.558594 "/>
</g>
<path fill="none" stroke-width="0.75" stroke-linecap="round" stroke-linejoin="round" stroke="rgb(0%, 0%, 0%)" stroke-opacity="1" stroke-miterlimit="10" d="M 100.875 100.828125 L 100.964844 99.902344 L 100.851562 98.695312 L 100.371094 98.035156 L 101.40625 97.507812 L 101.558594 96.40625 L 101.007812 94.707031 L 99.496094 93.753906 L 100.289062 93.117188 L 101.871094 94.066406 L 103.226562 93.847656 L 104.726562 93.496094 L 105.453125 93.902344 L 106.507812 93.4375 L 107.886719 93.230469 L 108.597656 92.710938 L 109.851562 92.542969 L 110.808594 93.21875 L 110.75 94.023438 L 111.847656 94.628906 L 111.988281 94.628906 L 113.53125 94.652344 L 114.777344 94.207031 L 115.628906 93.902344 L 116.558594 93.964844 L 118.617188 94.839844 L 119.382812 95.335938 L 119.792969 95.46875 L 124.183594 94.4375 L 134.902344 93.203125 L 139.375 92.929688 L 143.761719 92.898438 L 147.667969 93.871094 L 151.800781 95.078125 L 152.542969 95.804688 L 150.304688 95.351562 L 147.046875 94.269531 L 145.839844 94.222656 L 148.625 97.523438 L 150.144531 98.695312 L 153.222656 99.574219 L 155.800781 99.871094 L 163.746094 99.339844 L 166.570312 98.644531 L 167.386719 98.292969 L 168.121094 98.464844 L 173.285156 98.652344 L 178.519531 98.839844 L 180.90625 98.898438 L 181.390625 98.492188 L 181.921875 98.394531 L 183.46875 98.71875 L 184.496094 98.601562 L 185.746094 98.460938 L 187.722656 98.144531 L 190.140625 98.265625 L 191.332031 97.828125 L 192.699219 97.125 L 192.703125 97.125 L 198.40625 97.105469 L 199.714844 97.105469 L 204.125 97.109375 L 210.960938 97.117188 L 211.320312 97.117188 L 216.109375 97.125 L 218.21875 97.140625 L 220.5 97.164062 L 222.820312 97.183594 L 230.898438 97.199219 L 231.4375 97.828125 L 231.933594 98.703125 L 233.050781 99.664062 L 233.269531 99.851562 L 234.214844 100.089844 L 235.519531 100.847656 L 236.855469 100.90625 L 237.910156 101.664062 L 238.046875 102.570312 L 238.246094 102.757812 L 238.371094 102.824219 L 238.433594 102.929688 L 239.242188 103.695312 L 238.894531 104.105469 L 238.914062 104.808594 L 238.816406 105.488281 L 238.945312 105.765625 L 241.054688 110.71875 L 244.5625 115.527344 L 245.851562 117.867188 L 246.367188 119.117188 L 246.777344 120.933594 L 246.90625 122.214844 L 246.890625 122.933594 L 246.628906 123.925781 L 245.585938 124.515625 L 238.851562 126.195312 L 237.585938 126.726562 L 235.601562 128.039062 L 233.769531 129.398438 L 233.351562 129.863281 L 233.238281 130.167969 L 233.640625 130.617188 L 236.039062 131.347656 L 238.460938 131.933594 L 239.25 132.371094 L 241.035156 132.9375 L 241.6875 133.441406 L 242.039062 133.882812 L 242.015625 134.902344 L 241.210938 136.316406 L 241.546875 137.386719 L 240.730469 138.101562 L 240.054688 138.894531 L 239.960938 140.289062 L 241.171875 141.832031 L 242.160156 142.886719 L 242.542969 143.714844 L 242.136719 144.367188 L 242.261719 145.019531 L 243.140625 145.710938 L 245.933594 147.847656 L 247.308594 149.914062 L 248.1875 150.722656 L 250.214844 151.769531 L 250.398438 152.203125 L 249.585938 152.597656 L 248.929688 152.648438 L 248.394531 152.753906 L 248.050781 153.125 L 248.585938 153.519531 L 249.304688 154.101562 L 250.195312 155.746094 L 250.109375 157.097656 L 249.421875 157.445312 L 248.542969 158.246094 L 247.945312 158.984375 L 243.132812 159.496094 L 241.976562 160.285156 L 239.34375 161.8125 L 237.542969 162.691406 L 234.882812 164.285156 L 230.675781 167.03125 L 229.125 168.179688 L 227.992188 169.136719 L 224.589844 171.679688 L 223.542969 172.75 L 223.75 173.632812 L 224.84375 175.710938 L 225.074219 176.648438 L 224.878906 177.519531 L 224.519531 178.292969 L 224.578125 178.636719 L 225.585938 179.199219 L 227.1875 180.085938 L 227.277344 180.382812 L 227.050781 180.765625 L 226.5 181.058594 L 224.5 180.75 L 222.261719 180.148438 L 221.5 180.222656 L 220.289062 180.082031 L 215.300781 178.925781 L 211.9375 178.023438 L 211.605469 177.433594 L 210.96875 176.585938 L 209.539062 175.875 L 206.257812 175.257812 L 204.917969 174.777344 L 199.585938 174.511719 L 197.273438 174.5 L 195.632812 174.699219 L 194.585938 174.679688 L 193.144531 175.933594 L 192.152344 176.296875 L 190.695312 176.335938 L 189.425781 176.113281 L 188.125 175.453125 L 186.042969 175.101562 L 184.539062 175.269531 L 183.433594 175.128906 L 182.476562 175.09375 L 182.144531 175.226562 L 181.375 175.207031 L 180.261719 175.523438 L 179.042969 175.96875 L 177.699219 176.308594 L 176.664062 177.039062 L 175.742188 178.476562 L 173.132812 177.832031 L 172.265625 178.109375 L 171.035156 178.296875 L 170.191406 178.105469 L 170.390625 177.609375 L 170.769531 177.050781 L 170.753906 176.273438 L 170.511719 175.414062 L 169.703125 175.136719 L 168.488281 175.035156 L 167.863281 174.863281 L 167.796875 174.582031 L 167.175781 174.21875 L 166.101562 173.296875 L 165.085938 172.15625 L 164.382812 171.816406 L 163.363281 172.359375 L 161.816406 172.976562 L 160.851562 173.191406 L 158.996094 174.96875 L 155.65625 175.03125 L 155.449219 174.199219 L 155.097656 173.398438 L 153.144531 173.199219 L 153.089844 172.734375 L 152.679688 171.558594 L 148.761719 169.269531 L 148.289062 168.316406 L 148.441406 167.949219 L 148.363281 167.773438 L 147.472656 167.777344 L 147.328125 167.773438 L 143.125 167.71875 L 139.964844 167.667969 L 135.257812 167.617188 L 131.800781 167.582031 L 131.792969 167.582031 L 127.894531 167.570312 L 122.382812 167.648438 L 117.863281 167.667969 L 116.003906 167.554688 L 114.4375 167.632812 L 112.285156 167.738281 L 110.679688 167.695312 L 109.121094 167.738281 L 106.578125 167.8125 L 103.535156 167.804688 L 100.230469 167.792969 L 96.351562 167.75 L 95.265625 166.894531 L 94.457031 166.488281 L 93.769531 165.359375 L 93.597656 164.433594 L 93.179688 163.589844 L 92.675781 163.164062 L 92.683594 162.132812 L 92.40625 161.328125 L 92.230469 159.726562 L 92.894531 157.921875 L 92.859375 156.882812 L 92.636719 155.789062 L 91.941406 155.46875 L 91.984375 155.214844 L 90.847656 154.40625 L 90.261719 152.972656 L 89.746094 152.957031 L 89.007812 152.71875 L 88.234375 152.1875 L 87.578125 151.613281 L 87.238281 150.441406 L 84.792969 149.910156 L 82.355469 149.578125 L 82.183594 149.746094 L 82.285156 150.925781 L 82.15625 151.554688 L 80.546875 151.945312 L 78.953125 151.984375 L 79.042969 151.789062 L 80.949219 149.664062 L 81.804688 148.328125 L 82.777344 145.898438 L 81.605469 143.988281 L 81.28125 143.09375 L 80.734375 142.667969 L 77.394531 141.738281 L 77.140625 141.417969 L 77.652344 140.164062 L 77.398438 139.632812 L 76.59375 139.078125 L 75.535156 137.972656 L 75.125 137.035156 L 76.476562 135.9375 L 76.808594 135.128906 L 77.394531 134.027344 L 77.824219 133.421875 L 77.90625 133.257812 L 77.023438 132.828125 L 76.796875 132.226562 L 77.035156 131.359375 L 76.566406 130.722656 L 75.382812 130.304688 L 74.613281 129.753906 L 74.257812 129.070312 L 74.535156 128 L 75.453125 126.539062 L 73.507812 124.792969 L 68.707031 122.75 L 66.398438 121.328125 L 66.589844 120.519531 L 67.597656 119.785156 L 69.433594 119.128906 L 70.824219 117.964844 L 71.605469 116.585938 L 71.632812 116.324219 L 71.671875 115.34375 L 69.539062 111.34375 L 69.191406 110.34375 L 68.9375 109.144531 L 68.800781 108.816406 L 73.019531 109.65625 L 74.789062 110.132812 L 74.570312 109.597656 L 74.210938 109.140625 L 74.445312 108.46875 L 74.324219 107.457031 L 70.5 106.941406 L 67.96875 106.765625 L 67.683594 106.066406 L 67.925781 105.613281 L 68.625 105.878906 L 71.113281 105.984375 L 77.226562 104.628906 L 87.789062 102.875 L 99.066406 101.234375 L 100.847656 101.113281 Z M 100.875 100.828125 "/>
</svg>
